<svg width="69" height="59" viewBox="0 0 69 59" fill="none" xmlns="http://www.w3.org/2000/svg">
<path d="M45.9006 14.5861C44.1394 13.6922 42.072 13.2393 39.7549 13.2393C37.3797 13.2393 35.2806 13.7086 33.5154 14.6334C31.7714 15.5486 30.304 16.7842 29.1551 18.3064C28.0285 19.7984 27.1867 21.5085 26.653 23.3887C25.0065 29.1924 26.0221 35.6406 29.2388 39.8145C30.3851 41.3077 31.8503 42.5273 33.5914 43.4395C35.3536 44.3655 37.453 44.8351 39.8308 44.8351C42.209 44.8351 44.3233 44.3517 46.1168 43.3978C47.8909 42.4525 49.3591 41.2001 50.4801 39.6765C51.5758 38.1885 52.4016 36.4691 52.9346 34.5643C54.5896 28.6379 53.5517 22.1825 50.2888 18.1184C49.1169 16.6599 47.6408 15.4719 45.9006 14.5861ZM50.0674 33.7623C49.6323 35.3187 48.9646 36.714 48.0826 37.9109C47.2273 39.0739 46.0952 40.036 44.7182 40.7695C43.3609 41.4912 41.717 41.8578 39.8316 41.8578C37.9413 41.8578 36.3078 41.5031 34.9755 40.803C33.6178 40.0918 32.4827 39.1495 31.5995 37.9995C28.9373 34.5446 28.1197 29.1284 29.5176 24.2016C29.95 22.6772 30.6274 21.2975 31.5318 20.1002C32.4138 18.9312 33.5467 17.9792 34.8988 17.2702C36.2327 16.5709 37.8665 16.2163 39.7553 16.2163C41.5994 16.2163 43.2138 16.5609 44.5518 17.2397C45.9125 17.9323 47.0621 18.8557 47.9683 19.9823C50.6487 23.3218 51.4727 28.7316 50.0674 33.7623Z" fill="url(#paint0_linear_216_1332)"/>
<path d="M66.8133 18.4698C64.0045 11.3066 58.8358 5.7895 51.8654 2.51439C48.3126 0.847061 44.3155 0.00148787 39.9846 0.00148787C39.4319 0.00148787 38.8844 0.0167461 38.3414 0.0442868C38.2294 0.0178626 38.1163 0 38.0009 0C37.8111 0 37.6235 0.0390773 37.449 0.10979C36.2885 0.201344 35.1497 0.352073 34.0384 0.571282C33.9063 0.571282 33.7749 0.598824 33.6539 0.6513C32.9341 0.803146 32.2274 0.986253 31.5307 1.19206C31.5087 1.15671 31.4842 1.12358 31.4548 1.09418C31.246 0.885766 30.8738 0.889488 30.6658 1.09418C30.5619 1.19839 30.5024 1.34354 30.5024 1.48869C30.5024 1.49799 30.5046 1.50729 30.505 1.5166C30.3516 1.5687 30.1987 1.62155 30.0465 1.67626C29.6691 1.39192 29.1648 1.29106 28.6825 1.45147C28.5983 1.47938 28.5206 1.51734 28.4454 1.55791C28.4498 1.53446 28.4592 1.51251 28.4592 1.48831C28.4592 1.39155 28.4182 1.29478 28.3512 1.22816C28.2098 1.08637 27.9642 1.08637 27.8224 1.22816C27.7554 1.29516 27.7148 1.39192 27.7148 1.48831C27.7148 1.58917 27.7554 1.68556 27.8224 1.75293C27.8882 1.81806 27.9761 1.85118 28.065 1.85602C27.8603 2.07709 27.7278 2.35324 27.6843 2.65247C26.8264 3.05367 25.9931 3.49097 25.1859 3.96288C24.7214 3.56429 24.0418 3.47273 23.4788 3.79205C22.8632 4.14487 22.5956 4.86763 22.7947 5.51819C22.0999 6.01838 21.4285 6.54464 20.7839 7.0988C20.2349 6.60418 19.3957 6.57739 18.8233 7.07089C18.2073 7.59937 18.1329 8.51677 18.6398 9.14128C18.0748 9.73638 17.5333 10.3512 17.0216 10.991C17.0019 10.9742 16.9866 10.9538 16.9661 10.9377C16.3189 10.4316 15.3844 10.5429 14.8749 11.1908C14.8786 11.1908 14.8786 11.1908 14.8786 11.1908C14.3687 11.8347 14.4804 12.7726 15.128 13.2783C15.1823 13.3215 15.2404 13.3569 15.2984 13.3915C14.857 14.0759 14.4395 14.7771 14.0569 15.4998C13.9821 15.4418 13.902 15.3885 13.8146 15.3443C13.081 14.9721 12.1841 15.2698 11.8119 16.003C11.4435 16.7366 11.7379 17.6335 12.4707 18.0019C12.5883 18.0604 12.7107 18.0994 12.8335 18.1259C12.5183 18.9004 12.2403 19.6845 11.9958 20.4761C11.8718 20.3961 11.7386 20.328 11.589 20.2863C10.7959 20.0667 9.97749 20.5357 9.76163 21.3288C9.54205 22.1215 10.0073 22.9403 10.8 23.1561C10.934 23.1934 11.0642 23.212 11.1978 23.212C11.231 23.212 11.2633 23.206 11.2965 23.2042C11.1271 24.0333 10.9987 24.8681 10.9042 25.7063C10.7456 25.6341 10.5741 25.5842 10.3902 25.5719C9.57182 25.5161 8.86097 26.1376 8.80477 26.956C8.74895 27.7752 9.36675 28.486 10.1896 28.5418C10.2231 28.5456 10.2566 28.5456 10.2901 28.5456C10.4431 28.5456 10.5886 28.5165 10.7282 28.4734C10.7159 29.3227 10.7427 30.1727 10.8059 31.022C10.6344 30.9814 10.4535 30.9669 10.2678 30.9911C9.4531 31.099 8.87995 31.8471 8.98788 32.6618C9.08465 33.4102 9.72478 33.9569 10.4617 33.9569C10.5249 33.9569 10.5923 33.9532 10.6589 33.942C10.8357 33.9186 10.998 33.8602 11.1476 33.7824C11.2909 34.6112 11.471 35.4356 11.6876 36.2555C11.5309 36.2562 11.3728 36.2748 11.2168 36.3277C10.439 36.5919 10.0221 37.4364 10.2864 38.2183C10.4985 38.8361 11.0791 39.2269 11.6969 39.2269C11.857 39.2269 12.017 39.2008 12.177 39.1487C12.3117 39.1026 12.4312 39.0334 12.5421 38.9556C12.6326 39.2005 12.7185 39.4461 12.8157 39.6899C13.0278 40.2206 13.2574 40.7386 13.4949 41.2511C13.3869 41.2828 13.2801 41.3237 13.1774 41.3818C12.4628 41.7874 12.2098 42.6955 12.6154 43.4101C12.8908 43.8939 13.3933 44.1652 13.9143 44.1652C14.16 44.1652 14.413 44.102 14.6438 43.9717C14.7171 43.93 14.7826 43.8801 14.8462 43.8284C15.2623 44.537 15.7015 45.2285 16.1712 45.8936C16.1313 45.9219 16.0885 45.9453 16.051 45.9781C15.4257 46.5136 15.3546 47.4552 15.8909 48.0767C16.1846 48.4195 16.6014 48.5944 17.0219 48.5944C17.3643 48.5944 17.7105 48.4753 17.9896 48.2334C17.9944 48.2293 17.9974 48.2245 18.0022 48.22C18.5449 48.8427 19.1109 49.4437 19.7053 50.0176C19.2773 50.6596 19.4042 51.5316 20.022 52.0143C20.2933 52.2265 20.6175 52.3273 20.9372 52.3273C21.296 52.3273 21.6469 52.1948 21.9234 51.9477C22.6056 52.4833 23.3128 52.9935 24.0478 53.4725C23.9283 54.1052 24.2238 54.7654 24.8234 55.0743C25.043 55.186 25.2734 55.2377 25.5041 55.2377C25.6039 55.2377 25.7017 55.2247 25.7989 55.205C25.7494 55.2831 25.7073 55.3672 25.6824 55.4614C25.5521 55.9601 25.8502 56.47 26.3452 56.5998C26.4267 56.6185 26.5053 56.6296 26.5834 56.6296C26.9965 56.6296 27.3724 56.3542 27.4841 55.9378C27.5328 55.7509 27.5213 55.5626 27.4621 55.3933C27.5752 55.4476 27.6843 55.5068 27.7978 55.56C28.2358 55.7658 28.6806 55.9586 29.1317 56.1391C29.2787 56.6121 29.6549 57.0022 30.1708 57.1395C30.2973 57.173 30.4238 57.1879 30.5504 57.1879C30.8597 57.1879 31.1544 57.0874 31.4004 56.9155C32.0272 57.1004 32.6617 57.2694 33.3097 57.4097C33.4407 57.4759 33.5836 57.5154 33.7291 57.5154C33.754 57.5154 33.7786 57.5098 33.8035 57.5076C34.8877 57.7219 36.0016 57.8727 37.1415 57.9639C37.3176 58.0342 37.5063 58.0737 37.6961 58.0737C37.8096 58.0737 37.9212 58.0565 38.0307 58.0309C38.5748 58.0584 39.1241 58.0733 39.6794 58.0733C43.9032 58.0733 47.8549 57.2567 51.4255 55.6463C65.9431 49.0943 72.5589 33.1117 66.8133 18.4698ZM50.2003 52.9321C47.0171 54.3679 43.4774 55.0959 39.6786 55.0959C35.785 55.0959 32.2136 54.3452 29.0632 52.8651C22.8014 49.9242 18.1385 44.9862 15.5794 38.5845C10.372 25.5741 16.467 10.8696 29.4543 5.1088C32.6412 3.69566 36.1839 2.97886 39.9846 2.97886C43.8749 2.97886 47.4466 3.72953 50.5996 5.20928C56.8674 8.15428 61.5154 13.1153 64.0414 19.5572C69.1974 32.6964 63.2468 47.0443 50.2003 52.9321Z" fill="url(#paint1_linear_216_1332)"/>
<path d="M27.5166 56.3223C27.4459 56.3934 27.4087 56.4898 27.4087 56.5865C27.4087 56.6837 27.4459 56.7801 27.5166 56.8508C27.5873 56.9182 27.6841 56.9587 27.7809 56.9587C27.8776 56.9587 27.9744 56.9182 28.0451 56.8508C28.1125 56.7804 28.153 56.6837 28.153 56.5865C28.153 56.4898 28.1125 56.393 28.0414 56.3223C27.9037 56.1842 27.6543 56.1842 27.5166 56.3223Z" fill="url(#paint2_linear_216_1332)"/>
<path d="M3.81186 42.3551C3.63359 42.4556 3.57032 42.6822 3.67081 42.8609C3.7378 42.9837 3.86434 43.0507 3.99423 43.0507C4.0575 43.0507 4.12077 43.0361 4.17659 43.0027C4.35523 42.9022 4.4185 42.6748 4.31801 42.4961C4.21753 42.3179 3.99087 42.2509 3.81186 42.3551Z" fill="url(#paint3_linear_216_1332)"/>
<path d="M14.3008 5.4598C14.3641 5.4598 14.4273 5.44156 14.4869 5.40769C14.6655 5.30683 14.7288 5.08018 14.6246 4.90154C14.5237 4.72327 14.2967 4.66 14.1185 4.76421C13.9402 4.86469 13.8769 5.09134 13.9807 5.26999C14.0474 5.39318 14.1739 5.4598 14.3008 5.4598Z" fill="url(#paint4_linear_216_1332)"/>
<path d="M6.86034 46.8231C6.70403 46.9567 6.68914 47.1952 6.82275 47.3478C6.89346 47.433 6.99804 47.4781 7.10188 47.4781C7.1912 47.4781 7.27717 47.4483 7.34751 47.3888C7.5001 47.2551 7.51908 47.0203 7.3851 46.864C7.25112 46.7073 7.01665 46.6891 6.86034 46.8231Z" fill="url(#paint5_linear_216_1332)"/>
<path d="M1.66198 37.3856C1.46845 37.4529 1.36388 37.6647 1.42714 37.8586C1.48297 38.0112 1.62476 38.1117 1.78108 38.1117C1.82164 38.1117 1.85886 38.1042 1.8998 38.089C2.09705 38.022 2.19754 37.8139 2.13427 37.6163C2.06765 37.4228 1.85551 37.3186 1.66198 37.3856Z" fill="url(#paint6_linear_216_1332)"/>
<path d="M3.05657 17.0047C3.1124 17.0304 3.16823 17.0457 3.22368 17.0457C3.36176 17.0457 3.49201 16.9712 3.55863 16.8406C3.65168 16.6583 3.57761 16.4349 3.39153 16.3419C3.20916 16.2489 2.98549 16.3233 2.89245 16.5057C2.79978 16.688 2.87421 16.9117 3.05657 17.0047Z" fill="url(#paint7_linear_216_1332)"/>
<path d="M6.13047 12.4817C6.24213 12.4817 6.35006 12.4292 6.42449 12.3362C6.55103 12.1762 6.52126 11.9413 6.36122 11.8151C6.1971 11.6886 5.96672 11.7147 5.83646 11.8784C5.70992 12.0388 5.7397 12.2733 5.89973 12.3995C5.97044 12.4557 6.04822 12.4817 6.13047 12.4817Z" fill="url(#paint8_linear_216_1332)"/>
<path d="M9.87486 8.57149C9.96046 8.57149 10.0457 8.54581 10.1164 8.48254C10.2727 8.34818 10.2913 8.11409 10.1573 7.95777C10.0234 7.80146 9.78889 7.78248 9.63257 7.91683C9.63257 7.92056 9.63257 7.92056 9.63257 7.92056C9.47626 8.05119 9.45729 8.28901 9.59164 8.44532C9.66645 8.53017 9.77028 8.57149 9.87486 8.57149Z" fill="url(#paint9_linear_216_1332)"/>
<path d="M19.2361 3.23904C19.2771 3.23904 19.3143 3.23123 19.3549 3.21671V3.22043C19.5484 3.15344 19.6567 2.94131 19.5897 2.74778C19.5264 2.55388 19.3143 2.44632 19.1208 2.51294C18.9235 2.57621 18.8189 2.78834 18.8822 2.98187C18.9347 3.13818 19.0798 3.23904 19.2361 3.23904Z" fill="url(#paint10_linear_216_1332)"/>
<path d="M0.373481 27.4305C0.567382 27.4305 0.731134 27.282 0.741927 27.0843C0.757186 26.8797 0.604599 26.701 0.39581 26.6861C0.191116 26.675 0.0128441 26.8275 0.000934566 27.0326C-0.0135801 27.241 0.142732 27.4156 0.347426 27.4305C0.355242 27.4305 0.362688 27.4305 0.373481 27.4305Z" fill="url(#paint11_linear_216_1332)"/>
<path d="M0.495716 32.0986C0.291394 32.1246 0.149594 32.3107 0.176018 32.5158C0.19872 32.7019 0.362106 32.8392 0.54447 32.8392C0.558984 32.8392 0.577967 32.8355 0.592854 32.8355C0.797548 32.8094 0.938974 32.6196 0.912922 32.4149C0.88687 32.2143 0.700783 32.0688 0.495716 32.0986Z" fill="url(#paint12_linear_216_1332)"/>
<path d="M1.63844 21.8212C1.69092 21.6239 1.57517 21.4192 1.37829 21.3634C1.17695 21.3076 0.972627 21.4267 0.920523 21.6239C0.864697 21.8212 0.983791 22.0255 1.18104 22.0817C1.21454 22.0891 1.24431 22.0969 1.2778 22.0969C1.44119 22.0969 1.59006 21.9849 1.63844 21.8212Z" fill="url(#paint13_linear_216_1332)"/>
<path d="M15.7545 53.4168C15.5725 53.3238 15.3488 53.3949 15.2521 53.5772C15.159 53.7592 15.2335 53.9866 15.4158 54.0797C15.4716 54.1057 15.5275 54.1202 15.5833 54.1202C15.7206 54.1202 15.8513 54.0462 15.9179 53.9159C16.0117 53.7332 15.9369 53.5099 15.7545 53.4168Z" fill="url(#paint14_linear_216_1332)"/>
<path d="M20.728 55.3394C20.5304 55.2873 20.3261 55.4067 20.2736 55.6036C20.2211 55.8046 20.3406 56.0093 20.5378 56.0614C20.5676 56.0688 20.6011 56.0725 20.635 56.0725C20.7984 56.0725 20.9476 55.9609 20.9919 55.7934C21.044 55.5962 20.9249 55.3915 20.728 55.3394Z" fill="url(#paint15_linear_216_1332)"/>
<path d="M10.7278 50.6118C10.6013 50.7718 10.631 51.0067 10.7948 51.1329C10.8621 51.185 10.9403 51.211 11.0222 51.211C11.1335 51.211 11.2418 51.1626 11.3158 51.0696C11.4424 50.9055 11.4126 50.6714 11.2526 50.5485C11.0892 50.422 10.8543 50.4481 10.7278 50.6118Z" fill="url(#paint16_linear_216_1332)"/>
<path d="M23.75 55.1601C23.4522 55.0816 23.1474 55.2606 23.0689 55.5579C22.9907 55.8557 23.1657 56.1609 23.4671 56.239C23.5118 56.2502 23.5602 56.2576 23.6085 56.2576C23.8542 56.2576 24.0816 56.0901 24.1482 55.8408C24.2263 55.5434 24.0477 55.2379 23.75 55.1601Z" fill="url(#paint17_linear_216_1332)"/>
<path d="M18.8146 53.2511C18.5429 53.1138 18.2039 53.2213 18.0628 53.493C17.9248 53.7684 18.0331 54.1037 18.3085 54.2448C18.3863 54.2898 18.4756 54.308 18.5616 54.308C18.7622 54.308 18.9598 54.1968 19.0565 54.0032C19.1976 53.7316 19.09 53.3925 18.8146 53.2511Z" fill="url(#paint18_linear_216_1332)"/>
<path d="M22.2085 3.42415C22.2676 3.42415 22.3272 3.41299 22.3871 3.39475C22.6774 3.29762 22.8378 2.98127 22.7407 2.68763C22.6439 2.39733 22.3276 2.23693 22.0339 2.33406C21.7395 2.43083 21.5832 2.74718 21.68 3.04082C21.7581 3.27529 21.9777 3.42415 22.2085 3.42415Z" fill="url(#paint19_linear_216_1332)"/>
<path d="M17.2786 5.64723C17.3716 5.64723 17.4647 5.62155 17.5536 5.57316C17.8219 5.42057 17.915 5.07818 17.7624 4.80984C17.6098 4.54188 17.2674 4.44883 16.9994 4.60552C16.9994 4.60142 16.9994 4.60142 16.9994 4.60142C16.7315 4.75402 16.6384 5.09641 16.7914 5.36437C16.8952 5.54711 17.0813 5.64723 17.2786 5.64723Z" fill="url(#paint20_linear_216_1332)"/>
<path d="M4.10668 22.2608C4.15469 22.2757 4.20344 22.2835 4.25518 22.2835C4.49672 22.2835 4.72449 22.1193 4.7911 21.87C4.87298 21.5763 4.69806 21.2674 4.39995 21.1852C4.10222 21.1033 3.79741 21.2782 3.71516 21.5763C3.63403 21.8737 3.80894 22.1785 4.10668 22.2608Z" fill="url(#paint21_linear_216_1332)"/>
<path d="M5.94852 17.1726C6.03077 17.2131 6.116 17.2321 6.19788 17.2321C6.40294 17.2321 6.59982 17.1201 6.70031 16.9269C6.83838 16.6515 6.72636 16.3128 6.45095 16.1751C6.17592 16.0371 5.84096 16.1454 5.70289 16.4208C5.56184 16.6962 5.67274 17.0349 5.94852 17.1726Z" fill="url(#paint22_linear_216_1332)"/>
<path d="M8.76303 12.5506C8.86352 12.6284 8.98634 12.6697 9.10543 12.6697C9.27254 12.6697 9.43666 12.5949 9.54459 12.4538C9.7344 12.2119 9.69346 11.8621 9.45155 11.6719C9.20964 11.4821 8.85608 11.5234 8.66664 11.7649C8.47646 12.0068 8.5174 12.357 8.76303 12.5506Z" fill="url(#paint23_linear_216_1332)"/>
<path d="M9.71508 46.6848C9.48062 46.8821 9.45457 47.2356 9.65591 47.4701C9.76719 47.5966 9.9235 47.6636 10.0798 47.6636C10.2067 47.6636 10.3366 47.619 10.4412 47.53C10.6757 47.3287 10.7013 46.9755 10.5045 46.7406C10.2994 46.5099 9.94955 46.4801 9.71508 46.6848Z" fill="url(#paint24_linear_216_1332)"/>
<path d="M12.8489 8.76228C12.9796 8.76228 13.1094 8.71725 13.2136 8.62793C13.4485 8.42361 13.4745 8.07376 13.2732 7.8393C13.0726 7.60446 12.719 7.57877 12.4883 7.77975C12.2538 7.98072 12.224 8.33056 12.425 8.56466C12.5363 8.69529 12.6926 8.76228 12.8489 8.76228Z" fill="url(#paint25_linear_216_1332)"/>
<path d="M6.69292 42.1899C6.42496 42.3425 6.33191 42.6849 6.4845 42.9529C6.58536 43.1315 6.7748 43.2357 6.97205 43.2357C7.06509 43.2357 7.15813 43.2134 7.24373 43.1617C7.5117 43.0128 7.60846 42.6704 7.45587 42.4021C7.30328 42.1341 6.96461 42.0411 6.69292 42.1899Z" fill="url(#paint26_linear_216_1332)"/>
<path d="M3.34736 27.6149C3.63765 27.6149 3.88328 27.3916 3.90189 27.0943H3.90561C3.92459 26.7891 3.69385 26.5208 3.38495 26.5025C3.07605 26.4798 2.8118 26.7109 2.7891 27.0198C2.77086 27.3284 3.00124 27.593 3.31014 27.6153C3.32168 27.6149 3.33284 27.6149 3.34736 27.6149Z" fill="url(#paint27_linear_216_1332)"/>
<path d="M4.07405 32.3936C4.03274 32.0884 3.75361 31.8725 3.44843 31.9131C3.13953 31.954 2.92776 32.2332 2.96461 32.5384C3.00518 32.8216 3.24374 33.0263 3.51915 33.0263C3.54483 33.0263 3.56715 33.0225 3.5932 33.0188C3.89876 32.9779 4.11462 32.6988 4.07405 32.3936Z" fill="url(#paint28_linear_216_1332)"/>
<path d="M14.3418 50.3991C14.0961 50.2093 13.7459 50.2539 13.5565 50.4959C13.3663 50.7378 13.4113 51.0917 13.6532 51.2815C13.7541 51.3593 13.8769 51.3965 13.9956 51.3965C14.1631 51.3965 14.3269 51.3258 14.4389 51.1844C14.6246 50.9395 14.5837 50.5889 14.3418 50.3991Z" fill="url(#paint29_linear_216_1332)"/>
<path d="M4.57497 37.2111C4.28467 37.3079 4.12836 37.6239 4.22475 37.9183C4.30291 38.1486 4.52249 38.2979 4.75324 38.2979C4.81279 38.2979 4.87605 38.2871 4.9356 38.2681C5.22589 38.1676 5.3822 37.8513 5.28209 37.5573C5.18533 37.267 4.86489 37.1107 4.57497 37.2111Z" fill="url(#paint30_linear_216_1332)"/>
<path d="M11.5049 12.8404C11.6765 12.9744 11.8771 13.0417 12.0785 13.0417C12.3539 13.0417 12.6289 12.9189 12.8116 12.6841C13.128 12.2784 13.061 11.6941 12.6549 11.3778C12.2493 11.0614 11.6653 11.1284 11.3486 11.5341C11.0326 11.9401 11.103 12.5244 11.5049 12.8404Z" fill="url(#paint31_linear_216_1332)"/>
<path d="M25.186 3.79651C25.2827 3.79651 25.3832 3.78162 25.48 3.74813C25.9672 3.58437 26.2318 3.05961 26.068 2.57207C25.9043 2.08452 25.3795 1.82028 24.892 1.98031C24.4041 2.1437 24.1402 2.67218 24.3039 3.1601C24.4305 3.54716 24.7952 3.79651 25.186 3.79651Z" fill="url(#paint32_linear_216_1332)"/>
<path d="M19.4437 5.54978C19.6153 5.84789 19.9279 6.01871 20.2514 6.01871C20.4077 6.01871 20.5681 5.97815 20.7129 5.8959C21.1561 5.63947 21.3121 5.07377 21.059 4.62679C20.8025 4.18056 20.2368 4.02425 19.7902 4.28067C19.7902 4.27695 19.7902 4.27695 19.7902 4.27695C19.3436 4.53338 19.1873 5.10317 19.4437 5.54978Z" fill="url(#paint33_linear_216_1332)"/>
<path d="M15.8268 9.13306C16.0389 9.13306 16.2548 9.05825 16.4297 8.90566C16.8208 8.57108 16.8651 7.98305 16.5302 7.59562C16.1956 7.20484 15.6072 7.16018 15.2201 7.49513C14.8293 7.83009 14.7847 8.41812 15.1196 8.80518C15.302 9.02141 15.5625 9.13306 15.8268 9.13306Z" fill="url(#paint34_linear_216_1332)"/>
<path d="M13.7571 46.4984C13.4221 46.1076 12.8374 46.0629 12.447 46.4012C12.0559 46.7329 12.0112 47.3209 12.3462 47.7117C12.5323 47.9275 12.7928 48.0354 13.0533 48.0354C13.2692 48.0354 13.485 47.9614 13.6603 47.8121C14.0507 47.4772 14.092 46.8892 13.7571 46.4984Z" fill="url(#paint35_linear_216_1332)"/>
<path d="M17.5427 50.1066C17.137 49.7898 16.5527 49.8646 16.2401 50.2699C15.9238 50.6719 15.9945 51.2562 16.4001 51.5725C16.5676 51.7061 16.7723 51.7698 16.9696 51.7698C17.2487 51.7698 17.52 51.647 17.7061 51.4125C18.0187 51.0072 17.9484 50.4229 17.5427 50.1066Z" fill="url(#paint36_linear_216_1332)"/>
<path d="M10.4039 43.4839C10.8501 43.2308 11.0064 42.6655 10.7534 42.2189C10.5003 41.7723 9.93497 41.6122 9.48427 41.8653C9.03803 42.1184 8.88172 42.6878 9.1348 43.1344C9.30563 43.4363 9.62197 43.6071 9.94613 43.6071C10.0987 43.6067 10.2588 43.5661 10.4039 43.4839Z" fill="url(#paint37_linear_216_1332)"/>
<path d="M21.9602 52.9197C21.5024 52.6852 20.9408 52.8676 20.71 53.3254C20.4756 53.7831 20.6542 54.3414 21.112 54.5759C21.2456 54.6462 21.3911 54.6797 21.5366 54.6797C21.8749 54.6797 22.1987 54.4936 22.3625 54.1739C22.6007 53.7161 22.4183 53.1542 21.9602 52.9197Z" fill="url(#paint38_linear_216_1332)"/>
<path d="M6.33159 21.4747C6.19388 21.9696 6.48418 22.4832 6.97879 22.6209C7.06104 22.6433 7.14664 22.6548 7.22852 22.6548C7.63791 22.6548 8.01008 22.3831 8.12508 21.9696C8.25944 21.4747 7.96877 20.9611 7.47378 20.8275C6.97879 20.689 6.46557 20.98 6.33159 21.4747Z" fill="url(#paint39_linear_216_1332)"/>
<path d="M6.6151 33.3925C7.12498 33.3214 7.48226 32.8562 7.41527 32.3463C7.34791 31.8368 6.87935 31.4792 6.37319 31.5462C5.86295 31.6135 5.50603 32.0821 5.57302 32.5886C5.63257 33.0575 6.03452 33.3999 6.49266 33.3999C6.53323 33.3999 6.57379 33.3962 6.6151 33.3925Z" fill="url(#paint40_linear_216_1332)"/>
<path d="M6.25751 27.9825C6.27984 27.9862 6.30218 27.9862 6.32079 27.9862C6.8087 27.9862 7.21399 27.6103 7.24749 27.1195C7.28471 26.6055 6.89802 26.163 6.38405 26.1295C5.87046 26.0919 5.42757 26.4789 5.39408 26.9925C5.35686 27.5061 5.74391 27.949 6.25751 27.9825Z" fill="url(#paint41_linear_216_1332)"/>
<path d="M7.42944 36.8574C6.94152 37.0215 6.68137 37.5497 6.84847 38.0372C6.97873 38.4243 7.33974 38.6699 7.73052 38.6699C7.82766 38.6699 7.92777 38.6513 8.02826 38.6174C8.51617 38.454 8.77632 37.9255 8.60922 37.4376C8.44584 36.9505 7.91698 36.6899 7.42944 36.8574Z" fill="url(#paint42_linear_216_1332)"/>
<path d="M10.006 17.0951C10.2364 16.634 10.0544 16.0758 9.59666 15.845C9.13516 15.6143 8.57691 15.7966 8.34616 16.2544C8.11169 16.7159 8.29778 17.2742 8.75555 17.5049C8.88953 17.5723 9.03468 17.6058 9.17611 17.6058C9.51478 17.6054 9.84266 17.4193 10.006 17.0951Z" fill="url(#paint43_linear_216_1332)"/>
<path d="M46.6684 22.2579H37.1453C37.0476 22.2579 36.9595 22.2957 36.8921 22.3563C36.8224 22.2944 36.7317 22.2578 36.6387 22.2578C36.5379 22.2578 36.4399 22.2988 36.3697 22.3691C36.2983 22.4404 36.2583 22.5384 36.2583 22.6382C36.2583 22.738 36.2983 22.836 36.3697 22.9074C36.441 22.9777 36.5389 23.0187 36.6387 23.0187C36.682 23.0187 36.7245 23.0096 36.7649 22.9953V23.7589C36.7253 23.7449 36.6832 23.7358 36.6387 23.7358C36.4285 23.7358 36.2583 23.9052 36.2583 24.1154C36.2583 24.3255 36.4285 24.4958 36.6387 24.4958C36.6832 24.4958 36.7253 24.4866 36.7649 24.4727V25.2474C36.7253 25.2335 36.6832 25.2243 36.6387 25.2243C36.4285 25.2243 36.2583 25.3945 36.2583 25.6048C36.2583 25.8149 36.4285 25.9852 36.6387 25.9852C36.6832 25.9852 36.7253 25.976 36.7649 25.962V26.7368C36.7253 26.7229 36.6832 26.7137 36.6387 26.7137C36.4285 26.7137 36.2583 26.8839 36.2583 27.0942C36.2583 27.3043 36.4285 27.4746 36.6387 27.4746C36.6832 27.4746 36.7253 27.4654 36.7649 27.4514V28.2253C36.7253 28.2112 36.6832 28.2021 36.6387 28.2021C36.4285 28.2021 36.2583 28.3724 36.2583 28.5826C36.2583 28.7927 36.4285 28.963 36.6387 28.963C36.6832 28.963 36.7253 28.9539 36.7649 28.9398V29.7146C36.7253 29.7005 36.6832 29.6914 36.6387 29.6914C36.4285 29.6914 36.2583 29.8617 36.2583 30.0719C36.2583 30.282 36.4285 30.4523 36.6387 30.4523C36.6832 30.4523 36.7253 30.4432 36.7649 30.4292V31.203C36.7253 31.189 36.6832 31.1798 36.6387 31.1798C36.4285 31.1798 36.2583 31.3502 36.2583 31.5603C36.2583 31.7706 36.4285 31.9407 36.6387 31.9407C36.6832 31.9407 36.7253 31.9315 36.7649 31.9176V32.6924C36.7253 32.6784 36.6832 32.6692 36.6387 32.6692C36.4285 32.6692 36.2583 32.8396 36.2583 33.0497C36.2583 33.26 36.4285 33.4301 36.6387 33.4301C36.6832 33.4301 36.7253 33.4209 36.7649 33.407V34.1817C36.7253 34.1678 36.6832 34.1586 36.6387 34.1586C36.4285 34.1586 36.2583 34.3289 36.2583 34.5391C36.2583 34.7494 36.4285 34.9195 36.6387 34.9195C36.6832 34.9195 36.7253 34.9103 36.7649 34.8965V36.165C36.7243 36.1506 36.682 36.1417 36.6387 36.1417C36.5379 36.1417 36.4399 36.1826 36.3697 36.2529C36.2993 36.3243 36.2583 36.4223 36.2583 36.5222C36.2583 36.622 36.2994 36.72 36.3697 36.7913C36.441 36.8617 36.5389 36.9026 36.6387 36.9026C36.7319 36.9026 36.8222 36.8659 36.892 36.8042C36.9594 36.8649 37.0476 36.9027 37.1453 36.9027H40.9586C41.1687 36.9027 41.3391 36.7324 41.3391 36.5223V31.7397H45.6126C45.8227 31.7397 45.993 31.5693 45.993 31.3592V28.2696C45.993 28.0595 45.8227 27.8891 45.6126 27.8891H41.3391V26.3426H46.6685C46.8786 26.3426 47.0489 26.1722 47.0489 25.9622V22.6379C47.0488 22.4283 46.8785 22.2579 46.6684 22.2579ZM46.288 25.5821H40.9586C40.7485 25.5821 40.5782 25.7525 40.5782 25.9626V28.27C40.5782 28.48 40.7485 28.6504 40.9586 28.6504H45.2321V30.9792H40.9586C40.7485 30.9792 40.5782 31.1496 40.5782 31.3596V36.1418H37.5257V23.0188H46.288V25.5821Z" fill="url(#paint44_linear_216_1332)"/>
<path d="M34.0378 36.454C34.0206 36.472 34.0103 36.4967 34.0103 36.5215C34.0103 36.5472 34.0197 36.571 34.0378 36.5891C34.0559 36.6071 34.0797 36.6166 34.1053 36.6166C34.1301 36.6166 34.1548 36.6071 34.1718 36.5891C34.19 36.5709 34.2005 36.5463 34.2005 36.5215C34.2005 36.4967 34.1901 36.4719 34.1729 36.4549C34.1367 36.4188 34.073 36.4188 34.0378 36.454Z" fill="url(#paint45_linear_216_1332)"/>
<path d="M34.1053 26.999C34.052 26.999 34.0103 27.0408 34.0103 27.0941C34.0103 27.1463 34.052 27.1892 34.1053 27.1892C34.1577 27.1892 34.2004 27.1463 34.2004 27.0941C34.2005 27.0409 34.1577 26.999 34.1053 26.999Z" fill="url(#paint46_linear_216_1332)"/>
<path d="M34.1053 28.4883C34.052 28.4883 34.0103 28.531 34.0103 28.5834C34.0103 28.6357 34.052 28.6784 34.1053 28.6784C34.1577 28.6784 34.2004 28.6357 34.2004 28.5834C34.2005 28.5311 34.1577 28.4883 34.1053 28.4883Z" fill="url(#paint47_linear_216_1332)"/>
<path d="M34.1053 25.5098C34.052 25.5098 34.0103 25.5524 34.0103 25.6048C34.0103 25.6572 34.052 25.6999 34.1053 25.6999C34.1577 25.6999 34.2004 25.6572 34.2004 25.6048C34.2005 25.5524 34.1577 25.5098 34.1053 25.5098Z" fill="url(#paint48_linear_216_1332)"/>
<path d="M34.1053 24.0195C34.052 24.0195 34.0103 24.0613 34.0103 24.1137C34.0103 24.167 34.052 24.2098 34.1053 24.2098C34.1577 24.2098 34.2004 24.1671 34.2004 24.1137C34.2005 24.0613 34.1577 24.0195 34.1053 24.0195Z" fill="url(#paint49_linear_216_1332)"/>
<path d="M34.1053 32.9541C34.052 32.9541 34.0103 32.9969 34.0103 33.0492C34.0103 33.1016 34.052 33.1443 34.1053 33.1443C34.1577 33.1443 34.2004 33.1016 34.2004 33.0492C34.2005 32.997 34.1577 32.9541 34.1053 32.9541Z" fill="url(#paint50_linear_216_1332)"/>
<path d="M34.1053 34.4453C34.052 34.4453 34.0103 34.4872 34.0103 34.5404C34.0103 34.5928 34.052 34.6355 34.1053 34.6355C34.1577 34.6355 34.2004 34.5928 34.2004 34.5404C34.2005 34.4872 34.1577 34.4453 34.1053 34.4453Z" fill="url(#paint51_linear_216_1332)"/>
<path d="M34.1053 31.4648C34.052 31.4648 34.0103 31.5077 34.0103 31.5599C34.0103 31.6133 34.052 31.655 34.1053 31.655C34.1577 31.655 34.2004 31.6133 34.2004 31.5599C34.2005 31.5077 34.1577 31.4648 34.1053 31.4648Z" fill="url(#paint52_linear_216_1332)"/>
<path d="M34.1053 29.9775C34.052 29.9775 34.0103 30.0203 34.0103 30.0726C34.0103 30.1249 34.052 30.1677 34.1053 30.1677C34.1577 30.1677 34.2004 30.1249 34.2004 30.0726C34.2004 30.0203 34.1577 29.9775 34.1053 29.9775Z" fill="url(#paint53_linear_216_1332)"/>
<path d="M34.0378 22.5704C34.0197 22.5884 34.0103 22.6131 34.0103 22.6379C34.0103 22.6627 34.0197 22.6874 34.0378 22.7054C34.0559 22.7234 34.0806 22.733 34.1053 22.733C34.1301 22.733 34.1548 22.7225 34.1728 22.7054C34.19 22.6874 34.2004 22.6627 34.2004 22.6379C34.2004 22.6131 34.19 22.5884 34.1728 22.5704C34.1377 22.5351 34.0739 22.5351 34.0378 22.5704Z" fill="url(#paint54_linear_216_1332)"/>
<path d="M34.7649 36.4218C34.7383 36.4484 34.7231 36.4854 34.7231 36.5227C34.7231 36.5606 34.7383 36.5967 34.7649 36.6235C34.7916 36.6502 34.8286 36.6653 34.8658 36.6653C34.9029 36.6653 34.9399 36.6502 34.9666 36.6235C34.9934 36.5968 35.0085 36.5598 35.0085 36.5227C35.0085 36.4854 34.9933 36.4485 34.9666 36.4218C34.9142 36.3685 34.8182 36.3685 34.7649 36.4218Z" fill="url(#paint55_linear_216_1332)"/>
<path d="M34.8658 33.1926C34.9446 33.1926 35.0085 33.1287 35.0085 33.0499C35.0085 32.9711 34.9446 32.9072 34.8658 32.9072C34.787 32.9072 34.7231 32.9711 34.7231 33.0499C34.7231 33.1287 34.787 33.1926 34.8658 33.1926Z" fill="url(#paint56_linear_216_1332)"/>
<path d="M34.8658 31.418C34.7868 31.418 34.7231 31.4828 34.7231 31.5606C34.7231 31.6396 34.7868 31.7033 34.8658 31.7033C34.9448 31.7033 35.0085 31.6396 35.0085 31.5606C35.0085 31.4828 34.9448 31.418 34.8658 31.418Z" fill="url(#paint57_linear_216_1332)"/>
<path d="M34.8658 34.3965C34.7868 34.3965 34.7231 34.4602 34.7231 34.5392C34.7231 34.6171 34.7868 34.6818 34.8658 34.6818C34.9448 34.6818 35.0085 34.6171 35.0085 34.5392C35.0085 34.4603 34.9448 34.3965 34.8658 34.3965Z" fill="url(#paint58_linear_216_1332)"/>
<path d="M34.8658 29.9287C34.9446 29.9287 35.0085 29.9926 35.0085 30.0714C35.0085 30.1502 34.9446 30.2141 34.8658 30.2141C34.787 30.2141 34.7231 30.1502 34.7231 30.0714C34.7231 29.9926 34.787 29.9287 34.8658 29.9287Z" fill="url(#paint59_linear_216_1332)"/>
<path d="M34.8658 25.7463C34.9446 25.7463 35.0085 25.6824 35.0085 25.6036C35.0085 25.5248 34.9446 25.4609 34.8658 25.4609C34.787 25.4609 34.7231 25.5248 34.7231 25.6036C34.7231 25.6824 34.787 25.7463 34.8658 25.7463Z" fill="url(#paint60_linear_216_1332)"/>
<path d="M34.8658 28.4395C34.9446 28.4395 35.0085 28.5033 35.0085 28.5821C35.0085 28.6609 34.9446 28.7248 34.8658 28.7248C34.787 28.7248 34.7231 28.6609 34.7231 28.5821C34.7231 28.5033 34.787 28.4395 34.8658 28.4395Z" fill="url(#paint61_linear_216_1332)"/>
<path d="M34.8658 23.9746C34.7868 23.9746 34.7231 24.0383 34.7231 24.1163C34.7231 24.1953 34.7868 24.2589 34.8658 24.2589C34.9448 24.2589 35.0085 24.1953 35.0085 24.1163C35.0085 24.0383 34.9448 23.9746 34.8658 23.9746Z" fill="url(#paint62_linear_216_1332)"/>
<path d="M34.8658 27.2355C34.9446 27.2355 35.0085 27.1717 35.0085 27.0929C35.0085 27.0141 34.9446 26.9502 34.8658 26.9502C34.787 26.9502 34.7231 27.0141 34.7231 27.0929C34.7231 27.1717 34.787 27.2355 34.8658 27.2355Z" fill="url(#paint63_linear_216_1332)"/>
<path d="M34.7649 22.537C34.7383 22.5636 34.7231 22.6007 34.7231 22.6378C34.7231 22.6757 34.7383 22.712 34.7649 22.7386C34.7916 22.7654 34.8286 22.7805 34.8658 22.7805C34.9029 22.7805 34.9399 22.7654 34.9666 22.7386C34.9933 22.7121 35.0085 22.6758 35.0085 22.6378C35.0085 22.6007 34.9933 22.5637 34.9666 22.537C34.9133 22.4838 34.8182 22.4838 34.7649 22.537Z" fill="url(#paint64_linear_216_1332)"/>
<path d="M35.4565 36.3544C35.4128 36.3992 35.3872 36.46 35.3872 36.5228C35.3872 36.5855 35.4129 36.6465 35.4565 36.6912C35.5012 36.7349 35.5621 36.7606 35.625 36.7606C35.6876 36.7606 35.7495 36.7348 35.7933 36.6912C35.838 36.6465 35.8627 36.5856 35.8627 36.5228C35.8627 36.4601 35.8379 36.3992 35.7933 36.3544C35.7057 36.266 35.5459 36.266 35.4565 36.3544Z" fill="url(#paint65_linear_216_1332)"/>
<path d="M35.625 28.3447C35.7563 28.3447 35.8627 28.4512 35.8627 28.5825C35.8627 28.7138 35.7563 28.8202 35.625 28.8202C35.4937 28.8202 35.3872 28.7138 35.3872 28.5825C35.3872 28.4512 35.4937 28.3447 35.625 28.3447Z" fill="url(#paint66_linear_216_1332)"/>
<path d="M35.625 27.331C35.7563 27.331 35.8627 27.2245 35.8627 27.0932C35.8627 26.9619 35.7563 26.8555 35.625 26.8555C35.4937 26.8555 35.3872 26.9619 35.3872 27.0932C35.3872 27.2245 35.4937 27.331 35.625 27.331Z" fill="url(#paint67_linear_216_1332)"/>
<path d="M35.625 25.3682C35.7563 25.3682 35.8627 25.4746 35.8627 25.6059C35.8627 25.7372 35.7563 25.8437 35.625 25.8437C35.4937 25.8437 35.3872 25.7372 35.3872 25.6059C35.3872 25.4746 35.4937 25.3682 35.625 25.3682Z" fill="url(#paint68_linear_216_1332)"/>
<path d="M35.625 23.877C35.4937 23.877 35.3872 23.9834 35.3872 24.1147C35.3872 24.2469 35.4937 24.3535 35.625 24.3535C35.7561 24.3535 35.8627 24.2469 35.8627 24.1147C35.8627 23.9834 35.7561 23.877 35.625 23.877Z" fill="url(#paint69_linear_216_1332)"/>
<path d="M35.625 33.287C35.7563 33.287 35.8627 33.1806 35.8627 33.0493C35.8627 32.918 35.7563 32.8115 35.625 32.8115C35.4937 32.8115 35.3872 32.918 35.3872 33.0493C35.3872 33.1806 35.4937 33.287 35.625 33.287Z" fill="url(#paint70_linear_216_1332)"/>
<path d="M35.625 34.3008C35.7563 34.3008 35.8627 34.4072 35.8627 34.5385C35.8627 34.6698 35.7563 34.7763 35.625 34.7763C35.4937 34.7763 35.3872 34.6698 35.3872 34.5385C35.3872 34.4072 35.4937 34.3008 35.625 34.3008Z" fill="url(#paint71_linear_216_1332)"/>
<path d="M35.625 29.834C35.7563 29.834 35.8627 29.9404 35.8627 30.0717C35.8627 30.203 35.7563 30.3095 35.625 30.3095C35.4937 30.3095 35.3872 30.203 35.3872 30.0717C35.3872 29.9404 35.4937 29.834 35.625 29.834Z" fill="url(#paint72_linear_216_1332)"/>
<path d="M35.625 31.3223C35.4937 31.3223 35.3872 31.4289 35.3872 31.56C35.3872 31.6923 35.4937 31.7978 35.625 31.7978C35.7561 31.7978 35.8627 31.6923 35.8627 31.56C35.8627 31.4289 35.7561 31.3223 35.625 31.3223Z" fill="url(#paint73_linear_216_1332)"/>
<path d="M35.4565 22.4706C35.4128 22.5153 35.3872 22.5762 35.3872 22.639C35.3872 22.7018 35.4129 22.7626 35.4565 22.8074C35.5012 22.8511 35.5621 22.8767 35.625 22.8767C35.6876 22.8767 35.7495 22.851 35.7933 22.8074C35.838 22.7626 35.8627 22.7019 35.8627 22.639C35.8627 22.5763 35.8379 22.5153 35.7933 22.4706C35.7047 22.3822 35.5459 22.3822 35.4565 22.4706Z" fill="url(#paint74_linear_216_1332)"/>
<defs>
<linearGradient id="paint0_linear_216_1332" x1="6.41937" y1="55.3812" x2="60.3842" y2="12.7676" gradientUnits="userSpaceOnUse">
<stop stop-color="#550885" stop-opacity="0.63"/>
<stop offset="1" stop-color="#43C450"/>
</linearGradient>
<linearGradient id="paint1_linear_216_1332" x1="6.04706" y1="54.9108" x2="60.0121" y2="12.297" gradientUnits="userSpaceOnUse">
<stop stop-color="#3E0895"/>
<stop offset="1" stop-color="#7EC443"/>
</linearGradient>
<linearGradient id="paint2_linear_216_1332" x1="15.2088" y1="66.5134" x2="69.1719" y2="23.9009" gradientUnits="userSpaceOnUse">
<stop stop-color="#1295D4"/>
<stop offset="1" stop-color="#7EC443"/>
</linearGradient>
<linearGradient id="paint3_linear_216_1332" x1="-0.692497" y1="46.3801" x2="53.2798" y2="3.7602" gradientUnits="userSpaceOnUse">
<stop stop-color="#1295D4"/>
<stop offset="1" stop-color="#7EC443"/>
</linearGradient>
<linearGradient id="paint4_linear_216_1332" x1="-15.0181" y1="28.2393" x2="38.9509" y2="-14.3777" gradientUnits="userSpaceOnUse">
<stop stop-color="#1295D4"/>
<stop offset="1" stop-color="#7EC443"/>
</linearGradient>
<linearGradient id="paint5_linear_216_1332" x1="2.65622" y1="50.6179" x2="56.6231" y2="8.0026" gradientUnits="userSpaceOnUse">
<stop stop-color="#1295D4"/>
<stop offset="1" stop-color="#7EC443"/>
</linearGradient>
<linearGradient id="paint6_linear_216_1332" x1="-3.94432" y1="42.259" x2="50.0226" y2="-0.356052" gradientUnits="userSpaceOnUse">
<stop stop-color="#1295D4"/>
<stop offset="1" stop-color="#7EC443"/>
</linearGradient>
<linearGradient id="paint7_linear_216_1332" x1="-13.6339" y1="29.987" x2="40.3288" y2="-12.6246" gradientUnits="userSpaceOnUse">
<stop stop-color="#1295D4"/>
<stop offset="1" stop-color="#7EC443"/>
</linearGradient>
<linearGradient id="paint8_linear_216_1332" x1="-14.7397" y1="28.5879" x2="39.226" y2="-14.0265" gradientUnits="userSpaceOnUse">
<stop stop-color="#1295D4"/>
<stop offset="1" stop-color="#7EC443"/>
</linearGradient>
<linearGradient id="paint9_linear_216_1332" x1="-15.2043" y1="28.0035" x2="38.7646" y2="-14.6131" gradientUnits="userSpaceOnUse">
<stop stop-color="#1295D4"/>
<stop offset="1" stop-color="#7EC443"/>
</linearGradient>
<linearGradient id="paint10_linear_216_1332" x1="-14.2034" y1="29.2723" x2="39.7659" y2="-13.345" gradientUnits="userSpaceOnUse">
<stop stop-color="#1295D4"/>
<stop offset="1" stop-color="#7EC443"/>
</linearGradient>
<linearGradient id="paint11_linear_216_1332" x1="-9.67935" y1="34.9957" x2="44.2827" y2="-7.61567" gradientUnits="userSpaceOnUse">
<stop stop-color="#1295D4"/>
<stop offset="1" stop-color="#7EC443"/>
</linearGradient>
<linearGradient id="paint12_linear_216_1332" x1="-6.9817" y1="38.4099" x2="46.9768" y2="-4.19898" gradientUnits="userSpaceOnUse">
<stop stop-color="#1295D4"/>
<stop offset="1" stop-color="#7EC443"/>
</linearGradient>
<linearGradient id="paint13_linear_216_1332" x1="-11.9273" y1="32.1498" x2="42.0364" y2="-10.4628" gradientUnits="userSpaceOnUse">
<stop stop-color="#1295D4"/>
<stop offset="1" stop-color="#7EC443"/>
</linearGradient>
<linearGradient id="paint14_linear_216_1332" x1="9.14442" y1="58.8337" x2="63.1099" y2="16.2195" gradientUnits="userSpaceOnUse">
<stop stop-color="#1295D4"/>
<stop offset="1" stop-color="#7EC443"/>
</linearGradient>
<linearGradient id="paint15_linear_216_1332" x1="12.0321" y1="62.4913" x2="65.996" y2="19.8783" gradientUnits="userSpaceOnUse">
<stop stop-color="#1295D4"/>
<stop offset="1" stop-color="#7EC443"/>
</linearGradient>
<linearGradient id="paint16_linear_216_1332" x1="5.97821" y1="54.8229" x2="59.9404" y2="12.2114" gradientUnits="userSpaceOnUse">
<stop stop-color="#1295D4"/>
<stop offset="1" stop-color="#7EC443"/>
</linearGradient>
<linearGradient id="paint17_linear_216_1332" x1="13.1751" y1="63.9379" x2="67.1394" y2="21.3247" gradientUnits="userSpaceOnUse">
<stop stop-color="#1295D4"/>
<stop offset="1" stop-color="#7EC443"/>
</linearGradient>
<linearGradient id="paint18_linear_216_1332" x1="10.287" y1="60.2824" x2="64.2547" y2="17.6663" gradientUnits="userSpaceOnUse">
<stop stop-color="#1295D4"/>
<stop offset="1" stop-color="#7EC443"/>
</linearGradient>
<linearGradient id="paint19_linear_216_1332" x1="-13.0584" y1="30.7135" x2="40.9036" y2="-11.898" gradientUnits="userSpaceOnUse">
<stop stop-color="#1295D4"/>
<stop offset="1" stop-color="#7EC443"/>
</linearGradient>
<linearGradient id="paint20_linear_216_1332" x1="-13.8739" y1="29.6857" x2="40.0921" y2="-12.9288" gradientUnits="userSpaceOnUse">
<stop stop-color="#1295D4"/>
<stop offset="1" stop-color="#7EC443"/>
</linearGradient>
<linearGradient id="paint21_linear_216_1332" x1="-10.7817" y1="33.5963" x2="43.1756" y2="-9.01123" gradientUnits="userSpaceOnUse">
<stop stop-color="#1295D4"/>
<stop offset="1" stop-color="#7EC443"/>
</linearGradient>
<linearGradient id="paint22_linear_216_1332" x1="-12.4919" y1="31.4338" x2="41.4716" y2="-11.1785" gradientUnits="userSpaceOnUse">
<stop stop-color="#1295D4"/>
<stop offset="1" stop-color="#7EC443"/>
</linearGradient>
<linearGradient id="paint23_linear_216_1332" x1="-13.5971" y1="30.0378" x2="40.3717" y2="-12.5788" gradientUnits="userSpaceOnUse">
<stop stop-color="#1295D4"/>
<stop offset="1" stop-color="#7EC443"/>
</linearGradient>
<linearGradient id="paint24_linear_216_1332" x1="3.80038" y1="52.0641" x2="57.7588" y2="9.45546" gradientUnits="userSpaceOnUse">
<stop stop-color="#1295D4"/>
<stop offset="1" stop-color="#7EC443"/>
</linearGradient>
<linearGradient id="paint25_linear_216_1332" x1="-14.059" y1="29.4531" x2="39.9084" y2="-13.1623" gradientUnits="userSpaceOnUse">
<stop stop-color="#1295D4"/>
<stop offset="1" stop-color="#7EC443"/>
</linearGradient>
<linearGradient id="paint26_linear_216_1332" x1="0.449889" y1="47.8234" x2="54.4131" y2="5.21102" gradientUnits="userSpaceOnUse">
<stop stop-color="#1295D4"/>
<stop offset="1" stop-color="#7EC443"/>
</linearGradient>
<linearGradient id="paint27_linear_216_1332" x1="-8.53653" y1="36.4409" x2="45.4253" y2="-6.17035" gradientUnits="userSpaceOnUse">
<stop stop-color="#1295D4"/>
<stop offset="1" stop-color="#7EC443"/>
</linearGradient>
<linearGradient id="paint28_linear_216_1332" x1="-5.83863" y1="39.8562" x2="48.12" y2="-2.75258" gradientUnits="userSpaceOnUse">
<stop stop-color="#1295D4"/>
<stop offset="1" stop-color="#7EC443"/>
</linearGradient>
<linearGradient id="paint29_linear_216_1332" x1="7.12055" y1="56.2704" x2="61.0867" y2="13.6558" gradientUnits="userSpaceOnUse">
<stop stop-color="#1295D4"/>
<stop offset="1" stop-color="#7EC443"/>
</linearGradient>
<linearGradient id="paint30_linear_216_1332" x1="-2.80212" y1="43.7065" x2="51.1611" y2="1.09403" gradientUnits="userSpaceOnUse">
<stop stop-color="#1295D4"/>
<stop offset="1" stop-color="#7EC443"/>
</linearGradient>
<linearGradient id="paint31_linear_216_1332" x1="-12.454" y1="31.4831" x2="41.511" y2="-11.1308" gradientUnits="userSpaceOnUse">
<stop stop-color="#1295D4"/>
<stop offset="1" stop-color="#7EC443"/>
</linearGradient>
<linearGradient id="paint32_linear_216_1332" x1="-11.9148" y1="32.1611" x2="42.0468" y2="-10.4501" gradientUnits="userSpaceOnUse">
<stop stop-color="#1295D4"/>
<stop offset="1" stop-color="#7EC443"/>
</linearGradient>
<linearGradient id="paint33_linear_216_1332" x1="-12.7307" y1="31.1306" x2="41.2334" y2="-11.4826" gradientUnits="userSpaceOnUse">
<stop stop-color="#1295D4"/>
<stop offset="1" stop-color="#7EC443"/>
</linearGradient>
<linearGradient id="paint34_linear_216_1332" x1="-12.9187" y1="30.8983" x2="41.0515" y2="-11.7195" gradientUnits="userSpaceOnUse">
<stop stop-color="#1295D4"/>
<stop offset="1" stop-color="#7EC443"/>
</linearGradient>
<linearGradient id="paint35_linear_216_1332" x1="4.94248" y1="53.5116" x2="58.9083" y2="10.8971" gradientUnits="userSpaceOnUse">
<stop stop-color="#1295D4"/>
<stop offset="1" stop-color="#7EC443"/>
</linearGradient>
<linearGradient id="paint36_linear_216_1332" x1="8.26313" y1="57.7181" x2="62.2295" y2="15.1032" gradientUnits="userSpaceOnUse">
<stop stop-color="#1295D4"/>
<stop offset="1" stop-color="#7EC443"/>
</linearGradient>
<linearGradient id="paint37_linear_216_1332" x1="1.59255" y1="49.2696" x2="55.5576" y2="6.65581" gradientUnits="userSpaceOnUse">
<stop stop-color="#1295D4"/>
<stop offset="1" stop-color="#7EC443"/>
</linearGradient>
<linearGradient id="paint38_linear_216_1332" x1="11.431" y1="61.7283" x2="65.3948" y2="19.1154" gradientUnits="userSpaceOnUse">
<stop stop-color="#1295D4"/>
<stop offset="1" stop-color="#7EC443"/>
</linearGradient>
<linearGradient id="paint39_linear_216_1332" x1="-9.64161" y1="35.0436" x2="44.322" y2="-7.56903" gradientUnits="userSpaceOnUse">
<stop stop-color="#1295D4"/>
<stop offset="1" stop-color="#7EC443"/>
</linearGradient>
<linearGradient id="paint40_linear_216_1332" x1="-4.69727" y1="41.3058" x2="49.2672" y2="-1.30765" gradientUnits="userSpaceOnUse">
<stop stop-color="#1295D4"/>
<stop offset="1" stop-color="#7EC443"/>
</linearGradient>
<linearGradient id="paint41_linear_216_1332" x1="-7.39603" y1="37.8869" x2="46.5699" y2="-4.7276" gradientUnits="userSpaceOnUse">
<stop stop-color="#1295D4"/>
<stop offset="1" stop-color="#7EC443"/>
</linearGradient>
<linearGradient id="paint42_linear_216_1332" x1="-1.66131" y1="45.1526" x2="52.306" y2="2.53687" gradientUnits="userSpaceOnUse">
<stop stop-color="#1295D4"/>
<stop offset="1" stop-color="#7EC443"/>
</linearGradient>
<linearGradient id="paint43_linear_216_1332" x1="-11.3482" y1="32.8819" x2="42.6152" y2="-9.73066" gradientUnits="userSpaceOnUse">
<stop stop-color="#1295D4"/>
<stop offset="1" stop-color="#7EC443"/>
</linearGradient>
<linearGradient id="paint44_linear_216_1332" x1="32.1859" y1="34.8023" x2="45.9767" y2="23.9123" gradientUnits="userSpaceOnUse">
<stop stop-color="#550885"/>
<stop offset="1" stop-color="#7EC443"/>
</linearGradient>
<linearGradient id="paint45_linear_216_1332" x1="33.7597" y1="36.7943" x2="47.5522" y2="25.9028" gradientUnits="userSpaceOnUse">
<stop stop-color="#1295D4"/>
<stop offset="1" stop-color="#7EC443"/>
</linearGradient>
<linearGradient id="paint46_linear_216_1332" x1="29.1738" y1="30.9879" x2="42.9651" y2="20.0973" gradientUnits="userSpaceOnUse">
<stop stop-color="#1295D4"/>
<stop offset="1" stop-color="#7EC443"/>
</linearGradient>
<linearGradient id="paint47_linear_216_1332" x1="29.8976" y1="31.906" x2="43.6902" y2="21.0146" gradientUnits="userSpaceOnUse">
<stop stop-color="#1295D4"/>
<stop offset="1" stop-color="#7EC443"/>
</linearGradient>
<linearGradient id="paint48_linear_216_1332" x1="28.4495" y1="30.0709" x2="42.241" y2="19.1804" gradientUnits="userSpaceOnUse">
<stop stop-color="#1295D4"/>
<stop offset="1" stop-color="#7EC443"/>
</linearGradient>
<linearGradient id="paint49_linear_216_1332" x1="27.725" y1="29.1528" x2="41.5177" y2="18.2615" gradientUnits="userSpaceOnUse">
<stop stop-color="#1295D4"/>
<stop offset="1" stop-color="#7EC443"/>
</linearGradient>
<linearGradient id="paint50_linear_216_1332" x1="32.0711" y1="34.6555" x2="45.861" y2="23.7663" gradientUnits="userSpaceOnUse">
<stop stop-color="#1295D4"/>
<stop offset="1" stop-color="#7EC443"/>
</linearGradient>
<linearGradient id="paint51_linear_216_1332" x1="32.7952" y1="35.5747" x2="46.5868" y2="24.6842" gradientUnits="userSpaceOnUse">
<stop stop-color="#1295D4"/>
<stop offset="1" stop-color="#7EC443"/>
</linearGradient>
<linearGradient id="paint52_linear_216_1332" x1="31.3463" y1="33.7387" x2="45.1386" y2="22.8476" gradientUnits="userSpaceOnUse">
<stop stop-color="#1295D4"/>
<stop offset="1" stop-color="#7EC443"/>
</linearGradient>
<linearGradient id="paint53_linear_216_1332" x1="30.6221" y1="32.823" x2="44.4145" y2="21.9318" gradientUnits="userSpaceOnUse">
<stop stop-color="#1295D4"/>
<stop offset="1" stop-color="#7EC443"/>
</linearGradient>
<linearGradient id="paint54_linear_216_1332" x1="27.005" y1="28.2448" x2="40.7999" y2="17.3517" gradientUnits="userSpaceOnUse">
<stop stop-color="#1295D4"/>
<stop offset="1" stop-color="#7EC443"/>
</linearGradient>
<linearGradient id="paint55_linear_216_1332" x1="34.0523" y1="37.1651" x2="47.843" y2="26.2753" gradientUnits="userSpaceOnUse">
<stop stop-color="#1295D4"/>
<stop offset="1" stop-color="#7EC443"/>
</linearGradient>
<linearGradient id="paint56_linear_216_1332" x1="32.3632" y1="35.0261" x2="46.1545" y2="24.1358" gradientUnits="userSpaceOnUse">
<stop stop-color="#1295D4"/>
<stop offset="1" stop-color="#7EC443"/>
</linearGradient>
<linearGradient id="paint57_linear_216_1332" x1="31.6389" y1="34.109" x2="45.4301" y2="23.2187" gradientUnits="userSpaceOnUse">
<stop stop-color="#1295D4"/>
<stop offset="1" stop-color="#7EC443"/>
</linearGradient>
<linearGradient id="paint58_linear_216_1332" x1="33.0876" y1="35.9432" x2="46.879" y2="25.0528" gradientUnits="userSpaceOnUse">
<stop stop-color="#1295D4"/>
<stop offset="1" stop-color="#7EC443"/>
</linearGradient>
<linearGradient id="paint59_linear_216_1332" x1="30.9152" y1="33.191" x2="44.7054" y2="22.3015" gradientUnits="userSpaceOnUse">
<stop stop-color="#1295D4"/>
<stop offset="1" stop-color="#7EC443"/>
</linearGradient>
<linearGradient id="paint60_linear_216_1332" x1="28.742" y1="30.4393" x2="42.5333" y2="19.549" gradientUnits="userSpaceOnUse">
<stop stop-color="#1295D4"/>
<stop offset="1" stop-color="#7EC443"/>
</linearGradient>
<linearGradient id="paint61_linear_216_1332" x1="30.1905" y1="32.274" x2="43.9817" y2="21.3837" gradientUnits="userSpaceOnUse">
<stop stop-color="#1295D4"/>
<stop offset="1" stop-color="#7EC443"/>
</linearGradient>
<linearGradient id="paint62_linear_216_1332" x1="28.0181" y1="29.5241" x2="41.8089" y2="18.6341" gradientUnits="userSpaceOnUse">
<stop stop-color="#1295D4"/>
<stop offset="1" stop-color="#7EC443"/>
</linearGradient>
<linearGradient id="paint63_linear_216_1332" x1="29.4667" y1="31.3563" x2="43.2574" y2="20.4664" gradientUnits="userSpaceOnUse">
<stop stop-color="#1295D4"/>
<stop offset="1" stop-color="#7EC443"/>
</linearGradient>
<linearGradient id="paint64_linear_216_1332" x1="27.3001" y1="28.6121" x2="41.0895" y2="17.7232" gradientUnits="userSpaceOnUse">
<stop stop-color="#1295D4"/>
<stop offset="1" stop-color="#7EC443"/>
</linearGradient>
<linearGradient id="paint65_linear_216_1332" x1="34.3434" y1="37.5349" x2="48.1341" y2="26.645" gradientUnits="userSpaceOnUse">
<stop stop-color="#1295D4"/>
<stop offset="1" stop-color="#7EC443"/>
</linearGradient>
<linearGradient id="paint66_linear_216_1332" x1="30.4816" y1="32.644" x2="44.2727" y2="21.7537" gradientUnits="userSpaceOnUse">
<stop stop-color="#1295D4"/>
<stop offset="1" stop-color="#7EC443"/>
</linearGradient>
<linearGradient id="paint67_linear_216_1332" x1="29.7575" y1="31.7266" x2="43.549" y2="20.836" gradientUnits="userSpaceOnUse">
<stop stop-color="#1295D4"/>
<stop offset="1" stop-color="#7EC443"/>
</linearGradient>
<linearGradient id="paint68_linear_216_1332" x1="29.0335" y1="30.8109" x2="42.824" y2="19.9212" gradientUnits="userSpaceOnUse">
<stop stop-color="#1295D4"/>
<stop offset="1" stop-color="#7EC443"/>
</linearGradient>
<linearGradient id="paint69_linear_216_1332" x1="28.3089" y1="29.8923" x2="42.1001" y2="19.0021" gradientUnits="userSpaceOnUse">
<stop stop-color="#1295D4"/>
<stop offset="1" stop-color="#7EC443"/>
</linearGradient>
<linearGradient id="paint70_linear_216_1332" x1="32.6544" y1="35.3951" x2="46.4455" y2="24.5049" gradientUnits="userSpaceOnUse">
<stop stop-color="#1295D4"/>
<stop offset="1" stop-color="#7EC443"/>
</linearGradient>
<linearGradient id="paint71_linear_216_1332" x1="33.3788" y1="36.3123" x2="47.1701" y2="25.4217" gradientUnits="userSpaceOnUse">
<stop stop-color="#1295D4"/>
<stop offset="1" stop-color="#7EC443"/>
</linearGradient>
<linearGradient id="paint72_linear_216_1332" x1="31.206" y1="33.5612" x2="44.9971" y2="22.671" gradientUnits="userSpaceOnUse">
<stop stop-color="#1295D4"/>
<stop offset="1" stop-color="#7EC443"/>
</linearGradient>
<linearGradient id="paint73_linear_216_1332" x1="31.93" y1="34.478" x2="45.7211" y2="23.5877" gradientUnits="userSpaceOnUse">
<stop stop-color="#1295D4"/>
<stop offset="1" stop-color="#7EC443"/>
</linearGradient>
<linearGradient id="paint74_linear_216_1332" x1="27.5902" y1="28.9837" x2="41.3815" y2="18.0934" gradientUnits="userSpaceOnUse">
<stop stop-color="#1295D4"/>
<stop offset="1" stop-color="#7EC443"/>
</linearGradient>
</defs>
</svg>
