<svg width="28" height="24" viewBox="0 0 28 24" fill="none" xmlns="http://www.w3.org/2000/svg">
<path d="M18.3603 5.83465C17.6559 5.47707 16.8289 5.2959 15.9021 5.2959C14.952 5.2959 14.1124 5.48362 13.4063 5.85356C12.7087 6.21963 12.1217 6.71387 11.6621 7.32274C11.2115 7.91956 10.8748 8.60361 10.6613 9.35569C10.0027 11.6772 10.4089 14.2564 11.6956 15.926C12.1541 16.5233 12.7402 17.0111 13.4366 17.376C14.1415 17.7464 14.9813 17.9342 15.9324 17.9342C16.8837 17.9342 17.7294 17.7409 18.4468 17.3593C19.1565 16.9812 19.7438 16.4802 20.1921 15.8708C20.6304 15.2756 20.9608 14.5878 21.1739 13.8259C21.836 11.4553 21.4208 8.87321 20.1156 7.24756C19.6468 6.66415 19.0564 6.18896 18.3603 5.83465ZM20.0271 13.5051C19.853 14.1277 19.586 14.6858 19.2331 15.1645C18.891 15.6298 18.4382 16.0146 17.8874 16.308C17.3444 16.5967 16.6869 16.7433 15.9327 16.7433C15.1766 16.7433 14.5232 16.6014 13.9903 16.3214C13.4472 16.0369 12.9932 15.66 12.6399 15.2C11.575 13.818 11.248 11.6515 11.8071 9.68082C11.9801 9.07106 12.251 8.5192 12.6128 8.04029C12.9656 7.57269 13.4188 7.19189 13.9596 6.90829C14.4932 6.62857 15.1467 6.4867 15.9022 6.4867C16.6398 6.4867 17.2856 6.62455 17.8208 6.89609C18.3651 7.17313 18.8249 7.54247 19.1874 7.9931C20.2596 9.3289 20.5892 11.4929 20.0271 13.5051Z" fill="url(#paint0_linear_216_1332)"/>
<path d="M26.7253 7.3879C25.6018 4.52263 23.5343 2.3158 20.7462 1.00576C19.3251 0.338824 17.7262 0.000595147 15.9938 0.000595147C15.7728 0.000595147 15.5538 0.00669844 15.3366 0.0177147C15.2918 0.00714505 15.2465 0 15.2004 0C15.1244 0 15.0494 0.0156309 14.9796 0.043916C14.5154 0.0805377 14.0599 0.140829 13.6153 0.228513C13.5625 0.228513 13.51 0.23953 13.4616 0.26052C13.1737 0.321258 12.891 0.394501 12.6123 0.476825C12.6035 0.462683 12.5937 0.449434 12.5819 0.437673C12.4984 0.354307 12.3495 0.355795 12.2663 0.437673C12.2248 0.479356 12.201 0.537416 12.201 0.595474C12.201 0.599196 12.2018 0.602917 12.202 0.606639C12.1407 0.627481 12.0795 0.64862 12.0186 0.670504C11.8676 0.556768 11.6659 0.516424 11.473 0.580587C11.4393 0.591752 11.4082 0.606937 11.3782 0.623164C11.3799 0.613785 11.3837 0.605002 11.3837 0.595326C11.3837 0.55662 11.3673 0.517913 11.3405 0.491266C11.2839 0.434547 11.1857 0.434547 11.1289 0.491266C11.1022 0.518062 11.0859 0.556769 11.0859 0.595326C11.0859 0.635669 11.1022 0.674226 11.1289 0.701171C11.1553 0.727223 11.1904 0.740472 11.226 0.742408C11.1441 0.830836 11.0911 0.941296 11.0737 1.06099C10.7306 1.22147 10.3973 1.39639 10.0744 1.58515C9.88857 1.42571 9.61674 1.38909 9.3915 1.51682C9.14527 1.65795 9.03824 1.94705 9.11788 2.20727C8.83994 2.40735 8.57138 2.61785 8.31354 2.83952C8.09396 2.64167 7.75826 2.63096 7.5293 2.82836C7.28292 3.03975 7.25315 3.40671 7.45591 3.65651C7.22993 3.89455 7.01333 4.14048 6.80863 4.39639C6.80074 4.38969 6.79464 4.3815 6.78645 4.3751C6.52757 4.17264 6.15376 4.21715 5.94996 4.47633C5.95144 4.47633 5.95144 4.47633 5.95144 4.47633C5.74749 4.73387 5.79215 5.10902 6.05119 5.31133C6.07292 5.3286 6.09615 5.34275 6.11937 5.35659C5.94281 5.63036 5.77578 5.91083 5.62274 6.19993C5.59282 6.17671 5.56081 6.15542 5.52583 6.1377C5.23241 5.98884 4.87364 6.10793 4.72477 6.4012C4.57739 6.69462 4.69514 7.0534 4.98826 7.20078C5.03531 7.22415 5.08429 7.23978 5.13341 7.25035C5.00732 7.56014 4.89611 7.87381 4.79831 8.19045C4.74873 8.15845 4.69544 8.1312 4.6356 8.11453C4.31836 8.0267 3.99099 8.21427 3.90465 8.53151C3.81682 8.8486 4.0029 9.17611 4.31999 9.26246C4.37359 9.27734 4.42569 9.28479 4.47913 9.28479C4.49238 9.28479 4.50533 9.28241 4.51858 9.28166C4.45085 9.61334 4.39949 9.94725 4.36168 10.2825C4.29826 10.2536 4.22963 10.2337 4.15609 10.2288C3.82873 10.2064 3.54439 10.455 3.52191 10.7824C3.49958 11.1101 3.7467 11.3944 4.07585 11.4167C4.08925 11.4182 4.10265 11.4182 4.11604 11.4182C4.17723 11.4182 4.23544 11.4066 4.29126 11.3893C4.28635 11.7291 4.29707 12.0691 4.32238 12.4088C4.25375 12.3926 4.1814 12.3868 4.10711 12.3964C3.78124 12.4396 3.55198 12.7388 3.59515 13.0647C3.63386 13.3641 3.88991 13.5828 4.18467 13.5828C4.20998 13.5828 4.23692 13.5813 4.26357 13.5768C4.33428 13.5674 4.39919 13.5441 4.45904 13.513C4.51635 13.8445 4.5884 14.1742 4.67505 14.5022C4.61237 14.5025 4.5491 14.5099 4.48673 14.5311C4.17559 14.6368 4.00886 14.9745 4.11456 15.2873C4.19941 15.5344 4.43164 15.6908 4.67877 15.6908C4.74278 15.6908 4.80679 15.6803 4.87081 15.6595C4.9247 15.641 4.97248 15.6133 5.01685 15.5822C5.05302 15.6802 5.08741 15.7784 5.12627 15.8759C5.21112 16.0882 5.30297 16.2955 5.39795 16.5004C5.35478 16.5131 5.31205 16.5295 5.27097 16.5527C4.98514 16.715 4.88391 17.0782 5.04617 17.364C5.15634 17.5576 5.35731 17.6661 5.56573 17.6661C5.66398 17.6661 5.76521 17.6408 5.85751 17.5887C5.88684 17.572 5.91304 17.5521 5.93849 17.5314C6.10493 17.8148 6.28059 18.0914 6.46847 18.3574C6.45254 18.3687 6.43542 18.3781 6.42038 18.3912C6.17028 18.6055 6.14185 18.9821 6.35637 19.2307C6.47382 19.3678 6.64056 19.4378 6.80878 19.4378C6.94574 19.4378 7.08419 19.3901 7.19584 19.2934C7.19777 19.2917 7.19896 19.2898 7.2009 19.288C7.41795 19.5371 7.64438 19.7775 7.88212 20.007C7.71092 20.2638 7.76169 20.6126 8.00881 20.8057C8.11733 20.8906 8.247 20.9309 8.37488 20.9309C8.51839 20.9309 8.65877 20.8779 8.76938 20.7791C9.04225 20.9933 9.32511 21.1974 9.61912 21.389C9.57133 21.6421 9.68954 21.9062 9.92936 22.0297C10.0172 22.0744 10.1093 22.0951 10.2016 22.0951C10.2415 22.0951 10.2807 22.0899 10.3195 22.082C10.2997 22.1132 10.2829 22.1469 10.273 22.1846C10.2208 22.384 10.3401 22.588 10.5381 22.6399C10.5707 22.6474 10.6021 22.6518 10.6334 22.6518C10.7986 22.6518 10.949 22.5417 10.9936 22.3751C11.0131 22.3004 11.0085 22.225 10.9848 22.1573C11.0301 22.179 11.0737 22.2027 11.1191 22.224C11.2943 22.3063 11.4722 22.3834 11.6527 22.4556C11.7115 22.6449 11.862 22.8009 12.0683 22.8558C12.1189 22.8692 12.1695 22.8752 12.2202 22.8752C12.3439 22.8752 12.4618 22.835 12.5602 22.7662C12.8109 22.8402 13.0647 22.9078 13.3239 22.9639C13.3763 22.9904 13.4334 23.0062 13.4916 23.0062C13.5016 23.0062 13.5114 23.0039 13.5214 23.003C13.9551 23.0888 14.4006 23.1491 14.8566 23.1855C14.927 23.2137 15.0025 23.2295 15.0784 23.2295C15.1238 23.2295 15.1685 23.2226 15.2123 23.2123C15.4299 23.2234 15.6496 23.2293 15.8718 23.2293C17.5613 23.2293 19.1419 22.9027 20.5702 22.2585C26.3773 19.6377 29.0235 13.2447 26.7253 7.3879ZM20.0801 21.1728C18.8068 21.7472 17.391 22.0384 15.8715 22.0384C14.314 22.0384 12.8854 21.7381 11.6253 21.146C9.12056 19.9697 7.25539 17.9945 6.23177 15.4338C4.1488 10.2297 6.58682 4.34786 11.7817 2.04352C13.0565 1.47827 14.4736 1.19154 15.9938 1.19154C17.5499 1.19154 18.9786 1.49181 20.2399 2.08371C22.7469 3.26171 24.6062 5.24613 25.6165 7.8229C27.679 13.0786 25.2987 18.8177 20.0801 21.1728Z" fill="url(#paint1_linear_216_1332)"/>
<path d="M11.0066 22.5287C10.9783 22.5572 10.9634 22.5957 10.9634 22.6344C10.9634 22.6733 10.9783 22.7118 11.0066 22.7401C11.0348 22.7671 11.0735 22.7833 11.1122 22.7833C11.151 22.7833 11.1897 22.7671 11.2179 22.7401C11.2449 22.712 11.2611 22.6733 11.2611 22.6344C11.2611 22.5957 11.2449 22.557 11.2165 22.5287C11.1614 22.4735 11.0616 22.4735 11.0066 22.5287Z" fill="url(#paint2_linear_216_1332)"/>
<path d="M1.52474 16.9416C1.45344 16.9818 1.42813 17.0725 1.46832 17.144C1.49512 17.1931 1.54574 17.2199 1.59769 17.2199C1.623 17.2199 1.64831 17.2141 1.67064 17.2007C1.74209 17.1605 1.7674 17.0695 1.72721 16.9981C1.68701 16.9268 1.59635 16.9 1.52474 16.9416Z" fill="url(#paint3_linear_216_1332)"/>
<path d="M5.72032 2.18411C5.74563 2.18411 5.77094 2.17682 5.79476 2.16327C5.86622 2.12293 5.89152 2.03227 5.84984 1.96081C5.8095 1.8895 5.71869 1.86419 5.64738 1.90588C5.57607 1.94607 5.55076 2.03673 5.5923 2.10819C5.61894 2.15747 5.66956 2.18411 5.72032 2.18411Z" fill="url(#paint4_linear_216_1332)"/>
<path d="M2.74423 18.7292C2.68171 18.7827 2.67575 18.8781 2.7292 18.9391C2.75748 18.9732 2.79931 18.9912 2.84085 18.9912C2.87658 18.9912 2.91096 18.9793 2.9391 18.9555C3.00014 18.9021 3.00773 18.8081 2.95414 18.7456C2.90055 18.6829 2.80676 18.6756 2.74423 18.7292Z" fill="url(#paint5_linear_216_1332)"/>
<path d="M0.664794 14.9544C0.587382 14.9814 0.54555 15.0661 0.570858 15.1436C0.593188 15.2047 0.649906 15.2449 0.71243 15.2449C0.728657 15.2449 0.743544 15.2419 0.759919 15.2358C0.83882 15.209 0.879015 15.1258 0.853707 15.0467C0.82706 14.9693 0.742205 14.9276 0.664794 14.9544Z" fill="url(#paint6_linear_216_1332)"/>
<path d="M1.22273 6.8017C1.24506 6.81198 1.26739 6.81808 1.28957 6.81808C1.3448 6.81808 1.3969 6.7883 1.42355 6.73605C1.46077 6.66311 1.43114 6.57378 1.35671 6.53657C1.28376 6.49935 1.19429 6.52912 1.15708 6.60207C1.12001 6.67502 1.14978 6.76449 1.22273 6.8017Z" fill="url(#paint7_linear_216_1332)"/>
<path d="M2.45229 4.99288C2.49695 4.99288 2.54012 4.97189 2.56989 4.93467C2.62051 4.87066 2.6086 4.77672 2.54459 4.72625C2.47894 4.67564 2.38679 4.68606 2.33468 4.75156C2.28407 4.81572 2.29598 4.90951 2.35999 4.95998C2.38827 4.98246 2.41939 4.99288 2.45229 4.99288Z" fill="url(#paint8_linear_216_1332)"/>
<path d="M3.94994 3.42859C3.98418 3.42859 4.01827 3.41832 4.04656 3.39301C4.10908 3.33927 4.11653 3.24563 4.06294 3.18311C4.00934 3.12058 3.91555 3.11299 3.85303 3.16673C3.85303 3.16822 3.85303 3.16822 3.85303 3.16822C3.79051 3.22048 3.78292 3.3156 3.83666 3.37813C3.86658 3.41207 3.90811 3.42859 3.94994 3.42859Z" fill="url(#paint9_linear_216_1332)"/>
<path d="M7.69435 1.29542C7.71073 1.29542 7.72562 1.2923 7.74184 1.28649V1.28798C7.81926 1.26118 7.86258 1.17633 7.83578 1.09892C7.81047 1.02135 7.72562 0.978332 7.64821 1.00498C7.56931 1.03029 7.52747 1.11514 7.55278 1.19255C7.57377 1.25508 7.63183 1.29542 7.69435 1.29542Z" fill="url(#paint10_linear_216_1332)"/>
<path d="M0.149392 10.9718C0.226953 10.9718 0.292454 10.9124 0.296771 10.8333C0.302874 10.7515 0.241839 10.68 0.158324 10.6741C0.0764464 10.6696 0.00513762 10.7306 0.000373827 10.8127C-0.00543205 10.896 0.0570927 10.9658 0.13897 10.9718C0.142097 10.9718 0.145075 10.9718 0.149392 10.9718Z" fill="url(#paint11_linear_216_1332)"/>
<path d="M0.198482 12.8394C0.116753 12.8499 0.0600327 12.9243 0.0706024 13.0063C0.0796834 13.0808 0.145038 13.1357 0.217983 13.1357C0.223789 13.1357 0.231382 13.1342 0.237337 13.1342C0.319215 13.1238 0.375785 13.0479 0.365364 12.966C0.354943 12.8857 0.280508 12.8275 0.198482 12.8394Z" fill="url(#paint12_linear_216_1332)"/>
<path d="M0.655474 8.72866C0.676465 8.64976 0.630166 8.56788 0.551415 8.54555C0.470877 8.52322 0.389148 8.57086 0.368307 8.64976C0.345976 8.72866 0.393614 8.81039 0.472514 8.83287C0.485912 8.83585 0.497821 8.83897 0.511219 8.83897C0.576573 8.83897 0.636122 8.79417 0.655474 8.72866Z" fill="url(#paint13_linear_216_1332)"/>
<path d="M6.30199 21.3669C6.2292 21.3297 6.13973 21.3581 6.10102 21.4311C6.0638 21.5039 6.09358 21.5948 6.16652 21.6321C6.18885 21.6425 6.21118 21.6483 6.23351 21.6483C6.28845 21.6483 6.3407 21.6187 6.36735 21.5666C6.40486 21.4935 6.37494 21.4041 6.30199 21.3669Z" fill="url(#paint14_linear_216_1332)"/>
<path d="M8.29121 22.1357C8.21216 22.1149 8.13043 22.1627 8.10944 22.2414C8.08845 22.3218 8.13624 22.4037 8.21514 22.4246C8.22705 22.4275 8.24045 22.429 8.25399 22.429C8.31935 22.429 8.37904 22.3844 8.39676 22.3174C8.4176 22.2385 8.36996 22.1566 8.29121 22.1357Z" fill="url(#paint15_linear_216_1332)"/>
<path d="M4.29112 20.2447C4.2405 20.3087 4.25241 20.4027 4.31791 20.4531C4.34486 20.474 4.37612 20.4844 4.40887 20.4844C4.45338 20.4844 4.4967 20.4651 4.52633 20.4278C4.57694 20.3622 4.56503 20.2685 4.50102 20.2194C4.43567 20.1688 4.34173 20.1792 4.29112 20.2447Z" fill="url(#paint16_linear_216_1332)"/>
<path d="M9.50008 22.064C9.38099 22.0326 9.25907 22.1042 9.22765 22.2232C9.19639 22.3423 9.26636 22.4643 9.38694 22.4956C9.40481 22.5001 9.42416 22.503 9.44351 22.503C9.54177 22.503 9.63272 22.4361 9.65937 22.3363C9.69063 22.2174 9.61918 22.0951 9.50008 22.064Z" fill="url(#paint17_linear_216_1332)"/>
<path d="M7.52585 21.3002C7.41718 21.2453 7.28156 21.2883 7.22514 21.397C7.16991 21.5072 7.21323 21.6413 7.32339 21.6977C7.3545 21.7157 7.39023 21.723 7.42462 21.723C7.50486 21.723 7.58391 21.6785 7.62262 21.6011C7.67904 21.4924 7.63601 21.3568 7.52585 21.3002Z" fill="url(#paint18_linear_216_1332)"/>
<path d="M8.88348 1.36927C8.90715 1.36927 8.93097 1.3648 8.95494 1.35751C9.07106 1.31866 9.13522 1.19212 9.09636 1.07466C9.05766 0.958543 8.93112 0.89438 8.81366 0.933235C8.69591 0.971941 8.63338 1.09848 8.67209 1.21594C8.70335 1.30972 8.79118 1.36927 8.88348 1.36927Z" fill="url(#paint19_linear_216_1332)"/>
<path d="M6.91133 2.2587C6.94855 2.2587 6.98577 2.24842 7.02135 2.22907C7.12868 2.16803 7.1659 2.03107 7.10486 1.92374C7.04382 1.81656 6.90686 1.77934 6.79968 1.84201C6.79968 1.84037 6.79968 1.84037 6.79968 1.84037C6.69249 1.90141 6.65528 2.03837 6.71646 2.14555C6.758 2.21865 6.83243 2.2587 6.91133 2.2587Z" fill="url(#paint20_linear_216_1332)"/>
<path d="M1.64257 8.90411C1.66178 8.91007 1.68128 8.9132 1.70197 8.9132C1.79859 8.9132 1.8897 8.84754 1.91634 8.7478C1.9491 8.63034 1.87913 8.50678 1.75988 8.47388C1.64079 8.44113 1.51887 8.5111 1.48597 8.63034C1.45351 8.74929 1.52348 8.87121 1.64257 8.90411Z" fill="url(#paint21_linear_216_1332)"/>
<path d="M2.3796 6.86922C2.4125 6.88545 2.4466 6.89304 2.47935 6.89304C2.56137 6.89304 2.64012 6.84823 2.68032 6.77097C2.73555 6.66081 2.69074 6.52533 2.58058 6.47025C2.47056 6.41502 2.33658 6.45834 2.28135 6.56851C2.22493 6.67867 2.26929 6.81414 2.3796 6.86922Z" fill="url(#paint22_linear_216_1332)"/>
<path d="M3.50521 5.02023C3.54541 5.05134 3.59453 5.06787 3.64217 5.06787C3.70901 5.06787 3.77466 5.03794 3.81784 4.98152C3.89376 4.88476 3.87738 4.74482 3.78062 4.66875C3.68385 4.59283 3.54243 4.60935 3.46666 4.70597C3.39058 4.80273 3.40696 4.94282 3.50521 5.02023Z" fill="url(#paint23_linear_216_1332)"/>
<path d="M3.88594 18.6739C3.79215 18.7528 3.78173 18.8942 3.86227 18.988C3.90678 19.0386 3.9693 19.0654 4.03183 19.0654C4.08259 19.0654 4.13455 19.0476 4.17638 19.012C4.27017 18.9315 4.28044 18.7902 4.20169 18.6963C4.11966 18.604 3.97972 18.592 3.88594 18.6739Z" fill="url(#paint24_linear_216_1332)"/>
<path d="M5.13947 3.50472C5.19172 3.50472 5.24368 3.4867 5.28536 3.45098C5.3793 3.36925 5.38972 3.22931 5.30918 3.13552C5.22894 3.04159 5.08752 3.03131 4.99522 3.1117C4.90143 3.19209 4.88952 3.33203 4.96991 3.42567C5.01442 3.47792 5.07695 3.50472 5.13947 3.50472Z" fill="url(#paint25_linear_216_1332)"/>
<path d="M2.67717 16.876C2.56998 16.937 2.53276 17.074 2.5938 17.1812C2.63414 17.2526 2.70992 17.2943 2.78882 17.2943C2.82604 17.2943 2.86325 17.2854 2.89749 17.2647C3.00468 17.2051 3.04338 17.0682 2.98235 16.9608C2.92131 16.8536 2.78584 16.8164 2.67717 16.876Z" fill="url(#paint26_linear_216_1332)"/>
<path d="M1.33894 11.0462C1.45506 11.0462 1.55331 10.9568 1.56076 10.8379H1.56224C1.56984 10.7158 1.47754 10.6085 1.35398 10.6012C1.23042 10.5921 1.12472 10.6846 1.11564 10.8081C1.10834 10.9315 1.2005 11.0374 1.32406 11.0463C1.32867 11.0462 1.33314 11.0462 1.33894 11.0462Z" fill="url(#paint27_linear_216_1332)"/>
<path d="M1.62952 12.9578C1.613 12.8357 1.50135 12.7494 1.37928 12.7656C1.25571 12.782 1.17101 12.8937 1.18575 13.0157C1.20197 13.129 1.2974 13.2109 1.40756 13.2109C1.41783 13.2109 1.42676 13.2094 1.43718 13.2079C1.55941 13.1915 1.64575 13.0799 1.62952 12.9578Z" fill="url(#paint28_linear_216_1332)"/>
<path d="M5.7368 20.1594C5.63854 20.0835 5.49846 20.1014 5.42269 20.1981C5.34661 20.2949 5.36463 20.4365 5.46139 20.5124C5.50174 20.5435 5.55086 20.5584 5.59835 20.5584C5.66534 20.5584 5.73084 20.5301 5.77565 20.4736C5.84994 20.3756 5.83356 20.2354 5.7368 20.1594Z" fill="url(#paint29_linear_216_1332)"/>
<path d="M1.83018 14.8843C1.71406 14.923 1.65154 15.0494 1.6901 15.1671C1.72136 15.2593 1.80919 15.319 1.90149 15.319C1.92531 15.319 1.95062 15.3146 1.97443 15.307C2.09055 15.2669 2.15308 15.1403 2.11303 15.0227C2.07433 14.9066 1.94615 14.8441 1.83018 14.8843Z" fill="url(#paint30_linear_216_1332)"/>
<path d="M4.60207 5.13635C4.6707 5.18995 4.75094 5.21689 4.83148 5.21689C4.94164 5.21689 5.05165 5.16777 5.12475 5.07383C5.25129 4.91156 5.22449 4.67784 5.06208 4.5513C4.89981 4.42476 4.66623 4.45156 4.53955 4.61383C4.41316 4.77624 4.4413 5.00996 4.60207 5.13635Z" fill="url(#paint31_linear_216_1332)"/>
<path d="M10.0744 1.5186C10.1131 1.5186 10.1533 1.51265 10.192 1.49925C10.3869 1.43375 10.4927 1.22384 10.4272 1.02883C10.3617 0.833808 10.1518 0.728112 9.95679 0.792126C9.76162 0.857479 9.65607 1.06887 9.72158 1.26404C9.77219 1.41886 9.91808 1.5186 10.0744 1.5186Z" fill="url(#paint32_linear_216_1332)"/>
<path d="M7.7774 2.22011C7.84603 2.33935 7.97108 2.40768 8.10045 2.40768C8.16297 2.40768 8.22713 2.39145 8.28504 2.35855C8.46235 2.25598 8.52472 2.0297 8.42349 1.85091C8.32092 1.67242 8.09464 1.60989 7.916 1.71247C7.916 1.71098 7.916 1.71098 7.916 1.71098C7.73736 1.81355 7.67483 2.04146 7.7774 2.22011Z" fill="url(#paint33_linear_216_1332)"/>
<path d="M6.33071 3.65322C6.41556 3.65322 6.50191 3.6233 6.57187 3.56227C6.72834 3.42843 6.74605 3.19322 6.61207 3.03825C6.47824 2.88194 6.24287 2.86407 6.08805 2.99805C5.93174 3.13203 5.91388 3.36725 6.04786 3.52207C6.1208 3.60856 6.22501 3.65322 6.33071 3.65322Z" fill="url(#paint34_linear_216_1332)"/>
<path d="M5.50283 18.5995C5.36885 18.4432 5.13498 18.4254 4.97881 18.5607C4.82235 18.6933 4.80449 18.9285 4.93847 19.0849C5.0129 19.1712 5.11711 19.2144 5.22132 19.2144C5.30766 19.2144 5.39401 19.1848 5.46413 19.1251C5.62029 18.9911 5.63681 18.7559 5.50283 18.5995Z" fill="url(#paint35_linear_216_1332)"/>
<path d="M7.01708 20.0424C6.85482 19.9157 6.62109 19.9457 6.49604 20.1078C6.3695 20.2686 6.39779 20.5023 6.56006 20.6288C6.62705 20.6823 6.70893 20.7077 6.78783 20.7077C6.89948 20.7077 7.008 20.6586 7.08244 20.5648C7.20749 20.4027 7.17935 20.169 7.01708 20.0424Z" fill="url(#paint36_linear_216_1332)"/>
<path d="M4.16156 17.3938C4.34006 17.2925 4.40258 17.0664 4.30135 16.8877C4.20012 16.7091 3.97399 16.6451 3.79371 16.7463C3.61521 16.8476 3.55269 17.0753 3.65392 17.254C3.72225 17.3747 3.84879 17.443 3.97845 17.443C4.03949 17.4429 4.1035 17.4267 4.16156 17.3938Z" fill="url(#paint37_linear_216_1332)"/>
<path d="M8.78397 21.1679C8.60086 21.0741 8.37622 21.147 8.28392 21.3301C8.19013 21.5133 8.26159 21.7366 8.4447 21.8303C8.49814 21.8585 8.55635 21.8719 8.61456 21.8719C8.74988 21.8719 8.87939 21.7974 8.94489 21.6696C9.04017 21.4865 8.96723 21.2617 8.78397 21.1679Z" fill="url(#paint38_linear_216_1332)"/>
<path d="M2.53273 8.59006C2.47765 8.78805 2.59377 8.99349 2.79161 9.04857C2.82451 9.05751 2.85875 9.06212 2.8915 9.06212C3.05526 9.06212 3.20413 8.95345 3.25013 8.78805C3.30387 8.59006 3.18761 8.38462 2.98961 8.33118C2.79162 8.2758 2.58633 8.39221 2.53273 8.59006Z" fill="url(#paint39_linear_216_1332)"/>
<path d="M2.64614 13.357C2.85009 13.3286 2.993 13.1425 2.9662 12.9385C2.93926 12.7347 2.75184 12.5917 2.54937 12.6185C2.34528 12.6454 2.20251 12.8328 2.22931 13.0354C2.25312 13.223 2.4139 13.36 2.59716 13.36C2.61339 13.36 2.62961 13.3585 2.64614 13.357Z" fill="url(#paint40_linear_216_1332)"/>
<path d="M2.5031 11.1934C2.51203 11.1949 2.52097 11.1949 2.52841 11.1949C2.72358 11.1949 2.88569 11.0445 2.89909 10.8482C2.91398 10.6426 2.75931 10.4656 2.55372 10.4522C2.34828 10.4371 2.17113 10.592 2.15773 10.7974C2.14284 11.0028 2.29766 11.18 2.5031 11.1934Z" fill="url(#paint41_linear_216_1332)"/>
<path d="M2.97187 14.743C2.77671 14.8086 2.67265 15.0199 2.73949 15.2149C2.79159 15.3697 2.936 15.468 3.09231 15.468C3.13116 15.468 3.17121 15.4605 3.2114 15.447C3.40657 15.3816 3.51063 15.1702 3.44379 14.9751C3.37843 14.7802 3.16689 14.676 2.97187 14.743Z" fill="url(#paint42_linear_216_1332)"/>
<path d="M4.00242 6.83786C4.09457 6.65341 4.02177 6.43011 3.83866 6.33781C3.65407 6.24551 3.43076 6.31846 3.33846 6.50157C3.24468 6.68616 3.31911 6.90947 3.50222 7.00176C3.55581 7.02871 3.61387 7.04211 3.67044 7.04211C3.80591 7.04196 3.93707 6.96752 4.00242 6.83786Z" fill="url(#paint43_linear_216_1332)"/>
<path d="M18.6675 8.90336H14.8582C14.8191 8.90336 14.7839 8.91849 14.7569 8.94272C14.7291 8.91797 14.6928 8.90332 14.6556 8.90332C14.6153 8.90332 14.5761 8.9197 14.548 8.94783C14.5194 8.97637 14.5034 9.01557 14.5034 9.05549C14.5034 9.09541 14.5194 9.13461 14.548 9.16315C14.5765 9.19128 14.6157 9.20766 14.6556 9.20766C14.6729 9.20766 14.6899 9.20404 14.7061 9.19832V9.50375C14.6902 9.49816 14.6734 9.49453 14.6556 9.49453C14.5715 9.49453 14.5034 9.56227 14.5034 9.64634C14.5034 9.73041 14.5715 9.79851 14.6556 9.79851C14.6734 9.79851 14.6902 9.79485 14.7061 9.78929V10.0991C14.6902 10.0936 14.6734 10.0899 14.6556 10.0899C14.5715 10.0899 14.5034 10.158 14.5034 10.2421C14.5034 10.3261 14.5715 10.3943 14.6556 10.3943C14.6734 10.3943 14.6902 10.3906 14.7061 10.385V10.6949C14.6902 10.6894 14.6734 10.6857 14.6556 10.6857C14.5715 10.6857 14.5034 10.7537 14.5034 10.8379C14.5034 10.9219 14.5715 10.99 14.6556 10.99C14.6734 10.99 14.6902 10.9864 14.7061 10.9808V11.2903C14.6902 11.2847 14.6734 11.2811 14.6556 11.2811C14.5715 11.2811 14.5034 11.3491 14.5034 11.4332C14.5034 11.5173 14.5715 11.5854 14.6556 11.5854C14.6734 11.5854 14.6902 11.5818 14.7061 11.5761V11.886C14.6902 11.8804 14.6734 11.8768 14.6556 11.8768C14.5715 11.8768 14.5034 11.9449 14.5034 12.0289C14.5034 12.113 14.5715 12.1811 14.6556 12.1811C14.6734 12.1811 14.6902 12.1775 14.7061 12.1719V12.4814C14.6902 12.4758 14.6734 12.4721 14.6556 12.4721C14.5715 12.4721 14.5034 12.5403 14.5034 12.6243C14.5034 12.7084 14.5715 12.7765 14.6556 12.7765C14.6734 12.7765 14.6902 12.7728 14.7061 12.7673V13.0771C14.6902 13.0716 14.6734 13.0679 14.6556 13.0679C14.5715 13.0679 14.5034 13.136 14.5034 13.2201C14.5034 13.3042 14.5715 13.3722 14.6556 13.3722C14.6734 13.3722 14.6902 13.3686 14.7061 13.363V13.6729C14.6902 13.6673 14.6734 13.6637 14.6556 13.6637C14.5715 13.6637 14.5034 13.7318 14.5034 13.8158C14.5034 13.8999 14.5715 13.968 14.6556 13.968C14.6734 13.968 14.6902 13.9643 14.7061 13.9588V14.4662C14.6898 14.4604 14.6729 14.4569 14.6556 14.4569C14.6153 14.4569 14.5761 14.4732 14.548 14.5014C14.5198 14.5299 14.5034 14.5691 14.5034 14.6091C14.5034 14.649 14.5198 14.6882 14.548 14.7167C14.5765 14.7449 14.6157 14.7612 14.6556 14.7612C14.6929 14.7612 14.729 14.7466 14.7569 14.7219C14.7839 14.7462 14.8191 14.7613 14.8582 14.7613H16.3835C16.4676 14.7613 16.5357 14.6931 16.5357 14.6091V12.6961H18.2451C18.3292 12.6961 18.3973 12.6279 18.3973 12.5439V11.308C18.3973 11.224 18.3292 11.1558 18.2451 11.1558H16.5357V10.5372H18.6675C18.7515 10.5372 18.8197 10.4691 18.8197 10.3851V9.05537C18.8196 8.9715 18.7515 8.90336 18.6675 8.90336ZM18.5153 10.233H16.3835C16.2995 10.233 16.2314 10.3012 16.2314 10.3852V11.3082C16.2314 11.3922 16.2995 11.4603 16.3835 11.4603H18.093V12.3919H16.3835C16.2995 12.3919 16.2314 12.46 16.2314 12.5441V14.4569H15.0104V9.2077H18.5153V10.233Z" fill="url(#paint44_linear_216_1332)"/>
<path d="M13.615 14.5818C13.6081 14.589 13.604 14.5989 13.604 14.6088C13.604 14.6191 13.6078 14.6286 13.615 14.6358C13.6223 14.643 13.6318 14.6468 13.642 14.6468C13.6519 14.6468 13.6618 14.643 13.6686 14.6358C13.6759 14.6286 13.6801 14.6187 13.6801 14.6088C13.6801 14.5989 13.6759 14.589 13.6691 14.5822C13.6546 14.5677 13.6291 14.5677 13.615 14.5818Z" fill="url(#paint45_linear_216_1332)"/>
<path d="M13.642 10.7998C13.6207 10.7998 13.604 10.8165 13.604 10.8378C13.604 10.8587 13.6207 10.8759 13.642 10.8759C13.663 10.8759 13.6801 10.8587 13.6801 10.8378C13.6801 10.8165 13.663 10.7998 13.642 10.7998Z" fill="url(#paint46_linear_216_1332)"/>
<path d="M13.642 11.3955C13.6207 11.3955 13.604 11.4126 13.604 11.4335C13.604 11.4545 13.6207 11.4716 13.642 11.4716C13.663 11.4716 13.6801 11.4545 13.6801 11.4335C13.6801 11.4127 13.663 11.3955 13.642 11.3955Z" fill="url(#paint47_linear_216_1332)"/>
<path d="M13.642 10.2041C13.6207 10.2041 13.604 10.2212 13.604 10.2421C13.604 10.2631 13.6207 10.2802 13.642 10.2802C13.663 10.2802 13.6801 10.2631 13.6801 10.2421C13.6801 10.2212 13.663 10.2041 13.642 10.2041Z" fill="url(#paint48_linear_216_1332)"/>
<path d="M13.642 9.6084C13.6207 9.6084 13.604 9.6251 13.604 9.64607C13.604 9.6674 13.6207 9.68451 13.642 9.68451C13.663 9.68451 13.6801 9.66744 13.6801 9.64607C13.6801 9.6251 13.663 9.6084 13.642 9.6084Z" fill="url(#paint49_linear_216_1332)"/>
<path d="M13.642 13.1816C13.6207 13.1816 13.604 13.1987 13.604 13.2197C13.604 13.2406 13.6207 13.2577 13.642 13.2577C13.663 13.2577 13.6801 13.2406 13.6801 13.2197C13.6801 13.1988 13.663 13.1816 13.642 13.1816Z" fill="url(#paint50_linear_216_1332)"/>
<path d="M13.642 13.7783C13.6207 13.7783 13.604 13.7951 13.604 13.8164C13.604 13.8373 13.6207 13.8544 13.642 13.8544C13.663 13.8544 13.6801 13.8373 13.6801 13.8164C13.6801 13.7951 13.663 13.7783 13.642 13.7783Z" fill="url(#paint51_linear_216_1332)"/>
<path d="M13.642 12.5859C13.6207 12.5859 13.604 12.6031 13.604 12.624C13.604 12.6453 13.6207 12.662 13.642 12.662C13.663 12.662 13.6801 12.6453 13.6801 12.624C13.6801 12.6031 13.663 12.5859 13.642 12.5859Z" fill="url(#paint52_linear_216_1332)"/>
<path d="M13.642 11.9912C13.6207 11.9912 13.604 12.0083 13.604 12.0292C13.604 12.0502 13.6207 12.0673 13.642 12.0673C13.663 12.0673 13.6801 12.0502 13.6801 12.0292C13.6801 12.0083 13.663 11.9912 13.642 11.9912Z" fill="url(#paint53_linear_216_1332)"/>
<path d="M13.615 9.02814C13.6078 9.03535 13.604 9.04525 13.604 9.05515C13.604 9.06509 13.6078 9.07495 13.615 9.08215C13.6223 9.08936 13.6321 9.09318 13.642 9.09318C13.6519 9.09318 13.6618 9.08899 13.669 9.08215C13.6759 9.07495 13.6801 9.06509 13.6801 9.05515C13.6801 9.04525 13.6759 9.03535 13.669 9.02814C13.655 9.01406 13.6295 9.01406 13.615 9.02814Z" fill="url(#paint54_linear_216_1332)"/>
<path d="M13.9059 14.5687C13.8952 14.5794 13.8892 14.5942 13.8892 14.6091C13.8892 14.6242 13.8952 14.6387 13.9059 14.6494C13.9165 14.6601 13.9313 14.6661 13.9462 14.6661C13.9611 14.6661 13.9758 14.6601 13.9866 14.6494C13.9973 14.6387 14.0033 14.6239 14.0033 14.6091C14.0033 14.5942 13.9972 14.5794 13.9866 14.5687C13.9656 14.5474 13.9272 14.5474 13.9059 14.5687Z" fill="url(#paint55_linear_216_1332)"/>
<path d="M13.9462 13.2772C13.9777 13.2772 14.0033 13.2517 14.0033 13.2202C14.0033 13.1886 13.9777 13.1631 13.9462 13.1631C13.9147 13.1631 13.8892 13.1886 13.8892 13.2202C13.8892 13.2517 13.9147 13.2772 13.9462 13.2772Z" fill="url(#paint56_linear_216_1332)"/>
<path d="M13.9462 12.5674C13.9146 12.5674 13.8892 12.5933 13.8892 12.6245C13.8892 12.656 13.9146 12.6815 13.9462 12.6815C13.9778 12.6815 14.0033 12.656 14.0033 12.6245C14.0033 12.5933 13.9778 12.5674 13.9462 12.5674Z" fill="url(#paint57_linear_216_1332)"/>
<path d="M13.9462 13.7588C13.9146 13.7588 13.8892 13.7843 13.8892 13.8159C13.8892 13.847 13.9146 13.8729 13.9462 13.8729C13.9778 13.8729 14.0033 13.847 14.0033 13.8159C14.0033 13.7843 13.9778 13.7588 13.9462 13.7588Z" fill="url(#paint58_linear_216_1332)"/>
<path d="M13.9462 11.9717C13.9777 11.9717 14.0033 11.9972 14.0033 12.0287C14.0033 12.0603 13.9777 12.0858 13.9462 12.0858C13.9147 12.0858 13.8892 12.0603 13.8892 12.0287C13.8892 11.9972 13.9147 11.9717 13.9462 11.9717Z" fill="url(#paint59_linear_216_1332)"/>
<path d="M13.9462 10.2987C13.9777 10.2987 14.0033 10.2732 14.0033 10.2416C14.0033 10.2101 13.9777 10.1846 13.9462 10.1846C13.9147 10.1846 13.8892 10.2101 13.8892 10.2416C13.8892 10.2732 13.9147 10.2987 13.9462 10.2987Z" fill="url(#paint60_linear_216_1332)"/>
<path d="M13.9462 11.376C13.9777 11.376 14.0033 11.4015 14.0033 11.433C14.0033 11.4646 13.9777 11.4901 13.9462 11.4901C13.9147 11.4901 13.8892 11.4646 13.8892 11.433C13.8892 11.4015 13.9147 11.376 13.9462 11.376Z" fill="url(#paint61_linear_216_1332)"/>
<path d="M13.9462 9.58984C13.9146 9.58984 13.8892 9.61532 13.8892 9.64651C13.8892 9.6781 13.9146 9.70358 13.9462 9.70358C13.9778 9.70358 14.0033 9.6781 14.0033 9.64651C14.0033 9.61532 13.9778 9.58984 13.9462 9.58984Z" fill="url(#paint62_linear_216_1332)"/>
<path d="M13.9462 10.8944C13.9777 10.8944 14.0033 10.8689 14.0033 10.8373C14.0033 10.8058 13.9777 10.7803 13.9462 10.7803C13.9147 10.7803 13.8892 10.8058 13.8892 10.8373C13.8892 10.8689 13.9147 10.8944 13.9462 10.8944Z" fill="url(#paint63_linear_216_1332)"/>
<path d="M13.9059 9.01499C13.8952 9.02562 13.8892 9.04047 13.8892 9.05532C13.8892 9.07049 13.8952 9.08498 13.9059 9.09564C13.9165 9.10635 13.9313 9.11239 13.9462 9.11239C13.9611 9.11239 13.9758 9.10635 13.9866 9.09564C13.9972 9.08502 14.0033 9.07053 14.0033 9.05532C14.0033 9.04047 13.9972 9.02566 13.9866 9.01499C13.9652 8.9937 13.9272 8.9937 13.9059 9.01499Z" fill="url(#paint64_linear_216_1332)"/>
<path d="M14.1825 14.5422C14.165 14.5601 14.1548 14.5844 14.1548 14.6095C14.1548 14.6346 14.165 14.659 14.1825 14.6769C14.2004 14.6944 14.2247 14.7046 14.2499 14.7046C14.275 14.7046 14.2997 14.6943 14.3172 14.6769C14.3351 14.659 14.345 14.6346 14.345 14.6095C14.345 14.5844 14.335 14.5601 14.3172 14.5422C14.2822 14.5068 14.2183 14.5068 14.1825 14.5422Z" fill="url(#paint65_linear_216_1332)"/>
<path d="M14.2499 11.3379C14.3024 11.3379 14.345 11.3805 14.345 11.433C14.345 11.4855 14.3024 11.5281 14.2499 11.5281C14.1974 11.5281 14.1548 11.4855 14.1548 11.433C14.1548 11.3805 14.1974 11.3379 14.2499 11.3379Z" fill="url(#paint66_linear_216_1332)"/>
<path d="M14.2499 10.9324C14.3024 10.9324 14.345 10.8898 14.345 10.8373C14.345 10.7848 14.3024 10.7422 14.2499 10.7422C14.1974 10.7422 14.1548 10.7848 14.1548 10.8373C14.1548 10.8898 14.1974 10.9324 14.2499 10.9324Z" fill="url(#paint67_linear_216_1332)"/>
<path d="M14.2499 10.1475C14.3024 10.1475 14.345 10.19 14.345 10.2426C14.345 10.2951 14.3024 10.3377 14.2499 10.3377C14.1974 10.3377 14.1548 10.2951 14.1548 10.2426C14.1548 10.19 14.1974 10.1475 14.2499 10.1475Z" fill="url(#paint68_linear_216_1332)"/>
<path d="M14.2499 9.55078C14.1974 9.55078 14.1548 9.59336 14.1548 9.64588C14.1548 9.69877 14.1974 9.74139 14.2499 9.74139C14.3023 9.74139 14.345 9.69877 14.345 9.64588C14.345 9.59336 14.3023 9.55078 14.2499 9.55078Z" fill="url(#paint69_linear_216_1332)"/>
<path d="M14.2499 13.3152C14.3024 13.3152 14.345 13.2726 14.345 13.2201C14.345 13.1676 14.3024 13.125 14.2499 13.125C14.1974 13.125 14.1548 13.1676 14.1548 13.2201C14.1548 13.2726 14.1974 13.3152 14.2499 13.3152Z" fill="url(#paint70_linear_216_1332)"/>
<path d="M14.2499 13.7207C14.3024 13.7207 14.345 13.7633 14.345 13.8158C14.345 13.8683 14.3024 13.9109 14.2499 13.9109C14.1974 13.9109 14.1548 13.8683 14.1548 13.8158C14.1548 13.7633 14.1974 13.7207 14.2499 13.7207Z" fill="url(#paint71_linear_216_1332)"/>
<path d="M14.2499 11.9336C14.3024 11.9336 14.345 11.9762 14.345 12.0287C14.345 12.0812 14.3024 12.1238 14.2499 12.1238C14.1974 12.1238 14.1548 12.0812 14.1548 12.0287C14.1548 11.9762 14.1974 11.9336 14.2499 11.9336Z" fill="url(#paint72_linear_216_1332)"/>
<path d="M14.2499 12.5293C14.1974 12.5293 14.1548 12.572 14.1548 12.6244C14.1548 12.6773 14.1974 12.7195 14.2499 12.7195C14.3023 12.7195 14.345 12.6773 14.345 12.6244C14.345 12.572 14.3023 12.5293 14.2499 12.5293Z" fill="url(#paint73_linear_216_1332)"/>
<path d="M14.1825 8.98842C14.165 9.00633 14.1548 9.03067 14.1548 9.05579C14.1548 9.0809 14.165 9.10525 14.1825 9.12316C14.2004 9.14062 14.2247 9.15089 14.2499 9.15089C14.275 9.15089 14.2997 9.14058 14.3172 9.12316C14.3351 9.10525 14.345 9.08094 14.345 9.05579C14.345 9.03071 14.335 9.00633 14.3172 8.98842C14.2818 8.95308 14.2183 8.95308 14.1825 8.98842Z" fill="url(#paint74_linear_216_1332)"/>
<defs>
<linearGradient id="paint0_linear_216_1332" x1="2.56784" y1="22.1527" x2="24.1538" y2="5.10722" gradientUnits="userSpaceOnUse">
<stop stop-color="#550885" stop-opacity="0.63"/>
<stop offset="1" stop-color="#43C450"/>
</linearGradient>
<linearGradient id="paint1_linear_216_1332" x1="2.41882" y1="21.9643" x2="24.0048" y2="4.91879" gradientUnits="userSpaceOnUse">
<stop stop-color="#3E0895"/>
<stop offset="1" stop-color="#7EC443"/>
</linearGradient>
<linearGradient id="paint2_linear_216_1332" x1="6.08344" y1="26.6052" x2="27.6687" y2="9.56018" gradientUnits="userSpaceOnUse">
<stop stop-color="#1295D4"/>
<stop offset="1" stop-color="#7EC443"/>
</linearGradient>
<linearGradient id="paint3_linear_216_1332" x1="-0.276999" y1="18.5516" x2="21.3119" y2="1.50369" gradientUnits="userSpaceOnUse">
<stop stop-color="#1295D4"/>
<stop offset="1" stop-color="#7EC443"/>
</linearGradient>
<linearGradient id="paint4_linear_216_1332" x1="-6.00724" y1="11.2959" x2="15.5804" y2="-5.75088" gradientUnits="userSpaceOnUse">
<stop stop-color="#1295D4"/>
<stop offset="1" stop-color="#7EC443"/>
</linearGradient>
<linearGradient id="paint5_linear_216_1332" x1="1.06259" y1="20.2472" x2="22.6493" y2="3.20104" gradientUnits="userSpaceOnUse">
<stop stop-color="#1295D4"/>
<stop offset="1" stop-color="#7EC443"/>
</linearGradient>
<linearGradient id="paint6_linear_216_1332" x1="-1.57773" y1="16.9038" x2="20.009" y2="-0.142225" gradientUnits="userSpaceOnUse">
<stop stop-color="#1295D4"/>
<stop offset="1" stop-color="#7EC443"/>
</linearGradient>
<linearGradient id="paint7_linear_216_1332" x1="-5.45344" y1="11.9946" x2="16.1316" y2="-5.05005" gradientUnits="userSpaceOnUse">
<stop stop-color="#1295D4"/>
<stop offset="1" stop-color="#7EC443"/>
</linearGradient>
<linearGradient id="paint8_linear_216_1332" x1="-5.8958" y1="11.4353" x2="15.6905" y2="-5.61042" gradientUnits="userSpaceOnUse">
<stop stop-color="#1295D4"/>
<stop offset="1" stop-color="#7EC443"/>
</linearGradient>
<linearGradient id="paint9_linear_216_1332" x1="-6.08171" y1="11.2014" x2="15.5058" y2="-5.84526" gradientUnits="userSpaceOnUse">
<stop stop-color="#1295D4"/>
<stop offset="1" stop-color="#7EC443"/>
</linearGradient>
<linearGradient id="paint10_linear_216_1332" x1="-5.68145" y1="11.7087" x2="15.9062" y2="-5.33819" gradientUnits="userSpaceOnUse">
<stop stop-color="#1295D4"/>
<stop offset="1" stop-color="#7EC443"/>
</linearGradient>
<linearGradient id="paint11_linear_216_1332" x1="-3.87174" y1="13.9979" x2="17.7131" y2="-3.04666" gradientUnits="userSpaceOnUse">
<stop stop-color="#1295D4"/>
<stop offset="1" stop-color="#7EC443"/>
</linearGradient>
<linearGradient id="paint12_linear_216_1332" x1="-2.79248" y1="15.3639" x2="18.7909" y2="-1.67959" gradientUnits="userSpaceOnUse">
<stop stop-color="#1295D4"/>
<stop offset="1" stop-color="#7EC443"/>
</linearGradient>
<linearGradient id="paint13_linear_216_1332" x1="-4.77082" y1="12.8601" x2="16.8146" y2="-4.1849" gradientUnits="userSpaceOnUse">
<stop stop-color="#1295D4"/>
<stop offset="1" stop-color="#7EC443"/>
</linearGradient>
<linearGradient id="paint14_linear_216_1332" x1="3.65796" y1="23.5337" x2="25.2442" y2="6.48798" gradientUnits="userSpaceOnUse">
<stop stop-color="#1295D4"/>
<stop offset="1" stop-color="#7EC443"/>
</linearGradient>
<linearGradient id="paint15_linear_216_1332" x1="4.81282" y1="24.9965" x2="26.3984" y2="7.95131" gradientUnits="userSpaceOnUse">
<stop stop-color="#1295D4"/>
<stop offset="1" stop-color="#7EC443"/>
</linearGradient>
<linearGradient id="paint16_linear_216_1332" x1="2.39128" y1="21.9292" x2="23.9761" y2="4.88454" gradientUnits="userSpaceOnUse">
<stop stop-color="#1295D4"/>
<stop offset="1" stop-color="#7EC443"/>
</linearGradient>
<linearGradient id="paint17_linear_216_1332" x1="5.27014" y1="25.5752" x2="26.8559" y2="8.52989" gradientUnits="userSpaceOnUse">
<stop stop-color="#1295D4"/>
<stop offset="1" stop-color="#7EC443"/>
</linearGradient>
<linearGradient id="paint18_linear_216_1332" x1="4.11481" y1="24.1128" x2="25.7019" y2="7.06632" gradientUnits="userSpaceOnUse">
<stop stop-color="#1295D4"/>
<stop offset="1" stop-color="#7EC443"/>
</linearGradient>
<linearGradient id="paint19_linear_216_1332" x1="-5.22326" y1="12.285" x2="16.3615" y2="-4.7596" gradientUnits="userSpaceOnUse">
<stop stop-color="#1295D4"/>
<stop offset="1" stop-color="#7EC443"/>
</linearGradient>
<linearGradient id="paint20_linear_216_1332" x1="-5.54965" y1="11.8741" x2="16.0368" y2="-5.17173" gradientUnits="userSpaceOnUse">
<stop stop-color="#1295D4"/>
<stop offset="1" stop-color="#7EC443"/>
</linearGradient>
<linearGradient id="paint21_linear_216_1332" x1="-4.31278" y1="13.4383" x2="17.2701" y2="-3.60469" gradientUnits="userSpaceOnUse">
<stop stop-color="#1295D4"/>
<stop offset="1" stop-color="#7EC443"/>
</linearGradient>
<linearGradient id="paint22_linear_216_1332" x1="-4.99655" y1="12.5737" x2="16.5889" y2="-4.4712" gradientUnits="userSpaceOnUse">
<stop stop-color="#1295D4"/>
<stop offset="1" stop-color="#7EC443"/>
</linearGradient>
<linearGradient id="paint23_linear_216_1332" x1="-5.43882" y1="12.0151" x2="16.1487" y2="-5.03154" gradientUnits="userSpaceOnUse">
<stop stop-color="#1295D4"/>
<stop offset="1" stop-color="#7EC443"/>
</linearGradient>
<linearGradient id="paint24_linear_216_1332" x1="1.52006" y1="20.8256" x2="23.1034" y2="3.78218" gradientUnits="userSpaceOnUse">
<stop stop-color="#1295D4"/>
<stop offset="1" stop-color="#7EC443"/>
</linearGradient>
<linearGradient id="paint25_linear_216_1332" x1="-5.62368" y1="11.7811" x2="15.9632" y2="-5.26512" gradientUnits="userSpaceOnUse">
<stop stop-color="#1295D4"/>
<stop offset="1" stop-color="#7EC443"/>
</linearGradient>
<linearGradient id="paint26_linear_216_1332" x1="0.179956" y1="19.1294" x2="21.7652" y2="2.08441" gradientUnits="userSpaceOnUse">
<stop stop-color="#1295D4"/>
<stop offset="1" stop-color="#7EC443"/>
</linearGradient>
<linearGradient id="paint27_linear_216_1332" x1="-3.41461" y1="14.5765" x2="18.1701" y2="-2.46795" gradientUnits="userSpaceOnUse">
<stop stop-color="#1295D4"/>
<stop offset="1" stop-color="#7EC443"/>
</linearGradient>
<linearGradient id="paint28_linear_216_1332" x1="-2.33555" y1="15.9429" x2="19.2479" y2="-1.10064" gradientUnits="userSpaceOnUse">
<stop stop-color="#1295D4"/>
<stop offset="1" stop-color="#7EC443"/>
</linearGradient>
<linearGradient id="paint29_linear_216_1332" x1="2.84832" y1="22.508" x2="24.4348" y2="5.46211" gradientUnits="userSpaceOnUse">
<stop stop-color="#1295D4"/>
<stop offset="1" stop-color="#7EC443"/>
</linearGradient>
<linearGradient id="paint30_linear_216_1332" x1="-1.12065" y1="17.4824" x2="20.4646" y2="0.437419" gradientUnits="userSpaceOnUse">
<stop stop-color="#1295D4"/>
<stop offset="1" stop-color="#7EC443"/>
</linearGradient>
<linearGradient id="paint31_linear_216_1332" x1="-4.98151" y1="12.5934" x2="16.6045" y2="-4.45212" gradientUnits="userSpaceOnUse">
<stop stop-color="#1295D4"/>
<stop offset="1" stop-color="#7EC443"/>
</linearGradient>
<linearGradient id="paint32_linear_216_1332" x1="-4.76592" y1="12.8644" x2="16.8187" y2="-4.18002" gradientUnits="userSpaceOnUse">
<stop stop-color="#1295D4"/>
<stop offset="1" stop-color="#7EC443"/>
</linearGradient>
<linearGradient id="paint33_linear_216_1332" x1="-5.09239" y1="12.4524" x2="16.4933" y2="-4.59284" gradientUnits="userSpaceOnUse">
<stop stop-color="#1295D4"/>
<stop offset="1" stop-color="#7EC443"/>
</linearGradient>
<linearGradient id="paint34_linear_216_1332" x1="-5.16749" y1="12.3593" x2="16.4206" y2="-4.68782" gradientUnits="userSpaceOnUse">
<stop stop-color="#1295D4"/>
<stop offset="1" stop-color="#7EC443"/>
</linearGradient>
<linearGradient id="paint35_linear_216_1332" x1="1.97699" y1="21.4049" x2="23.5633" y2="4.35904" gradientUnits="userSpaceOnUse">
<stop stop-color="#1295D4"/>
<stop offset="1" stop-color="#7EC443"/>
</linearGradient>
<linearGradient id="paint36_linear_216_1332" x1="3.30525" y1="23.0871" x2="24.8918" y2="6.04109" gradientUnits="userSpaceOnUse">
<stop stop-color="#1295D4"/>
<stop offset="1" stop-color="#7EC443"/>
</linearGradient>
<linearGradient id="paint37_linear_216_1332" x1="0.637022" y1="19.708" x2="22.223" y2="2.66252" gradientUnits="userSpaceOnUse">
<stop stop-color="#1295D4"/>
<stop offset="1" stop-color="#7EC443"/>
</linearGradient>
<linearGradient id="paint38_linear_216_1332" x1="4.57229" y1="24.6913" x2="26.1578" y2="7.64614" gradientUnits="userSpaceOnUse">
<stop stop-color="#1295D4"/>
<stop offset="1" stop-color="#7EC443"/>
</linearGradient>
<linearGradient id="paint39_linear_216_1332" x1="-3.85655" y1="14.0176" x2="17.7289" y2="-3.02742" gradientUnits="userSpaceOnUse">
<stop stop-color="#1295D4"/>
<stop offset="1" stop-color="#7EC443"/>
</linearGradient>
<linearGradient id="paint40_linear_216_1332" x1="-1.87881" y1="16.5223" x2="19.707" y2="-0.523059" gradientUnits="userSpaceOnUse">
<stop stop-color="#1295D4"/>
<stop offset="1" stop-color="#7EC443"/>
</linearGradient>
<linearGradient id="paint41_linear_216_1332" x1="-2.95832" y1="15.1552" x2="18.6281" y2="-1.89065" gradientUnits="userSpaceOnUse">
<stop stop-color="#1295D4"/>
<stop offset="1" stop-color="#7EC443"/>
</linearGradient>
<linearGradient id="paint42_linear_216_1332" x1="-0.664425" y1="18.061" x2="20.9225" y2="1.01475" gradientUnits="userSpaceOnUse">
<stop stop-color="#1295D4"/>
<stop offset="1" stop-color="#7EC443"/>
</linearGradient>
<linearGradient id="paint43_linear_216_1332" x1="-4.53928" y1="13.1526" x2="17.0461" y2="-3.89246" gradientUnits="userSpaceOnUse">
<stop stop-color="#1295D4"/>
<stop offset="1" stop-color="#7EC443"/>
</linearGradient>
<linearGradient id="paint44_linear_216_1332" x1="12.8745" y1="13.9211" x2="18.3908" y2="9.56511" gradientUnits="userSpaceOnUse">
<stop stop-color="#550885"/>
<stop offset="1" stop-color="#7EC443"/>
</linearGradient>
<linearGradient id="paint45_linear_216_1332" x1="13.5038" y1="14.7179" x2="19.0208" y2="10.3613" gradientUnits="userSpaceOnUse">
<stop stop-color="#1295D4"/>
<stop offset="1" stop-color="#7EC443"/>
</linearGradient>
<linearGradient id="paint46_linear_216_1332" x1="11.6694" y1="12.3954" x2="17.1859" y2="8.03912" gradientUnits="userSpaceOnUse">
<stop stop-color="#1295D4"/>
<stop offset="1" stop-color="#7EC443"/>
</linearGradient>
<linearGradient id="paint47_linear_216_1332" x1="11.959" y1="12.7626" x2="17.476" y2="8.40605" gradientUnits="userSpaceOnUse">
<stop stop-color="#1295D4"/>
<stop offset="1" stop-color="#7EC443"/>
</linearGradient>
<linearGradient id="paint48_linear_216_1332" x1="11.3797" y1="12.0286" x2="16.8963" y2="7.67237" gradientUnits="userSpaceOnUse">
<stop stop-color="#1295D4"/>
<stop offset="1" stop-color="#7EC443"/>
</linearGradient>
<linearGradient id="paint49_linear_216_1332" x1="11.0899" y1="11.6617" x2="16.607" y2="7.3052" gradientUnits="userSpaceOnUse">
<stop stop-color="#1295D4"/>
<stop offset="1" stop-color="#7EC443"/>
</linearGradient>
<linearGradient id="paint50_linear_216_1332" x1="12.8283" y1="13.8622" x2="18.3443" y2="9.50651" gradientUnits="userSpaceOnUse">
<stop stop-color="#1295D4"/>
<stop offset="1" stop-color="#7EC443"/>
</linearGradient>
<linearGradient id="paint51_linear_216_1332" x1="13.118" y1="14.2301" x2="18.6346" y2="9.87387" gradientUnits="userSpaceOnUse">
<stop stop-color="#1295D4"/>
<stop offset="1" stop-color="#7EC443"/>
</linearGradient>
<linearGradient id="paint52_linear_216_1332" x1="12.5384" y1="13.4955" x2="18.0553" y2="9.13906" gradientUnits="userSpaceOnUse">
<stop stop-color="#1295D4"/>
<stop offset="1" stop-color="#7EC443"/>
</linearGradient>
<linearGradient id="paint53_linear_216_1332" x1="12.2488" y1="13.1294" x2="17.7657" y2="8.77293" gradientUnits="userSpaceOnUse">
<stop stop-color="#1295D4"/>
<stop offset="1" stop-color="#7EC443"/>
</linearGradient>
<linearGradient id="paint54_linear_216_1332" x1="10.8019" y1="11.2979" x2="16.3199" y2="6.94068" gradientUnits="userSpaceOnUse">
<stop stop-color="#1295D4"/>
<stop offset="1" stop-color="#7EC443"/>
</linearGradient>
<linearGradient id="paint55_linear_216_1332" x1="13.6208" y1="14.866" x2="19.1371" y2="10.5101" gradientUnits="userSpaceOnUse">
<stop stop-color="#1295D4"/>
<stop offset="1" stop-color="#7EC443"/>
</linearGradient>
<linearGradient id="paint56_linear_216_1332" x1="12.9452" y1="14.0106" x2="18.4617" y2="9.65451" gradientUnits="userSpaceOnUse">
<stop stop-color="#1295D4"/>
<stop offset="1" stop-color="#7EC443"/>
</linearGradient>
<linearGradient id="paint57_linear_216_1332" x1="12.6555" y1="13.6438" x2="18.1719" y2="9.28767" gradientUnits="userSpaceOnUse">
<stop stop-color="#1295D4"/>
<stop offset="1" stop-color="#7EC443"/>
</linearGradient>
<linearGradient id="paint58_linear_216_1332" x1="13.235" y1="14.3775" x2="18.7515" y2="10.0213" gradientUnits="userSpaceOnUse">
<stop stop-color="#1295D4"/>
<stop offset="1" stop-color="#7EC443"/>
</linearGradient>
<linearGradient id="paint59_linear_216_1332" x1="12.366" y1="13.2766" x2="17.8821" y2="8.92078" gradientUnits="userSpaceOnUse">
<stop stop-color="#1295D4"/>
<stop offset="1" stop-color="#7EC443"/>
</linearGradient>
<linearGradient id="paint60_linear_216_1332" x1="11.4967" y1="12.1759" x2="17.0132" y2="7.81978" gradientUnits="userSpaceOnUse">
<stop stop-color="#1295D4"/>
<stop offset="1" stop-color="#7EC443"/>
</linearGradient>
<linearGradient id="paint61_linear_216_1332" x1="12.0761" y1="12.9098" x2="17.5926" y2="8.55367" gradientUnits="userSpaceOnUse">
<stop stop-color="#1295D4"/>
<stop offset="1" stop-color="#7EC443"/>
</linearGradient>
<linearGradient id="paint62_linear_216_1332" x1="11.2071" y1="11.8096" x2="16.7234" y2="7.45363" gradientUnits="userSpaceOnUse">
<stop stop-color="#1295D4"/>
<stop offset="1" stop-color="#7EC443"/>
</linearGradient>
<linearGradient id="paint63_linear_216_1332" x1="11.7866" y1="12.5427" x2="17.3029" y2="8.18676" gradientUnits="userSpaceOnUse">
<stop stop-color="#1295D4"/>
<stop offset="1" stop-color="#7EC443"/>
</linearGradient>
<linearGradient id="paint64_linear_216_1332" x1="10.92" y1="11.445" x2="16.4357" y2="7.08946" gradientUnits="userSpaceOnUse">
<stop stop-color="#1295D4"/>
<stop offset="1" stop-color="#7EC443"/>
</linearGradient>
<linearGradient id="paint65_linear_216_1332" x1="13.7373" y1="15.0143" x2="19.2535" y2="10.6584" gradientUnits="userSpaceOnUse">
<stop stop-color="#1295D4"/>
<stop offset="1" stop-color="#7EC443"/>
</linearGradient>
<linearGradient id="paint66_linear_216_1332" x1="12.1925" y1="13.0576" x2="17.709" y2="8.7015" gradientUnits="userSpaceOnUse">
<stop stop-color="#1295D4"/>
<stop offset="1" stop-color="#7EC443"/>
</linearGradient>
<linearGradient id="paint67_linear_216_1332" x1="11.9029" y1="12.6906" x2="17.4195" y2="8.33441" gradientUnits="userSpaceOnUse">
<stop stop-color="#1295D4"/>
<stop offset="1" stop-color="#7EC443"/>
</linearGradient>
<linearGradient id="paint68_linear_216_1332" x1="11.6133" y1="12.3246" x2="17.1295" y2="7.96869" gradientUnits="userSpaceOnUse">
<stop stop-color="#1295D4"/>
<stop offset="1" stop-color="#7EC443"/>
</linearGradient>
<linearGradient id="paint69_linear_216_1332" x1="11.3235" y1="11.9569" x2="16.8399" y2="7.60083" gradientUnits="userSpaceOnUse">
<stop stop-color="#1295D4"/>
<stop offset="1" stop-color="#7EC443"/>
</linearGradient>
<linearGradient id="paint70_linear_216_1332" x1="13.0616" y1="14.1584" x2="18.5781" y2="9.80233" gradientUnits="userSpaceOnUse">
<stop stop-color="#1295D4"/>
<stop offset="1" stop-color="#7EC443"/>
</linearGradient>
<linearGradient id="paint71_linear_216_1332" x1="13.3514" y1="14.5253" x2="18.8679" y2="10.1691" gradientUnits="userSpaceOnUse">
<stop stop-color="#1295D4"/>
<stop offset="1" stop-color="#7EC443"/>
</linearGradient>
<linearGradient id="paint72_linear_216_1332" x1="12.4823" y1="13.4245" x2="17.9987" y2="9.06839" gradientUnits="userSpaceOnUse">
<stop stop-color="#1295D4"/>
<stop offset="1" stop-color="#7EC443"/>
</linearGradient>
<linearGradient id="paint73_linear_216_1332" x1="12.7719" y1="13.7916" x2="18.2883" y2="9.43549" gradientUnits="userSpaceOnUse">
<stop stop-color="#1295D4"/>
<stop offset="1" stop-color="#7EC443"/>
</linearGradient>
<linearGradient id="paint74_linear_216_1332" x1="11.036" y1="11.5937" x2="16.5525" y2="7.23754" gradientUnits="userSpaceOnUse">
<stop stop-color="#1295D4"/>
<stop offset="1" stop-color="#7EC443"/>
</linearGradient>
</defs>
</svg>
