<svg width="104" height="32" viewBox="0 0 104 32" fill="none" xmlns="http://www.w3.org/2000/svg">
<path d="M20.3603 9.83465C19.6559 9.47707 18.8289 9.2959 17.9021 9.2959C16.952 9.2959 16.1124 9.48362 15.4063 9.85356C14.7087 10.2196 14.1217 10.7139 13.6621 11.3227C13.2115 11.9196 12.8748 12.6036 12.6613 13.3557C12.0027 15.6772 12.4089 18.2564 13.6956 19.926C14.1541 20.5233 14.7402 21.0111 15.4366 21.376C16.1415 21.7464 16.9813 21.9342 17.9324 21.9342C18.8837 21.9342 19.7294 21.7409 20.4468 21.3593C21.1565 20.9812 21.7438 20.4802 22.1921 19.8708C22.6304 19.2756 22.9608 18.5878 23.1739 17.8259C23.836 15.4553 23.4208 12.8732 22.1156 11.2476C21.6468 10.6641 21.0564 10.189 20.3603 9.83465ZM22.0271 17.5051C21.853 18.1277 21.586 18.6858 21.2331 19.1645C20.891 19.6298 20.4382 20.0146 19.8874 20.308C19.3444 20.5967 18.6869 20.7433 17.9327 20.7433C17.1766 20.7433 16.5232 20.6014 15.9903 20.3214C15.4472 20.0369 14.9932 19.66 14.6399 19.2C13.575 17.818 13.248 15.6515 13.8071 13.6808C13.9801 13.0711 14.251 12.5192 14.6128 12.0403C14.9656 11.5727 15.4188 11.1919 15.9596 10.9083C16.4932 10.6286 17.1467 10.4867 17.9022 10.4867C18.6398 10.4867 19.2856 10.6245 19.8208 10.8961C20.3651 11.1731 20.8249 11.5425 21.1874 11.9931C22.2596 13.3289 22.5892 15.4929 22.0271 17.5051Z" fill="url(#paint0_linear_217_1412)"/>
<path d="M28.7253 11.3879C27.6018 8.52263 25.5343 6.3158 22.7462 5.00576C21.3251 4.33882 19.7262 4.0006 17.9938 4.0006C17.7728 4.0006 17.5538 4.0067 17.3366 4.01771C17.2918 4.00715 17.2465 4 17.2004 4C17.1244 4 17.0494 4.01563 16.9796 4.04392C16.5154 4.08054 16.0599 4.14083 15.6153 4.22851C15.5625 4.22851 15.51 4.23953 15.4616 4.26052C15.1737 4.32126 14.891 4.3945 14.6123 4.47683C14.6035 4.46268 14.5937 4.44943 14.5819 4.43767C14.4984 4.35431 14.3495 4.3558 14.2663 4.43767C14.2248 4.47936 14.201 4.53742 14.201 4.59547C14.201 4.5992 14.2018 4.60292 14.202 4.60664C14.1407 4.62748 14.0795 4.64862 14.0186 4.6705C13.8676 4.55677 13.6659 4.51642 13.473 4.58059C13.4393 4.59175 13.4082 4.60694 13.3782 4.62316C13.3799 4.61378 13.3837 4.605 13.3837 4.59533C13.3837 4.55662 13.3673 4.51791 13.3405 4.49127C13.2839 4.43455 13.1857 4.43455 13.1289 4.49127C13.1022 4.51806 13.0859 4.55677 13.0859 4.59533C13.0859 4.63567 13.1022 4.67423 13.1289 4.70117C13.1553 4.72722 13.1904 4.74047 13.226 4.74241C13.1441 4.83084 13.0911 4.9413 13.0737 5.06099C12.7306 5.22147 12.3973 5.39639 12.0744 5.58515C11.8886 5.42571 11.6167 5.38909 11.3915 5.51682C11.1453 5.65795 11.0382 5.94705 11.1179 6.20727C10.8399 6.40735 10.5714 6.61785 10.3135 6.83952C10.094 6.64167 9.75826 6.63096 9.5293 6.82836C9.28292 7.03975 9.25315 7.40671 9.45591 7.65651C9.22993 7.89455 9.01333 8.14048 8.80863 8.39639C8.80074 8.38969 8.79464 8.3815 8.78645 8.3751C8.52757 8.17264 8.15376 8.21715 7.94996 8.47633C7.95144 8.47633 7.95144 8.47633 7.95144 8.47633C7.74749 8.73387 7.79215 9.10902 8.05119 9.31133C8.07292 9.3286 8.09615 9.34275 8.11937 9.35659C7.94281 9.63036 7.77578 9.91083 7.62274 10.1999C7.59282 10.1767 7.56081 10.1554 7.52583 10.1377C7.23241 9.98884 6.87364 10.1079 6.72477 10.4012C6.57739 10.6946 6.69514 11.0534 6.98826 11.2008C7.03531 11.2241 7.08429 11.2398 7.13341 11.2503C7.00732 11.5601 6.89611 11.8738 6.79831 12.1905C6.74873 12.1584 6.69544 12.1312 6.6356 12.1145C6.31836 12.0267 5.99099 12.2143 5.90465 12.5315C5.81682 12.8486 6.0029 13.1761 6.31999 13.2625C6.37359 13.2773 6.42569 13.2848 6.47913 13.2848C6.49238 13.2848 6.50533 13.2824 6.51858 13.2817C6.45085 13.6133 6.39949 13.9473 6.36168 14.2825C6.29826 14.2536 6.22963 14.2337 6.15609 14.2288C5.82873 14.2064 5.54439 14.455 5.52191 14.7824C5.49958 15.1101 5.7467 15.3944 6.07585 15.4167C6.08925 15.4182 6.10265 15.4182 6.11604 15.4182C6.17723 15.4182 6.23544 15.4066 6.29126 15.3893C6.28635 15.7291 6.29707 16.0691 6.32238 16.4088C6.25375 16.3926 6.1814 16.3868 6.10711 16.3964C5.78124 16.4396 5.55198 16.7388 5.59515 17.0647C5.63386 17.3641 5.88991 17.5828 6.18467 17.5828C6.20998 17.5828 6.23692 17.5813 6.26357 17.5768C6.33428 17.5674 6.39919 17.5441 6.45904 17.513C6.51635 17.8445 6.5884 18.1742 6.67505 18.5022C6.61237 18.5025 6.5491 18.5099 6.48673 18.5311C6.17559 18.6368 6.00886 18.9745 6.11456 19.2873C6.19941 19.5344 6.43164 19.6908 6.67877 19.6908C6.74278 19.6908 6.80679 19.6803 6.87081 19.6595C6.9247 19.641 6.97248 19.6133 7.01685 19.5822C7.05302 19.6802 7.08741 19.7784 7.12627 19.8759C7.21112 20.0882 7.30297 20.2955 7.39795 20.5004C7.35478 20.5131 7.31205 20.5295 7.27097 20.5527C6.98514 20.715 6.88391 21.0782 7.04617 21.364C7.15634 21.5576 7.35731 21.6661 7.56573 21.6661C7.66398 21.6661 7.76521 21.6408 7.85751 21.5887C7.88684 21.572 7.91304 21.5521 7.93849 21.5314C8.10493 21.8148 8.28059 22.0914 8.46847 22.3574C8.45254 22.3687 8.43542 22.3781 8.42038 22.3912C8.17028 22.6055 8.14185 22.9821 8.35637 23.2307C8.47382 23.3678 8.64056 23.4378 8.80878 23.4378C8.94574 23.4378 9.08419 23.3901 9.19584 23.2934C9.19777 23.2917 9.19896 23.2898 9.2009 23.288C9.41795 23.5371 9.64438 23.7775 9.88212 24.007C9.71092 24.2638 9.76169 24.6126 10.0088 24.8057C10.1173 24.8906 10.247 24.9309 10.3749 24.9309C10.5184 24.9309 10.6588 24.8779 10.7694 24.7791C11.0423 24.9933 11.3251 25.1974 11.6191 25.389C11.5713 25.6421 11.6895 25.9062 11.9294 26.0297C12.0172 26.0744 12.1093 26.0951 12.2016 26.0951C12.2415 26.0951 12.2807 26.0899 12.3195 26.082C12.2997 26.1132 12.2829 26.1469 12.273 26.1846C12.2208 26.384 12.3401 26.588 12.5381 26.6399C12.5707 26.6474 12.6021 26.6518 12.6334 26.6518C12.7986 26.6518 12.949 26.5417 12.9936 26.3751C13.0131 26.3004 13.0085 26.225 12.9848 26.1573C13.0301 26.179 13.0737 26.2027 13.1191 26.224C13.2943 26.3063 13.4722 26.3834 13.6527 26.4556C13.7115 26.6449 13.862 26.8009 14.0683 26.8558C14.1189 26.8692 14.1695 26.8752 14.2202 26.8752C14.3439 26.8752 14.4618 26.835 14.5602 26.7662C14.8109 26.8402 15.0647 26.9078 15.3239 26.9639C15.3763 26.9904 15.4334 27.0062 15.4916 27.0062C15.5016 27.0062 15.5114 27.0039 15.5214 27.003C15.9551 27.0888 16.4006 27.1491 16.8566 27.1855C16.927 27.2137 17.0025 27.2295 17.0784 27.2295C17.1238 27.2295 17.1685 27.2226 17.2123 27.2123C17.4299 27.2234 17.6496 27.2293 17.8718 27.2293C19.5613 27.2293 21.1419 26.9027 22.5702 26.2585C28.3773 23.6377 31.0235 17.2447 28.7253 11.3879ZM22.0801 25.1728C20.8068 25.7472 19.391 26.0384 17.8715 26.0384C16.314 26.0384 14.8854 25.7381 13.6253 25.146C11.1206 23.9697 9.25539 21.9945 8.23177 19.4338C6.1488 14.2297 8.58682 8.34786 13.7817 6.04352C15.0565 5.47827 16.4736 5.19154 17.9938 5.19154C19.5499 5.19154 20.9786 5.49181 22.2399 6.08371C24.7469 7.26171 26.6062 9.24613 27.6165 11.8229C29.679 17.0786 27.2987 22.8177 22.0801 25.1728Z" fill="url(#paint1_linear_217_1412)"/>
<path d="M13.0066 26.5287C12.9783 26.5572 12.9634 26.5957 12.9634 26.6344C12.9634 26.6733 12.9783 26.7118 13.0066 26.7401C13.0348 26.7671 13.0735 26.7833 13.1122 26.7833C13.151 26.7833 13.1897 26.7671 13.2179 26.7401C13.2449 26.712 13.2611 26.6733 13.2611 26.6344C13.2611 26.5957 13.2449 26.557 13.2165 26.5287C13.1614 26.4735 13.0616 26.4735 13.0066 26.5287Z" fill="url(#paint2_linear_217_1412)"/>
<path d="M3.52474 20.9416C3.45344 20.9818 3.42813 21.0725 3.46832 21.144C3.49512 21.1931 3.54574 21.2199 3.59769 21.2199C3.623 21.2199 3.64831 21.2141 3.67064 21.2007C3.74209 21.1605 3.7674 21.0695 3.72721 20.9981C3.68701 20.9268 3.59635 20.9 3.52474 20.9416Z" fill="url(#paint3_linear_217_1412)"/>
<path d="M7.72032 6.18411C7.74563 6.18411 7.77094 6.17682 7.79476 6.16327C7.86622 6.12293 7.89152 6.03227 7.84984 5.96081C7.8095 5.8895 7.71869 5.86419 7.64738 5.90588C7.57607 5.94607 7.55076 6.03673 7.5923 6.10819C7.61894 6.15747 7.66956 6.18411 7.72032 6.18411Z" fill="url(#paint4_linear_217_1412)"/>
<path d="M4.74423 22.7292C4.68171 22.7827 4.67575 22.8781 4.7292 22.9391C4.75748 22.9732 4.79931 22.9912 4.84085 22.9912C4.87658 22.9912 4.91096 22.9793 4.9391 22.9555C5.00014 22.9021 5.00773 22.8081 4.95414 22.7456C4.90055 22.6829 4.80676 22.6756 4.74423 22.7292Z" fill="url(#paint5_linear_217_1412)"/>
<path d="M2.66479 18.9544C2.58738 18.9814 2.54555 19.0661 2.57086 19.1436C2.59319 19.2047 2.64991 19.2449 2.71243 19.2449C2.72866 19.2449 2.74354 19.2419 2.75992 19.2358C2.83882 19.209 2.87902 19.1258 2.85371 19.0467C2.82706 18.9693 2.74221 18.9276 2.66479 18.9544Z" fill="url(#paint6_linear_217_1412)"/>
<path d="M3.22273 10.8017C3.24506 10.812 3.26739 10.8181 3.28957 10.8181C3.3448 10.8181 3.3969 10.7883 3.42355 10.7361C3.46077 10.6631 3.43114 10.5738 3.35671 10.5366C3.28376 10.4994 3.19429 10.5291 3.15708 10.6021C3.12001 10.675 3.14978 10.7645 3.22273 10.8017Z" fill="url(#paint7_linear_217_1412)"/>
<path d="M4.45229 8.99288C4.49695 8.99288 4.54012 8.97189 4.56989 8.93467C4.62051 8.87066 4.6086 8.77672 4.54459 8.72625C4.47894 8.67564 4.38679 8.68606 4.33468 8.75156C4.28407 8.81572 4.29598 8.90951 4.35999 8.95998C4.38827 8.98246 4.41939 8.99288 4.45229 8.99288Z" fill="url(#paint8_linear_217_1412)"/>
<path d="M5.94994 7.42859C5.98418 7.42859 6.01827 7.41832 6.04656 7.39301C6.10908 7.33927 6.11653 7.24563 6.06294 7.18311C6.00934 7.12058 5.91555 7.11299 5.85303 7.16673C5.85303 7.16822 5.85303 7.16822 5.85303 7.16822C5.79051 7.22048 5.78292 7.3156 5.83666 7.37813C5.86658 7.41207 5.90811 7.42859 5.94994 7.42859Z" fill="url(#paint9_linear_217_1412)"/>
<path d="M9.69435 5.29542C9.71073 5.29542 9.72562 5.2923 9.74184 5.28649V5.28798C9.81926 5.26118 9.86258 5.17633 9.83578 5.09892C9.81047 5.02135 9.72562 4.97833 9.64821 5.00498C9.56931 5.03029 9.52747 5.11514 9.55278 5.19255C9.57377 5.25508 9.63183 5.29542 9.69435 5.29542Z" fill="url(#paint10_linear_217_1412)"/>
<path d="M2.14939 14.9718C2.22695 14.9718 2.29245 14.9124 2.29677 14.8333C2.30287 14.7515 2.24184 14.68 2.15832 14.6741C2.07645 14.6696 2.00514 14.7306 2.00037 14.8127C1.99457 14.896 2.05709 14.9658 2.13897 14.9718C2.1421 14.9718 2.14508 14.9718 2.14939 14.9718Z" fill="url(#paint11_linear_217_1412)"/>
<path d="M2.19848 16.8394C2.11675 16.8499 2.06003 16.9243 2.0706 17.0063C2.07968 17.0808 2.14504 17.1357 2.21798 17.1357C2.22379 17.1357 2.23138 17.1342 2.23734 17.1342C2.31921 17.1238 2.37578 17.0479 2.36536 16.966C2.35494 16.8857 2.28051 16.8275 2.19848 16.8394Z" fill="url(#paint12_linear_217_1412)"/>
<path d="M2.65547 12.7287C2.67646 12.6498 2.63017 12.5679 2.55141 12.5456C2.47088 12.5232 2.38915 12.5709 2.36831 12.6498C2.34598 12.7287 2.39361 12.8104 2.47251 12.8329C2.48591 12.8358 2.49782 12.839 2.51122 12.839C2.57657 12.839 2.63612 12.7942 2.65547 12.7287Z" fill="url(#paint13_linear_217_1412)"/>
<path d="M8.30199 25.3669C8.2292 25.3297 8.13973 25.3581 8.10102 25.4311C8.0638 25.5039 8.09358 25.5948 8.16652 25.6321C8.18885 25.6425 8.21118 25.6483 8.23351 25.6483C8.28845 25.6483 8.3407 25.6187 8.36735 25.5666C8.40486 25.4935 8.37494 25.4041 8.30199 25.3669Z" fill="url(#paint14_linear_217_1412)"/>
<path d="M10.2912 26.1357C10.2122 26.1149 10.1304 26.1627 10.1094 26.2414C10.0884 26.3218 10.1362 26.4037 10.2151 26.4246C10.227 26.4275 10.2404 26.429 10.254 26.429C10.3193 26.429 10.379 26.3844 10.3968 26.3174C10.4176 26.2385 10.37 26.1566 10.2912 26.1357Z" fill="url(#paint15_linear_217_1412)"/>
<path d="M6.29112 24.2447C6.2405 24.3087 6.25241 24.4027 6.31791 24.4531C6.34486 24.474 6.37612 24.4844 6.40887 24.4844C6.45338 24.4844 6.4967 24.4651 6.52633 24.4278C6.57694 24.3622 6.56503 24.2685 6.50102 24.2194C6.43567 24.1688 6.34173 24.1792 6.29112 24.2447Z" fill="url(#paint16_linear_217_1412)"/>
<path d="M11.5001 26.064C11.381 26.0326 11.2591 26.1042 11.2277 26.2232C11.1964 26.3423 11.2664 26.4643 11.3869 26.4956C11.4048 26.5001 11.4242 26.503 11.4435 26.503C11.5418 26.503 11.6327 26.4361 11.6594 26.3363C11.6906 26.2174 11.6192 26.0951 11.5001 26.064Z" fill="url(#paint17_linear_217_1412)"/>
<path d="M9.52585 25.3002C9.41718 25.2453 9.28156 25.2883 9.22514 25.397C9.16991 25.5072 9.21323 25.6413 9.32339 25.6977C9.3545 25.7157 9.39023 25.723 9.42462 25.723C9.50486 25.723 9.58391 25.6785 9.62262 25.6011C9.67904 25.4924 9.63601 25.3568 9.52585 25.3002Z" fill="url(#paint18_linear_217_1412)"/>
<path d="M10.8835 5.36927C10.9072 5.36927 10.931 5.3648 10.9549 5.35751C11.0711 5.31866 11.1352 5.19212 11.0964 5.07466C11.0577 4.95854 10.9311 4.89438 10.8137 4.93323C10.6959 4.97194 10.6334 5.09848 10.6721 5.21594C10.7034 5.30972 10.7912 5.36927 10.8835 5.36927Z" fill="url(#paint19_linear_217_1412)"/>
<path d="M8.91133 6.2587C8.94855 6.2587 8.98577 6.24842 9.02135 6.22907C9.12868 6.16803 9.1659 6.03107 9.10486 5.92374C9.04382 5.81656 8.90686 5.77934 8.79968 5.84201C8.79968 5.84037 8.79968 5.84037 8.79968 5.84037C8.69249 5.90141 8.65528 6.03837 8.71646 6.14555C8.758 6.21865 8.83243 6.2587 8.91133 6.2587Z" fill="url(#paint20_linear_217_1412)"/>
<path d="M3.64257 12.9041C3.66178 12.9101 3.68128 12.9132 3.70197 12.9132C3.79859 12.9132 3.8897 12.8475 3.91634 12.7478C3.9491 12.6303 3.87913 12.5068 3.75988 12.4739C3.64079 12.4411 3.51887 12.5111 3.48597 12.6303C3.45351 12.7493 3.52348 12.8712 3.64257 12.9041Z" fill="url(#paint21_linear_217_1412)"/>
<path d="M4.3796 10.8692C4.4125 10.8854 4.4466 10.893 4.47935 10.893C4.56137 10.893 4.64012 10.8482 4.68032 10.771C4.73555 10.6608 4.69074 10.5253 4.58058 10.4703C4.47056 10.415 4.33658 10.4583 4.28135 10.5685C4.22493 10.6787 4.26929 10.8141 4.3796 10.8692Z" fill="url(#paint22_linear_217_1412)"/>
<path d="M5.50521 9.02023C5.54541 9.05134 5.59453 9.06787 5.64217 9.06787C5.70901 9.06787 5.77466 9.03794 5.81784 8.98152C5.89376 8.88476 5.87738 8.74482 5.78062 8.66875C5.68385 8.59283 5.54243 8.60935 5.46666 8.70597C5.39058 8.80273 5.40696 8.94282 5.50521 9.02023Z" fill="url(#paint23_linear_217_1412)"/>
<path d="M5.88594 22.6739C5.79215 22.7528 5.78173 22.8942 5.86227 22.988C5.90678 23.0386 5.9693 23.0654 6.03183 23.0654C6.08259 23.0654 6.13455 23.0476 6.17638 23.012C6.27017 22.9315 6.28044 22.7902 6.20169 22.6963C6.11966 22.604 5.97972 22.592 5.88594 22.6739Z" fill="url(#paint24_linear_217_1412)"/>
<path d="M7.13947 7.50472C7.19172 7.50472 7.24368 7.4867 7.28536 7.45098C7.3793 7.36925 7.38972 7.22931 7.30918 7.13552C7.22894 7.04159 7.08752 7.03131 6.99522 7.1117C6.90143 7.19209 6.88952 7.33203 6.96991 7.42567C7.01442 7.47792 7.07695 7.50472 7.13947 7.50472Z" fill="url(#paint25_linear_217_1412)"/>
<path d="M4.67717 20.876C4.56998 20.937 4.53276 21.074 4.5938 21.1812C4.63414 21.2526 4.70992 21.2943 4.78882 21.2943C4.82604 21.2943 4.86325 21.2854 4.89749 21.2647C5.00468 21.2051 5.04338 21.0682 4.98235 20.9608C4.92131 20.8536 4.78584 20.8164 4.67717 20.876Z" fill="url(#paint26_linear_217_1412)"/>
<path d="M3.33894 15.0462C3.45506 15.0462 3.55331 14.9568 3.56076 14.8379H3.56224C3.56984 14.7158 3.47754 14.6085 3.35398 14.6012C3.23042 14.5921 3.12472 14.6846 3.11564 14.8081C3.10834 14.9315 3.2005 15.0374 3.32406 15.0463C3.32867 15.0462 3.33314 15.0462 3.33894 15.0462Z" fill="url(#paint27_linear_217_1412)"/>
<path d="M3.62952 16.9578C3.613 16.8357 3.50135 16.7494 3.37928 16.7656C3.25571 16.782 3.17101 16.8937 3.18575 17.0157C3.20197 17.129 3.2974 17.2109 3.40756 17.2109C3.41783 17.2109 3.42676 17.2094 3.43718 17.2079C3.55941 17.1915 3.64575 17.0799 3.62952 16.9578Z" fill="url(#paint28_linear_217_1412)"/>
<path d="M7.7368 24.1594C7.63854 24.0835 7.49846 24.1014 7.42269 24.1981C7.34661 24.2949 7.36463 24.4365 7.46139 24.5124C7.50174 24.5435 7.55086 24.5584 7.59835 24.5584C7.66534 24.5584 7.73084 24.5301 7.77565 24.4736C7.84994 24.3756 7.83356 24.2354 7.7368 24.1594Z" fill="url(#paint29_linear_217_1412)"/>
<path d="M3.83018 18.8843C3.71406 18.923 3.65154 19.0494 3.6901 19.1671C3.72136 19.2593 3.80919 19.319 3.90149 19.319C3.92531 19.319 3.95062 19.3146 3.97443 19.307C4.09055 19.2669 4.15308 19.1403 4.11303 19.0227C4.07433 18.9066 3.94615 18.8441 3.83018 18.8843Z" fill="url(#paint30_linear_217_1412)"/>
<path d="M6.60207 9.13635C6.6707 9.18995 6.75094 9.21689 6.83148 9.21689C6.94164 9.21689 7.05165 9.16777 7.12475 9.07383C7.25129 8.91156 7.22449 8.67784 7.06208 8.5513C6.89981 8.42476 6.66623 8.45156 6.53955 8.61383C6.41316 8.77624 6.4413 9.00996 6.60207 9.13635Z" fill="url(#paint31_linear_217_1412)"/>
<path d="M12.0744 5.5186C12.1131 5.5186 12.1533 5.51265 12.192 5.49925C12.3869 5.43375 12.4927 5.22384 12.4272 5.02883C12.3617 4.83381 12.1518 4.72811 11.9568 4.79213C11.7616 4.85748 11.6561 5.06887 11.7216 5.26404C11.7722 5.41886 11.9181 5.5186 12.0744 5.5186Z" fill="url(#paint32_linear_217_1412)"/>
<path d="M9.7774 6.22011C9.84603 6.33935 9.97108 6.40768 10.1004 6.40768C10.163 6.40768 10.2271 6.39145 10.285 6.35855C10.4623 6.25598 10.5247 6.0297 10.4235 5.85091C10.3209 5.67242 10.0946 5.60989 9.916 5.71247C9.916 5.71098 9.916 5.71098 9.916 5.71098C9.73736 5.81355 9.67483 6.04146 9.7774 6.22011Z" fill="url(#paint33_linear_217_1412)"/>
<path d="M8.33071 7.65322C8.41556 7.65322 8.50191 7.6233 8.57187 7.56227C8.72834 7.42843 8.74605 7.19322 8.61207 7.03825C8.47824 6.88194 8.24287 6.86407 8.08805 6.99805C7.93174 7.13203 7.91388 7.36725 8.04786 7.52207C8.1208 7.60856 8.22501 7.65322 8.33071 7.65322Z" fill="url(#paint34_linear_217_1412)"/>
<path d="M7.50283 22.5995C7.36885 22.4432 7.13498 22.4254 6.97881 22.5607C6.82235 22.6933 6.80449 22.9285 6.93847 23.0849C7.0129 23.1712 7.11711 23.2144 7.22132 23.2144C7.30766 23.2144 7.39401 23.1848 7.46413 23.1251C7.62029 22.9911 7.63681 22.7559 7.50283 22.5995Z" fill="url(#paint35_linear_217_1412)"/>
<path d="M9.01708 24.0424C8.85482 23.9157 8.62109 23.9457 8.49604 24.1078C8.3695 24.2686 8.39779 24.5023 8.56006 24.6288C8.62705 24.6823 8.70893 24.7077 8.78783 24.7077C8.89948 24.7077 9.008 24.6586 9.08244 24.5648C9.20749 24.4027 9.17935 24.169 9.01708 24.0424Z" fill="url(#paint36_linear_217_1412)"/>
<path d="M6.16156 21.3938C6.34006 21.2925 6.40258 21.0664 6.30135 20.8877C6.20012 20.7091 5.97399 20.6451 5.79371 20.7463C5.61521 20.8476 5.55269 21.0753 5.65392 21.254C5.72225 21.3747 5.84879 21.443 5.97845 21.443C6.03949 21.4429 6.1035 21.4267 6.16156 21.3938Z" fill="url(#paint37_linear_217_1412)"/>
<path d="M10.784 25.1679C10.6009 25.0741 10.3762 25.147 10.2839 25.3301C10.1901 25.5133 10.2616 25.7366 10.4447 25.8303C10.4981 25.8585 10.5563 25.8719 10.6146 25.8719C10.7499 25.8719 10.8794 25.7974 10.9449 25.6696C11.0402 25.4865 10.9672 25.2617 10.784 25.1679Z" fill="url(#paint38_linear_217_1412)"/>
<path d="M4.53273 12.5901C4.47765 12.7881 4.59377 12.9935 4.79161 13.0486C4.82451 13.0575 4.85875 13.0621 4.8915 13.0621C5.05526 13.0621 5.20413 12.9534 5.25013 12.7881C5.30387 12.5901 5.18761 12.3846 4.98961 12.3312C4.79162 12.2758 4.58633 12.3922 4.53273 12.5901Z" fill="url(#paint39_linear_217_1412)"/>
<path d="M4.64614 17.357C4.85009 17.3286 4.993 17.1425 4.9662 16.9385C4.93926 16.7347 4.75184 16.5917 4.54937 16.6185C4.34528 16.6454 4.20251 16.8328 4.22931 17.0354C4.25312 17.223 4.4139 17.36 4.59716 17.36C4.61339 17.36 4.62961 17.3585 4.64614 17.357Z" fill="url(#paint40_linear_217_1412)"/>
<path d="M4.5031 15.1934C4.51203 15.1949 4.52097 15.1949 4.52841 15.1949C4.72358 15.1949 4.88569 15.0445 4.89909 14.8482C4.91398 14.6426 4.75931 14.4656 4.55372 14.4522C4.34828 14.4371 4.17113 14.592 4.15773 14.7974C4.14284 15.0028 4.29766 15.18 4.5031 15.1934Z" fill="url(#paint41_linear_217_1412)"/>
<path d="M4.97187 18.743C4.77671 18.8086 4.67265 19.0199 4.73949 19.2149C4.79159 19.3697 4.936 19.468 5.09231 19.468C5.13116 19.468 5.17121 19.4605 5.2114 19.447C5.40657 19.3816 5.51063 19.1702 5.44379 18.9751C5.37843 18.7802 5.16689 18.676 4.97187 18.743Z" fill="url(#paint42_linear_217_1412)"/>
<path d="M6.00242 10.8379C6.09457 10.6534 6.02177 10.4301 5.83866 10.3378C5.65407 10.2455 5.43076 10.3185 5.33846 10.5016C5.24468 10.6862 5.31911 10.9095 5.50222 11.0018C5.55581 11.0287 5.61387 11.0421 5.67044 11.0421C5.80591 11.042 5.93707 10.9675 6.00242 10.8379Z" fill="url(#paint43_linear_217_1412)"/>
<path d="M20.6675 12.9034H16.8582C16.8191 12.9034 16.7839 12.9185 16.7569 12.9427C16.7291 12.918 16.6928 12.9033 16.6556 12.9033C16.6153 12.9033 16.5761 12.9197 16.548 12.9478C16.5194 12.9764 16.5034 13.0156 16.5034 13.0555C16.5034 13.0954 16.5194 13.1346 16.548 13.1631C16.5765 13.1913 16.6157 13.2077 16.6556 13.2077C16.6729 13.2077 16.6899 13.204 16.7061 13.1983V13.5038C16.6902 13.4982 16.6734 13.4945 16.6556 13.4945C16.5715 13.4945 16.5034 13.5623 16.5034 13.6463C16.5034 13.7304 16.5715 13.7985 16.6556 13.7985C16.6734 13.7985 16.6902 13.7948 16.7061 13.7893V14.0991C16.6902 14.0936 16.6734 14.0899 16.6556 14.0899C16.5715 14.0899 16.5034 14.158 16.5034 14.2421C16.5034 14.3261 16.5715 14.3943 16.6556 14.3943C16.6734 14.3943 16.6902 14.3906 16.7061 14.385V14.6949C16.6902 14.6894 16.6734 14.6857 16.6556 14.6857C16.5715 14.6857 16.5034 14.7537 16.5034 14.8379C16.5034 14.9219 16.5715 14.99 16.6556 14.99C16.6734 14.99 16.6902 14.9864 16.7061 14.9808V15.2903C16.6902 15.2847 16.6734 15.2811 16.6556 15.2811C16.5715 15.2811 16.5034 15.3491 16.5034 15.4332C16.5034 15.5173 16.5715 15.5854 16.6556 15.5854C16.6734 15.5854 16.6902 15.5818 16.7061 15.5761V15.886C16.6902 15.8804 16.6734 15.8768 16.6556 15.8768C16.5715 15.8768 16.5034 15.9449 16.5034 16.0289C16.5034 16.113 16.5715 16.1811 16.6556 16.1811C16.6734 16.1811 16.6902 16.1775 16.7061 16.1719V16.4814C16.6902 16.4758 16.6734 16.4721 16.6556 16.4721C16.5715 16.4721 16.5034 16.5403 16.5034 16.6243C16.5034 16.7084 16.5715 16.7765 16.6556 16.7765C16.6734 16.7765 16.6902 16.7728 16.7061 16.7673V17.0771C16.6902 17.0716 16.6734 17.0679 16.6556 17.0679C16.5715 17.0679 16.5034 17.136 16.5034 17.2201C16.5034 17.3042 16.5715 17.3722 16.6556 17.3722C16.6734 17.3722 16.6902 17.3686 16.7061 17.363V17.6729C16.6902 17.6673 16.6734 17.6637 16.6556 17.6637C16.5715 17.6637 16.5034 17.7318 16.5034 17.8158C16.5034 17.8999 16.5715 17.968 16.6556 17.968C16.6734 17.968 16.6902 17.9643 16.7061 17.9588V18.4662C16.6898 18.4604 16.6729 18.4569 16.6556 18.4569C16.6153 18.4569 16.5761 18.4732 16.548 18.5014C16.5198 18.5299 16.5034 18.5691 16.5034 18.6091C16.5034 18.649 16.5198 18.6882 16.548 18.7167C16.5765 18.7449 16.6157 18.7612 16.6556 18.7612C16.6929 18.7612 16.729 18.7466 16.7569 18.7219C16.7839 18.7462 16.8191 18.7613 16.8582 18.7613H18.3835C18.4676 18.7613 18.5357 18.6931 18.5357 18.6091V16.6961H20.2451C20.3292 16.6961 20.3973 16.6279 20.3973 16.5439V15.308C20.3973 15.224 20.3292 15.1558 20.2451 15.1558H18.5357V14.5372H20.6675C20.7515 14.5372 20.8197 14.4691 20.8197 14.3851V13.0554C20.8196 12.9715 20.7515 12.9034 20.6675 12.9034ZM20.5153 14.233H18.3835C18.2995 14.233 18.2314 14.3012 18.2314 14.3852V15.3082C18.2314 15.3922 18.2995 15.4603 18.3835 15.4603H20.093V16.3919H18.3835C18.2995 16.3919 18.2314 16.46 18.2314 16.5441V18.4569H17.0104V13.2077H20.5153V14.233Z" fill="url(#paint44_linear_217_1412)"/>
<path d="M15.615 18.5818C15.6081 18.589 15.604 18.5989 15.604 18.6088C15.604 18.6191 15.6078 18.6286 15.615 18.6358C15.6223 18.643 15.6318 18.6468 15.642 18.6468C15.6519 18.6468 15.6618 18.643 15.6686 18.6358C15.6759 18.6286 15.6801 18.6187 15.6801 18.6088C15.6801 18.5989 15.6759 18.589 15.6691 18.5822C15.6546 18.5677 15.6291 18.5677 15.615 18.5818Z" fill="url(#paint45_linear_217_1412)"/>
<path d="M15.642 14.7998C15.6207 14.7998 15.604 14.8165 15.604 14.8378C15.604 14.8587 15.6207 14.8759 15.642 14.8759C15.663 14.8759 15.6801 14.8587 15.6801 14.8378C15.6801 14.8165 15.663 14.7998 15.642 14.7998Z" fill="url(#paint46_linear_217_1412)"/>
<path d="M15.642 15.3955C15.6207 15.3955 15.604 15.4126 15.604 15.4335C15.604 15.4545 15.6207 15.4716 15.642 15.4716C15.663 15.4716 15.6801 15.4545 15.6801 15.4335C15.6801 15.4127 15.663 15.3955 15.642 15.3955Z" fill="url(#paint47_linear_217_1412)"/>
<path d="M15.642 14.2041C15.6207 14.2041 15.604 14.2212 15.604 14.2421C15.604 14.2631 15.6207 14.2802 15.642 14.2802C15.663 14.2802 15.6801 14.2631 15.6801 14.2421C15.6801 14.2212 15.663 14.2041 15.642 14.2041Z" fill="url(#paint48_linear_217_1412)"/>
<path d="M15.642 13.6084C15.6207 13.6084 15.604 13.6251 15.604 13.6461C15.604 13.6674 15.6207 13.6845 15.642 13.6845C15.663 13.6845 15.6801 13.6674 15.6801 13.6461C15.6801 13.6251 15.663 13.6084 15.642 13.6084Z" fill="url(#paint49_linear_217_1412)"/>
<path d="M15.642 17.1816C15.6207 17.1816 15.604 17.1987 15.604 17.2197C15.604 17.2406 15.6207 17.2577 15.642 17.2577C15.663 17.2577 15.6801 17.2406 15.6801 17.2197C15.6801 17.1988 15.663 17.1816 15.642 17.1816Z" fill="url(#paint50_linear_217_1412)"/>
<path d="M15.642 17.7783C15.6207 17.7783 15.604 17.7951 15.604 17.8164C15.604 17.8373 15.6207 17.8544 15.642 17.8544C15.663 17.8544 15.6801 17.8373 15.6801 17.8164C15.6801 17.7951 15.663 17.7783 15.642 17.7783Z" fill="url(#paint51_linear_217_1412)"/>
<path d="M15.642 16.5859C15.6207 16.5859 15.604 16.6031 15.604 16.624C15.604 16.6453 15.6207 16.662 15.642 16.662C15.663 16.662 15.6801 16.6453 15.6801 16.624C15.6801 16.6031 15.663 16.5859 15.642 16.5859Z" fill="url(#paint52_linear_217_1412)"/>
<path d="M15.642 15.9912C15.6207 15.9912 15.604 16.0083 15.604 16.0292C15.604 16.0502 15.6207 16.0673 15.642 16.0673C15.663 16.0673 15.6801 16.0502 15.6801 16.0292C15.6801 16.0083 15.663 15.9912 15.642 15.9912Z" fill="url(#paint53_linear_217_1412)"/>
<path d="M15.615 13.0281C15.6078 13.0353 15.604 13.0452 15.604 13.0551C15.604 13.0651 15.6078 13.0749 15.615 13.0822C15.6223 13.0894 15.6321 13.0932 15.642 13.0932C15.6519 13.0932 15.6618 13.089 15.669 13.0822C15.6759 13.0749 15.6801 13.0651 15.6801 13.0551C15.6801 13.0452 15.6759 13.0353 15.669 13.0281C15.655 13.0141 15.6295 13.0141 15.615 13.0281Z" fill="url(#paint54_linear_217_1412)"/>
<path d="M15.9059 18.5687C15.8952 18.5794 15.8892 18.5942 15.8892 18.6091C15.8892 18.6242 15.8952 18.6387 15.9059 18.6494C15.9165 18.6601 15.9313 18.6661 15.9462 18.6661C15.9611 18.6661 15.9758 18.6601 15.9866 18.6494C15.9973 18.6387 16.0033 18.6239 16.0033 18.6091C16.0033 18.5942 15.9972 18.5794 15.9866 18.5687C15.9656 18.5474 15.9272 18.5474 15.9059 18.5687Z" fill="url(#paint55_linear_217_1412)"/>
<path d="M15.9462 17.2772C15.9777 17.2772 16.0033 17.2517 16.0033 17.2202C16.0033 17.1886 15.9777 17.1631 15.9462 17.1631C15.9147 17.1631 15.8892 17.1886 15.8892 17.2202C15.8892 17.2517 15.9147 17.2772 15.9462 17.2772Z" fill="url(#paint56_linear_217_1412)"/>
<path d="M15.9462 16.5674C15.9146 16.5674 15.8892 16.5933 15.8892 16.6245C15.8892 16.656 15.9146 16.6815 15.9462 16.6815C15.9778 16.6815 16.0033 16.656 16.0033 16.6245C16.0033 16.5933 15.9778 16.5674 15.9462 16.5674Z" fill="url(#paint57_linear_217_1412)"/>
<path d="M15.9462 17.7588C15.9146 17.7588 15.8892 17.7843 15.8892 17.8159C15.8892 17.847 15.9146 17.8729 15.9462 17.8729C15.9778 17.8729 16.0033 17.847 16.0033 17.8159C16.0033 17.7843 15.9778 17.7588 15.9462 17.7588Z" fill="url(#paint58_linear_217_1412)"/>
<path d="M15.9462 15.9717C15.9777 15.9717 16.0033 15.9972 16.0033 16.0287C16.0033 16.0603 15.9777 16.0858 15.9462 16.0858C15.9147 16.0858 15.8892 16.0603 15.8892 16.0287C15.8892 15.9972 15.9147 15.9717 15.9462 15.9717Z" fill="url(#paint59_linear_217_1412)"/>
<path d="M15.9462 14.2987C15.9777 14.2987 16.0033 14.2732 16.0033 14.2416C16.0033 14.2101 15.9777 14.1846 15.9462 14.1846C15.9147 14.1846 15.8892 14.2101 15.8892 14.2416C15.8892 14.2732 15.9147 14.2987 15.9462 14.2987Z" fill="url(#paint60_linear_217_1412)"/>
<path d="M15.9462 15.376C15.9777 15.376 16.0033 15.4015 16.0033 15.433C16.0033 15.4646 15.9777 15.4901 15.9462 15.4901C15.9147 15.4901 15.8892 15.4646 15.8892 15.433C15.8892 15.4015 15.9147 15.376 15.9462 15.376Z" fill="url(#paint61_linear_217_1412)"/>
<path d="M15.9462 13.5898C15.9146 13.5898 15.8892 13.6153 15.8892 13.6465C15.8892 13.6781 15.9146 13.7036 15.9462 13.7036C15.9778 13.7036 16.0033 13.6781 16.0033 13.6465C16.0033 13.6153 15.9778 13.5898 15.9462 13.5898Z" fill="url(#paint62_linear_217_1412)"/>
<path d="M15.9462 14.8944C15.9777 14.8944 16.0033 14.8689 16.0033 14.8373C16.0033 14.8058 15.9777 14.7803 15.9462 14.7803C15.9147 14.7803 15.8892 14.8058 15.8892 14.8373C15.8892 14.8689 15.9147 14.8944 15.9462 14.8944Z" fill="url(#paint63_linear_217_1412)"/>
<path d="M15.9059 13.015C15.8952 13.0256 15.8892 13.0405 15.8892 13.0553C15.8892 13.0705 15.8952 13.085 15.9059 13.0956C15.9165 13.1063 15.9313 13.1124 15.9462 13.1124C15.9611 13.1124 15.9758 13.1063 15.9866 13.0956C15.9972 13.085 16.0033 13.0705 16.0033 13.0553C16.0033 13.0405 15.9972 13.0257 15.9866 13.015C15.9652 12.9937 15.9272 12.9937 15.9059 13.015Z" fill="url(#paint64_linear_217_1412)"/>
<path d="M16.1825 18.5422C16.165 18.5601 16.1548 18.5844 16.1548 18.6095C16.1548 18.6346 16.165 18.659 16.1825 18.6769C16.2004 18.6944 16.2247 18.7046 16.2499 18.7046C16.275 18.7046 16.2997 18.6943 16.3172 18.6769C16.3351 18.659 16.345 18.6346 16.345 18.6095C16.345 18.5844 16.335 18.5601 16.3172 18.5422C16.2822 18.5068 16.2183 18.5068 16.1825 18.5422Z" fill="url(#paint65_linear_217_1412)"/>
<path d="M16.2499 15.3379C16.3024 15.3379 16.345 15.3805 16.345 15.433C16.345 15.4855 16.3024 15.5281 16.2499 15.5281C16.1974 15.5281 16.1548 15.4855 16.1548 15.433C16.1548 15.3805 16.1974 15.3379 16.2499 15.3379Z" fill="url(#paint66_linear_217_1412)"/>
<path d="M16.2499 14.9324C16.3024 14.9324 16.345 14.8898 16.345 14.8373C16.345 14.7848 16.3024 14.7422 16.2499 14.7422C16.1974 14.7422 16.1548 14.7848 16.1548 14.8373C16.1548 14.8898 16.1974 14.9324 16.2499 14.9324Z" fill="url(#paint67_linear_217_1412)"/>
<path d="M16.2499 14.1475C16.3024 14.1475 16.345 14.19 16.345 14.2426C16.345 14.2951 16.3024 14.3377 16.2499 14.3377C16.1974 14.3377 16.1548 14.2951 16.1548 14.2426C16.1548 14.19 16.1974 14.1475 16.2499 14.1475Z" fill="url(#paint68_linear_217_1412)"/>
<path d="M16.2499 13.5508C16.1974 13.5508 16.1548 13.5934 16.1548 13.6459C16.1548 13.6988 16.1974 13.7414 16.2499 13.7414C16.3023 13.7414 16.345 13.6988 16.345 13.6459C16.345 13.5934 16.3023 13.5508 16.2499 13.5508Z" fill="url(#paint69_linear_217_1412)"/>
<path d="M16.2499 17.3152C16.3024 17.3152 16.345 17.2726 16.345 17.2201C16.345 17.1676 16.3024 17.125 16.2499 17.125C16.1974 17.125 16.1548 17.1676 16.1548 17.2201C16.1548 17.2726 16.1974 17.3152 16.2499 17.3152Z" fill="url(#paint70_linear_217_1412)"/>
<path d="M16.2499 17.7207C16.3024 17.7207 16.345 17.7633 16.345 17.8158C16.345 17.8683 16.3024 17.9109 16.2499 17.9109C16.1974 17.9109 16.1548 17.8683 16.1548 17.8158C16.1548 17.7633 16.1974 17.7207 16.2499 17.7207Z" fill="url(#paint71_linear_217_1412)"/>
<path d="M16.2499 15.9336C16.3024 15.9336 16.345 15.9762 16.345 16.0287C16.345 16.0812 16.3024 16.1238 16.2499 16.1238C16.1974 16.1238 16.1548 16.0812 16.1548 16.0287C16.1548 15.9762 16.1974 15.9336 16.2499 15.9336Z" fill="url(#paint72_linear_217_1412)"/>
<path d="M16.2499 16.5293C16.1974 16.5293 16.1548 16.572 16.1548 16.6244C16.1548 16.6773 16.1974 16.7195 16.2499 16.7195C16.3023 16.7195 16.345 16.6773 16.345 16.6244C16.345 16.572 16.3023 16.5293 16.2499 16.5293Z" fill="url(#paint73_linear_217_1412)"/>
<path d="M16.1825 12.9884C16.165 13.0063 16.1548 13.0307 16.1548 13.0558C16.1548 13.0809 16.165 13.1052 16.1825 13.1232C16.2004 13.1406 16.2247 13.1509 16.2499 13.1509C16.275 13.1509 16.2997 13.1406 16.3172 13.1232C16.3351 13.1052 16.345 13.0809 16.345 13.0558C16.345 13.0307 16.335 13.0063 16.3172 12.9884C16.2818 12.9531 16.2183 12.9531 16.1825 12.9884Z" fill="url(#paint74_linear_217_1412)"/>
<path d="M34.372 10.48C34.956 10.48 35.508 10.62 36.028 10.9C36.556 11.18 36.976 11.552 37.288 12.016C37.608 12.472 37.768 12.948 37.768 13.444C37.768 14.22 37.56 15.052 37.144 15.94C36.728 16.82 36.2 17.56 35.56 18.16C34.928 18.76 34.304 19.06 33.688 19.06C33.368 19.06 33.008 18.928 32.608 18.664C32.216 18.392 31.88 18.072 31.6 17.704C31.32 17.328 31.18 16.996 31.18 16.708C31.18 16.252 31.316 15.468 31.588 14.356C31.86 13.236 32.112 12.412 32.344 11.884C32.608 11.804 32.856 11.764 33.088 11.764C33.248 11.764 33.376 11.78 33.472 11.812C33.456 11.516 33.528 11.244 33.688 10.996C33.848 10.748 34.076 10.576 34.372 10.48ZM33.136 17.416C33.904 17.136 34.548 16.6 35.068 15.808C35.588 15.008 35.956 14.132 36.172 13.18C35.948 13.02 35.656 12.888 35.296 12.784C34.944 12.68 34.564 12.624 34.156 12.616C34.172 12.696 34.188 12.816 34.204 12.976C33.468 14.352 33.112 15.832 33.136 17.416ZM40.6635 14.968C41.2955 14.136 41.7835 13.528 42.1275 13.144C42.4715 12.752 42.7515 12.556 42.9675 12.556C43.1195 12.556 43.2955 12.62 43.4955 12.748C43.7035 12.876 43.8795 13.024 44.0235 13.192C44.1755 13.352 44.2475 13.48 44.2395 13.576C44.2315 13.776 44.2035 13.992 44.1555 14.224C44.1075 14.456 44.0395 14.74 43.9515 15.076C44.6155 14.228 45.1355 13.596 45.5115 13.18C45.8955 12.764 46.1955 12.556 46.4115 12.556C46.5635 12.556 46.7475 12.632 46.9635 12.784C47.1795 12.936 47.3635 13.112 47.5155 13.312C47.6755 13.504 47.7555 13.652 47.7555 13.756C47.7475 13.892 47.6915 14.124 47.5875 14.452C47.4835 14.78 47.3355 15.216 47.1435 15.76C46.8875 16.464 46.7235 16.94 46.6515 17.188C46.9075 17.052 47.1035 16.94 47.2395 16.852C47.3835 16.756 47.5515 16.628 47.7435 16.468C48.0955 16.588 48.3595 16.756 48.5355 16.972C48.7115 17.18 48.7995 17.42 48.7995 17.692C48.7995 17.884 48.6595 18.084 48.3795 18.292C48.1075 18.492 47.7835 18.66 47.4075 18.796C47.0315 18.932 46.7115 19 46.4475 19C46.2715 19 46.0635 18.928 45.8235 18.784C45.5835 18.64 45.3755 18.476 45.1995 18.292C45.0235 18.1 44.9355 17.952 44.9355 17.848C44.9355 17.784 44.9755 17.632 45.0555 17.392C45.1355 17.144 45.1875 16.976 45.2115 16.888C45.3635 16.408 45.4755 16.028 45.5475 15.748C45.6275 15.46 45.6675 15.248 45.6675 15.112C45.6675 15.016 45.6475 14.968 45.6075 14.968C45.2715 14.968 44.6755 15.528 43.8195 16.648C43.7555 16.88 43.6955 17.172 43.6395 17.524C43.5435 18.036 43.4595 18.412 43.3875 18.652C43.3155 18.884 43.2195 19 43.0995 19C42.9315 19 42.7235 18.928 42.4755 18.784C42.2275 18.64 42.0115 18.476 41.8275 18.292C41.6435 18.1 41.5515 17.944 41.5515 17.824C41.5515 17.744 41.6395 17.432 41.8155 16.888C41.9595 16.432 42.0715 16.06 42.1515 15.772C42.2315 15.476 42.2715 15.256 42.2715 15.112C42.2715 15.016 42.2475 14.968 42.1995 14.968C41.8795 14.968 41.2835 15.528 40.4115 16.648C40.3795 16.776 40.3435 16.936 40.3035 17.128C40.2715 17.32 40.2475 17.456 40.2315 17.536C40.1435 18.008 40.0595 18.372 39.9795 18.628C39.9075 18.876 39.8115 19 39.6915 19C39.4835 19 39.2475 18.932 38.9835 18.796C38.7275 18.652 38.5035 18.488 38.3115 18.304C38.1275 18.112 38.0355 17.952 38.0355 17.824C38.0355 17.68 38.0875 17.468 38.1915 17.188C38.2955 16.908 38.4515 16.524 38.6595 16.036C38.8195 15.66 38.9395 15.368 39.0195 15.16C39.0995 14.944 39.1395 14.792 39.1395 14.704C39.1395 14.64 39.0995 14.572 39.0195 14.5C38.9475 14.42 38.8355 14.324 38.6835 14.212C38.5075 14.076 38.3755 13.968 38.2875 13.888C38.2075 13.808 38.1675 13.724 38.1675 13.636C38.1675 13.468 38.2435 13.272 38.3955 13.048C38.5555 12.824 38.7395 12.632 38.9475 12.472C39.1635 12.312 39.3475 12.232 39.4995 12.232C39.6675 12.232 39.8595 12.308 40.0755 12.46C40.2995 12.612 40.4915 12.788 40.6515 12.988C40.8195 13.18 40.9035 13.328 40.9035 13.432C40.9035 13.624 40.8795 13.86 40.8315 14.14C40.7915 14.42 40.7355 14.696 40.6635 14.968ZM54.9235 17.236C55.4115 16.996 55.8235 16.74 56.1595 16.468C56.5115 16.588 56.7715 16.756 56.9395 16.972C57.1155 17.18 57.2035 17.42 57.2035 17.692C57.2035 17.884 57.0675 18.084 56.7955 18.292C56.5235 18.492 56.1995 18.66 55.8235 18.796C55.4475 18.932 55.1275 19 54.8635 19C54.6795 19 54.4675 18.932 54.2275 18.796C53.9955 18.66 53.7915 18.5 53.6155 18.316C53.4475 18.132 53.3635 17.988 53.3635 17.884C53.3635 17.804 53.3955 17.696 53.4595 17.56C53.5315 17.424 53.6075 17.284 53.6875 17.14C53.7675 16.996 53.8195 16.9 53.8435 16.852L53.5435 16.684C53.1195 17.38 52.7115 17.94 52.3195 18.364C51.9355 18.788 51.5555 19 51.1795 19C50.9235 19 50.6515 18.888 50.3635 18.664C50.0835 18.44 49.8435 18.168 49.6435 17.848C49.4515 17.528 49.3555 17.244 49.3555 16.996C49.3555 16.284 49.5035 15.556 49.7995 14.812C50.0955 14.068 50.5075 13.452 51.0355 12.964C51.5715 12.476 52.1755 12.232 52.8475 12.232C53.0875 12.232 53.3315 12.34 53.5795 12.556C53.8275 12.772 53.9875 12.992 54.0595 13.216C54.0995 13.04 54.1555 12.888 54.2275 12.76C54.3075 12.624 54.3915 12.556 54.4795 12.556C54.6875 12.556 54.9155 12.632 55.1635 12.784C55.4195 12.928 55.6355 13.1 55.8115 13.3C55.9875 13.492 56.0755 13.644 56.0755 13.756C56.0675 13.908 56.0035 14.16 55.8835 14.512C55.7715 14.864 55.5875 15.4 55.3315 16.12C55.1795 16.512 55.0435 16.884 54.9235 17.236ZM51.2395 17.332C51.8875 16.932 52.4515 16.44 52.9315 15.856C53.4115 15.264 53.7395 14.612 53.9155 13.9C53.6995 13.804 53.4955 13.756 53.3035 13.756C52.9275 13.756 52.5915 13.924 52.2955 14.26C51.9995 14.596 51.7635 15.036 51.5875 15.58C51.4115 16.124 51.2955 16.708 51.2395 17.332ZM59.7258 19C59.5098 19 59.2738 18.932 59.0178 18.796C58.7618 18.652 58.5418 18.488 58.3578 18.304C58.1738 18.112 58.0818 17.952 58.0818 17.824C58.0818 17.672 58.1138 17.476 58.1778 17.236C58.2418 16.988 58.3378 16.668 58.4658 16.276C58.5938 15.868 58.6898 15.544 58.7538 15.304C58.8178 15.056 58.8498 14.856 58.8498 14.704C58.8498 14.64 58.8138 14.572 58.7418 14.5C58.6698 14.428 58.5578 14.332 58.4058 14.212C58.2298 14.068 58.1018 13.956 58.0218 13.876C57.9418 13.796 57.9018 13.716 57.9018 13.636C57.9018 13.468 57.9818 13.272 58.1418 13.048C58.3018 12.824 58.4898 12.632 58.7058 12.472C58.9218 12.312 59.1058 12.232 59.2578 12.232C59.4258 12.232 59.6178 12.308 59.8338 12.46C60.0498 12.612 60.2378 12.788 60.3978 12.988C60.5578 13.18 60.6378 13.328 60.6378 13.432C60.6378 13.736 60.5778 14.136 60.4578 14.632L60.6018 14.704C60.7858 14.408 60.9858 14.056 61.2018 13.648C61.4258 13.232 61.5618 12.976 61.6098 12.88L61.8378 12.448C62.3898 12.432 62.8018 12.532 63.0738 12.748C63.3458 12.964 63.4818 13.252 63.4818 13.612C63.4818 13.964 63.3658 14.316 63.1338 14.668C62.5578 14.86 62.0658 15.052 61.6578 15.244C61.2578 15.428 60.8538 15.648 60.4458 15.904C60.4218 16.792 60.3498 17.532 60.2298 18.124C60.1178 18.708 59.9498 19 59.7258 19ZM73.2146 10.6C73.3666 10.688 73.4786 10.812 73.5506 10.972C73.6306 11.124 73.6706 11.292 73.6706 11.476C73.6706 11.636 73.6386 11.796 73.5746 11.956C73.5106 12.116 73.4266 12.248 73.3226 12.352C72.4106 12.368 71.5506 12.408 70.7426 12.472C70.7026 12.64 70.6186 13.012 70.4906 13.588C70.4746 13.66 70.4226 13.912 70.3346 14.344C71.1906 14.272 71.8666 14.176 72.3626 14.056C72.5226 14.152 72.6426 14.28 72.7226 14.44C72.8106 14.592 72.8546 14.76 72.8546 14.944C72.8546 15.112 72.8186 15.272 72.7466 15.424C72.6826 15.568 72.5906 15.684 72.4706 15.772C72.3186 15.788 72.1666 15.8 72.0146 15.808C71.8706 15.816 71.7306 15.824 71.5946 15.832L70.0946 15.94C70.0306 16.348 69.9666 16.832 69.9026 17.392C69.8306 17.992 69.7666 18.412 69.7106 18.652C69.6546 18.884 69.5626 19 69.4346 19C69.2346 19 69.0066 18.932 68.7506 18.796C68.5026 18.652 68.2866 18.488 68.1026 18.304C67.9266 18.112 67.8386 17.956 67.8386 17.836C67.8386 17.716 67.8786 17.452 67.9586 17.044C68.0466 16.636 68.1426 16.196 68.2466 15.724C68.6066 14.172 68.8186 13.108 68.8826 12.532L68.3786 12.568C68.2266 12.488 68.1026 12.372 68.0066 12.22C67.9186 12.06 67.8746 11.888 67.8746 11.704C67.8746 11.384 67.9986 11.1 68.2466 10.852C69.3426 10.836 70.2946 10.812 71.1026 10.78C71.9186 10.748 72.6226 10.688 73.2146 10.6ZM78.8766 17.236C79.3646 16.996 79.7766 16.74 80.1126 16.468C80.4646 16.588 80.7246 16.756 80.8926 16.972C81.0686 17.18 81.1566 17.42 81.1566 17.692C81.1566 17.884 81.0206 18.084 80.7486 18.292C80.4766 18.492 80.1526 18.66 79.7766 18.796C79.4006 18.932 79.0806 19 78.8166 19C78.6326 19 78.4206 18.932 78.1806 18.796C77.9486 18.66 77.7446 18.5 77.5686 18.316C77.4006 18.132 77.3166 17.988 77.3166 17.884C77.3166 17.804 77.3486 17.696 77.4126 17.56C77.4846 17.424 77.5606 17.284 77.6406 17.14C77.7206 16.996 77.7726 16.9 77.7966 16.852L77.4966 16.684C77.0726 17.38 76.6646 17.94 76.2726 18.364C75.8886 18.788 75.5086 19 75.1326 19C74.8766 19 74.6046 18.888 74.3166 18.664C74.0366 18.44 73.7966 18.168 73.5966 17.848C73.4046 17.528 73.3086 17.244 73.3086 16.996C73.3086 16.284 73.4566 15.556 73.7526 14.812C74.0486 14.068 74.4606 13.452 74.9886 12.964C75.5246 12.476 76.1286 12.232 76.8006 12.232C77.0406 12.232 77.2846 12.34 77.5326 12.556C77.7806 12.772 77.9406 12.992 78.0126 13.216C78.0526 13.04 78.1086 12.888 78.1806 12.76C78.2606 12.624 78.3446 12.556 78.4326 12.556C78.6406 12.556 78.8686 12.632 79.1166 12.784C79.3726 12.928 79.5886 13.1 79.7646 13.3C79.9406 13.492 80.0286 13.644 80.0286 13.756C80.0206 13.908 79.9566 14.16 79.8366 14.512C79.7246 14.864 79.5406 15.4 79.2846 16.12C79.1326 16.512 78.9966 16.884 78.8766 17.236ZM75.1926 17.332C75.8406 16.932 76.4046 16.44 76.8846 15.856C77.3646 15.264 77.6926 14.612 77.8686 13.9C77.6526 13.804 77.4486 13.756 77.2566 13.756C76.8806 13.756 76.5446 13.924 76.2486 14.26C75.9526 14.596 75.7166 15.036 75.5406 15.58C75.3646 16.124 75.2486 16.708 75.1926 17.332ZM83.679 19C83.463 19 83.227 18.932 82.971 18.796C82.715 18.652 82.495 18.488 82.311 18.304C82.127 18.112 82.035 17.952 82.035 17.824C82.035 17.672 82.067 17.476 82.131 17.236C82.195 16.988 82.291 16.668 82.419 16.276C82.547 15.868 82.643 15.544 82.707 15.304C82.771 15.056 82.803 14.856 82.803 14.704C82.803 14.64 82.767 14.572 82.695 14.5C82.623 14.428 82.511 14.332 82.359 14.212C82.183 14.068 82.055 13.956 81.975 13.876C81.895 13.796 81.855 13.716 81.855 13.636C81.855 13.468 81.935 13.272 82.095 13.048C82.255 12.824 82.443 12.632 82.659 12.472C82.875 12.312 83.059 12.232 83.211 12.232C83.379 12.232 83.571 12.308 83.787 12.46C84.003 12.612 84.191 12.788 84.351 12.988C84.511 13.18 84.591 13.328 84.591 13.432C84.591 13.736 84.531 14.136 84.411 14.632L84.555 14.704C84.739 14.408 84.939 14.056 85.155 13.648C85.379 13.232 85.515 12.976 85.563 12.88L85.791 12.448C86.343 12.432 86.755 12.532 87.027 12.748C87.299 12.964 87.435 13.252 87.435 13.612C87.435 13.964 87.319 14.316 87.087 14.668C86.511 14.86 86.019 15.052 85.611 15.244C85.211 15.428 84.807 15.648 84.399 15.904C84.375 16.792 84.303 17.532 84.183 18.124C84.071 18.708 83.903 19 83.679 19ZM89.6502 19C89.4422 19 89.2142 18.924 88.9662 18.772C88.7262 18.612 88.5222 18.432 88.3542 18.232C88.1862 18.024 88.1022 17.856 88.1022 17.728C88.1022 17.6 88.1382 17.416 88.2102 17.176C88.2902 16.936 88.3702 16.696 88.4502 16.456C88.5382 16.216 88.5942 16.064 88.6182 16C88.7222 15.72 88.8142 15.456 88.8942 15.208C88.9822 14.96 89.0262 14.792 89.0262 14.704C89.0262 14.64 88.9862 14.572 88.9062 14.5C88.8342 14.42 88.7222 14.324 88.5702 14.212C88.3942 14.076 88.2622 13.968 88.1742 13.888C88.0942 13.808 88.0542 13.724 88.0542 13.636C88.0542 13.468 88.1302 13.272 88.2822 13.048C88.4422 12.824 88.6262 12.632 88.8342 12.472C89.0502 12.312 89.2342 12.232 89.3862 12.232C89.5542 12.232 89.7462 12.308 89.9622 12.46C90.1862 12.612 90.3782 12.788 90.5382 12.988C90.7062 13.18 90.7902 13.328 90.7902 13.432C90.7902 13.928 90.7062 14.524 90.5382 15.22C90.3702 15.916 90.1542 16.608 89.8902 17.296C90.4182 16.856 90.8902 16.368 91.3062 15.832C91.7222 15.296 92.0142 14.816 92.1822 14.392C92.1982 13.872 92.2582 13.436 92.3622 13.084C92.4742 12.732 92.6022 12.556 92.7462 12.556C92.9542 12.556 93.1822 12.632 93.4302 12.784C93.6862 12.928 93.9022 13.1 94.0782 13.3C94.2542 13.492 94.3422 13.644 94.3422 13.756C94.3342 13.924 94.2582 14.24 94.1142 14.704C93.9702 15.16 93.7702 15.748 93.5142 16.468C93.3622 16.916 93.2742 17.172 93.2502 17.236C93.4822 17.132 93.6902 17.024 93.8742 16.912C94.0662 16.792 94.2662 16.644 94.4742 16.468C94.8262 16.588 95.0862 16.756 95.2542 16.972C95.4302 17.18 95.5182 17.42 95.5182 17.692C95.5182 17.884 95.3822 18.084 95.1102 18.292C94.8382 18.492 94.5142 18.66 94.1382 18.796C93.7622 18.932 93.4422 19 93.1782 19C93.0102 19 92.8102 18.932 92.5782 18.796C92.3462 18.652 92.1382 18.492 91.9542 18.316C91.7782 18.132 91.6902 17.996 91.6902 17.908C91.6902 17.82 91.7182 17.712 91.7742 17.584C91.8382 17.456 91.9062 17.32 91.9782 17.176C92.0582 17.024 92.1182 16.916 92.1582 16.852L91.8582 16.684C91.4182 17.492 91.0382 18.08 90.7182 18.448C90.4062 18.816 90.0502 19 89.6502 19ZM98.5984 14.884C99.1824 14.108 99.6464 13.528 99.9904 13.144C100.334 12.752 100.638 12.556 100.902 12.556C101.086 12.556 101.274 12.644 101.466 12.82C101.666 12.996 101.83 13.208 101.958 13.456C102.086 13.696 102.15 13.9 102.15 14.068C102.15 14.524 101.97 14.98 101.61 15.436C101.258 15.884 100.81 16.288 100.266 16.648C100.426 16.8 100.562 16.916 100.674 16.996C100.786 17.076 100.906 17.14 101.034 17.188C101.282 17.108 101.594 16.964 101.97 16.756C102.21 16.9 102.394 17.068 102.522 17.26C102.65 17.452 102.714 17.644 102.714 17.836C102.714 18.172 102.562 18.452 102.258 18.676C101.954 18.892 101.574 19 101.118 19C100.742 19 100.394 18.892 100.074 18.676C99.7624 18.452 99.5024 18.156 99.2944 17.788C99.0944 17.412 98.9584 17.008 98.8864 16.576L99.1144 16.204C99.5544 16.028 99.8864 15.824 100.11 15.592C100.342 15.36 100.458 15.152 100.458 14.968C100.458 14.888 100.434 14.828 100.386 14.788C100.346 14.74 100.29 14.716 100.218 14.716C100.042 14.716 99.8264 14.836 99.5704 15.076C99.3144 15.308 98.9584 15.672 98.5024 16.168C98.4944 16.176 98.4024 16.28 98.2264 16.48C98.2024 17.104 98.1424 17.68 98.0464 18.208C97.9504 18.736 97.8184 19 97.6504 19C97.4504 19 97.2184 18.932 96.9544 18.796C96.6904 18.66 96.4624 18.5 96.2704 18.316C96.0864 18.124 95.9944 17.96 95.9944 17.824C95.9944 17.728 96.0264 17.564 96.0904 17.332C96.1544 17.092 96.2304 16.828 96.3184 16.54C96.6304 15.516 96.8744 14.6 97.0504 13.792C97.1464 13.344 97.2304 12.88 97.3024 12.4C97.4144 11.76 97.5104 11.268 97.5904 10.924C97.6704 10.58 97.7704 10.292 97.8904 10.06C98.0184 9.82 98.1744 9.7 98.3584 9.7C98.4944 9.7 98.6944 9.784 98.9584 9.952C99.2304 10.112 99.4704 10.3 99.6784 10.516C99.8864 10.724 99.9904 10.896 99.9904 11.032C99.9904 11.152 99.9464 11.288 99.8584 11.44C99.7784 11.584 99.6424 11.792 99.4504 12.064C99.4104 12.12 99.3344 12.232 99.2224 12.4C99.1184 12.568 99.0424 12.708 98.9944 12.82C98.8984 13.052 98.7904 13.348 98.6704 13.708C98.5584 14.068 98.4624 14.42 98.3824 14.764L98.5984 14.884Z" fill="white" fill-opacity="0.63"/>
<defs>
<linearGradient id="paint0_linear_217_1412" x1="4.56784" y1="26.1527" x2="26.1538" y2="9.10722" gradientUnits="userSpaceOnUse">
<stop stop-color="#550885" stop-opacity="0.63"/>
<stop offset="1" stop-color="#43C450"/>
</linearGradient>
<linearGradient id="paint1_linear_217_1412" x1="4.41882" y1="25.9643" x2="26.0048" y2="8.91879" gradientUnits="userSpaceOnUse">
<stop stop-color="#3E0895"/>
<stop offset="1" stop-color="#7EC443"/>
</linearGradient>
<linearGradient id="paint2_linear_217_1412" x1="8.08344" y1="30.6052" x2="29.6687" y2="13.5602" gradientUnits="userSpaceOnUse">
<stop stop-color="#1295D4"/>
<stop offset="1" stop-color="#7EC443"/>
</linearGradient>
<linearGradient id="paint3_linear_217_1412" x1="1.723" y1="22.5516" x2="23.3119" y2="5.50369" gradientUnits="userSpaceOnUse">
<stop stop-color="#1295D4"/>
<stop offset="1" stop-color="#7EC443"/>
</linearGradient>
<linearGradient id="paint4_linear_217_1412" x1="-4.00724" y1="15.2959" x2="17.5804" y2="-1.75088" gradientUnits="userSpaceOnUse">
<stop stop-color="#1295D4"/>
<stop offset="1" stop-color="#7EC443"/>
</linearGradient>
<linearGradient id="paint5_linear_217_1412" x1="3.06259" y1="24.2472" x2="24.6493" y2="7.20104" gradientUnits="userSpaceOnUse">
<stop stop-color="#1295D4"/>
<stop offset="1" stop-color="#7EC443"/>
</linearGradient>
<linearGradient id="paint6_linear_217_1412" x1="0.422274" y1="20.9038" x2="22.009" y2="3.85777" gradientUnits="userSpaceOnUse">
<stop stop-color="#1295D4"/>
<stop offset="1" stop-color="#7EC443"/>
</linearGradient>
<linearGradient id="paint7_linear_217_1412" x1="-3.45344" y1="15.9946" x2="18.1316" y2="-1.05005" gradientUnits="userSpaceOnUse">
<stop stop-color="#1295D4"/>
<stop offset="1" stop-color="#7EC443"/>
</linearGradient>
<linearGradient id="paint8_linear_217_1412" x1="-3.8958" y1="15.4353" x2="17.6905" y2="-1.61042" gradientUnits="userSpaceOnUse">
<stop stop-color="#1295D4"/>
<stop offset="1" stop-color="#7EC443"/>
</linearGradient>
<linearGradient id="paint9_linear_217_1412" x1="-4.08171" y1="15.2014" x2="17.5058" y2="-1.84526" gradientUnits="userSpaceOnUse">
<stop stop-color="#1295D4"/>
<stop offset="1" stop-color="#7EC443"/>
</linearGradient>
<linearGradient id="paint10_linear_217_1412" x1="-3.68145" y1="15.7087" x2="17.9062" y2="-1.33819" gradientUnits="userSpaceOnUse">
<stop stop-color="#1295D4"/>
<stop offset="1" stop-color="#7EC443"/>
</linearGradient>
<linearGradient id="paint11_linear_217_1412" x1="-1.87174" y1="17.9979" x2="19.7131" y2="0.953342" gradientUnits="userSpaceOnUse">
<stop stop-color="#1295D4"/>
<stop offset="1" stop-color="#7EC443"/>
</linearGradient>
<linearGradient id="paint12_linear_217_1412" x1="-0.792484" y1="19.3639" x2="20.7909" y2="2.32041" gradientUnits="userSpaceOnUse">
<stop stop-color="#1295D4"/>
<stop offset="1" stop-color="#7EC443"/>
</linearGradient>
<linearGradient id="paint13_linear_217_1412" x1="-2.77082" y1="16.8601" x2="18.8146" y2="-0.184905" gradientUnits="userSpaceOnUse">
<stop stop-color="#1295D4"/>
<stop offset="1" stop-color="#7EC443"/>
</linearGradient>
<linearGradient id="paint14_linear_217_1412" x1="5.65796" y1="27.5337" x2="27.2442" y2="10.488" gradientUnits="userSpaceOnUse">
<stop stop-color="#1295D4"/>
<stop offset="1" stop-color="#7EC443"/>
</linearGradient>
<linearGradient id="paint15_linear_217_1412" x1="6.81282" y1="28.9965" x2="28.3984" y2="11.9513" gradientUnits="userSpaceOnUse">
<stop stop-color="#1295D4"/>
<stop offset="1" stop-color="#7EC443"/>
</linearGradient>
<linearGradient id="paint16_linear_217_1412" x1="4.39128" y1="25.9292" x2="25.9761" y2="8.88454" gradientUnits="userSpaceOnUse">
<stop stop-color="#1295D4"/>
<stop offset="1" stop-color="#7EC443"/>
</linearGradient>
<linearGradient id="paint17_linear_217_1412" x1="7.27014" y1="29.5752" x2="28.8559" y2="12.5299" gradientUnits="userSpaceOnUse">
<stop stop-color="#1295D4"/>
<stop offset="1" stop-color="#7EC443"/>
</linearGradient>
<linearGradient id="paint18_linear_217_1412" x1="6.11481" y1="28.1128" x2="27.7019" y2="11.0663" gradientUnits="userSpaceOnUse">
<stop stop-color="#1295D4"/>
<stop offset="1" stop-color="#7EC443"/>
</linearGradient>
<linearGradient id="paint19_linear_217_1412" x1="-3.22326" y1="16.285" x2="18.3615" y2="-0.759602" gradientUnits="userSpaceOnUse">
<stop stop-color="#1295D4"/>
<stop offset="1" stop-color="#7EC443"/>
</linearGradient>
<linearGradient id="paint20_linear_217_1412" x1="-3.54965" y1="15.8741" x2="18.0368" y2="-1.17173" gradientUnits="userSpaceOnUse">
<stop stop-color="#1295D4"/>
<stop offset="1" stop-color="#7EC443"/>
</linearGradient>
<linearGradient id="paint21_linear_217_1412" x1="-2.31278" y1="17.4383" x2="19.2701" y2="0.395314" gradientUnits="userSpaceOnUse">
<stop stop-color="#1295D4"/>
<stop offset="1" stop-color="#7EC443"/>
</linearGradient>
<linearGradient id="paint22_linear_217_1412" x1="-2.99655" y1="16.5737" x2="18.5889" y2="-0.471205" gradientUnits="userSpaceOnUse">
<stop stop-color="#1295D4"/>
<stop offset="1" stop-color="#7EC443"/>
</linearGradient>
<linearGradient id="paint23_linear_217_1412" x1="-3.43882" y1="16.0151" x2="18.1487" y2="-1.03154" gradientUnits="userSpaceOnUse">
<stop stop-color="#1295D4"/>
<stop offset="1" stop-color="#7EC443"/>
</linearGradient>
<linearGradient id="paint24_linear_217_1412" x1="3.52006" y1="24.8256" x2="25.1034" y2="7.78218" gradientUnits="userSpaceOnUse">
<stop stop-color="#1295D4"/>
<stop offset="1" stop-color="#7EC443"/>
</linearGradient>
<linearGradient id="paint25_linear_217_1412" x1="-3.62368" y1="15.7811" x2="17.9632" y2="-1.26512" gradientUnits="userSpaceOnUse">
<stop stop-color="#1295D4"/>
<stop offset="1" stop-color="#7EC443"/>
</linearGradient>
<linearGradient id="paint26_linear_217_1412" x1="2.17996" y1="23.1294" x2="23.7652" y2="6.08441" gradientUnits="userSpaceOnUse">
<stop stop-color="#1295D4"/>
<stop offset="1" stop-color="#7EC443"/>
</linearGradient>
<linearGradient id="paint27_linear_217_1412" x1="-1.41461" y1="18.5765" x2="20.1701" y2="1.53205" gradientUnits="userSpaceOnUse">
<stop stop-color="#1295D4"/>
<stop offset="1" stop-color="#7EC443"/>
</linearGradient>
<linearGradient id="paint28_linear_217_1412" x1="-0.335551" y1="19.9429" x2="21.2479" y2="2.89936" gradientUnits="userSpaceOnUse">
<stop stop-color="#1295D4"/>
<stop offset="1" stop-color="#7EC443"/>
</linearGradient>
<linearGradient id="paint29_linear_217_1412" x1="4.84832" y1="26.508" x2="26.4348" y2="9.46211" gradientUnits="userSpaceOnUse">
<stop stop-color="#1295D4"/>
<stop offset="1" stop-color="#7EC443"/>
</linearGradient>
<linearGradient id="paint30_linear_217_1412" x1="0.879349" y1="21.4824" x2="22.4646" y2="4.43742" gradientUnits="userSpaceOnUse">
<stop stop-color="#1295D4"/>
<stop offset="1" stop-color="#7EC443"/>
</linearGradient>
<linearGradient id="paint31_linear_217_1412" x1="-2.98151" y1="16.5934" x2="18.6045" y2="-0.452117" gradientUnits="userSpaceOnUse">
<stop stop-color="#1295D4"/>
<stop offset="1" stop-color="#7EC443"/>
</linearGradient>
<linearGradient id="paint32_linear_217_1412" x1="-2.76592" y1="16.8644" x2="18.8187" y2="-0.180025" gradientUnits="userSpaceOnUse">
<stop stop-color="#1295D4"/>
<stop offset="1" stop-color="#7EC443"/>
</linearGradient>
<linearGradient id="paint33_linear_217_1412" x1="-3.09239" y1="16.4524" x2="18.4933" y2="-0.592836" gradientUnits="userSpaceOnUse">
<stop stop-color="#1295D4"/>
<stop offset="1" stop-color="#7EC443"/>
</linearGradient>
<linearGradient id="paint34_linear_217_1412" x1="-3.16749" y1="16.3593" x2="18.4206" y2="-0.687819" gradientUnits="userSpaceOnUse">
<stop stop-color="#1295D4"/>
<stop offset="1" stop-color="#7EC443"/>
</linearGradient>
<linearGradient id="paint35_linear_217_1412" x1="3.97699" y1="25.4049" x2="25.5633" y2="8.35904" gradientUnits="userSpaceOnUse">
<stop stop-color="#1295D4"/>
<stop offset="1" stop-color="#7EC443"/>
</linearGradient>
<linearGradient id="paint36_linear_217_1412" x1="5.30525" y1="27.0871" x2="26.8918" y2="10.0411" gradientUnits="userSpaceOnUse">
<stop stop-color="#1295D4"/>
<stop offset="1" stop-color="#7EC443"/>
</linearGradient>
<linearGradient id="paint37_linear_217_1412" x1="2.63702" y1="23.708" x2="24.223" y2="6.66252" gradientUnits="userSpaceOnUse">
<stop stop-color="#1295D4"/>
<stop offset="1" stop-color="#7EC443"/>
</linearGradient>
<linearGradient id="paint38_linear_217_1412" x1="6.57229" y1="28.6913" x2="28.1578" y2="11.6461" gradientUnits="userSpaceOnUse">
<stop stop-color="#1295D4"/>
<stop offset="1" stop-color="#7EC443"/>
</linearGradient>
<linearGradient id="paint39_linear_217_1412" x1="-1.85655" y1="18.0176" x2="19.7289" y2="0.972582" gradientUnits="userSpaceOnUse">
<stop stop-color="#1295D4"/>
<stop offset="1" stop-color="#7EC443"/>
</linearGradient>
<linearGradient id="paint40_linear_217_1412" x1="0.121189" y1="20.5223" x2="21.707" y2="3.47694" gradientUnits="userSpaceOnUse">
<stop stop-color="#1295D4"/>
<stop offset="1" stop-color="#7EC443"/>
</linearGradient>
<linearGradient id="paint41_linear_217_1412" x1="-0.958316" y1="19.1552" x2="20.6281" y2="2.10935" gradientUnits="userSpaceOnUse">
<stop stop-color="#1295D4"/>
<stop offset="1" stop-color="#7EC443"/>
</linearGradient>
<linearGradient id="paint42_linear_217_1412" x1="1.33558" y1="22.061" x2="22.9225" y2="5.01475" gradientUnits="userSpaceOnUse">
<stop stop-color="#1295D4"/>
<stop offset="1" stop-color="#7EC443"/>
</linearGradient>
<linearGradient id="paint43_linear_217_1412" x1="-2.53928" y1="17.1526" x2="19.0461" y2="0.107543" gradientUnits="userSpaceOnUse">
<stop stop-color="#1295D4"/>
<stop offset="1" stop-color="#7EC443"/>
</linearGradient>
<linearGradient id="paint44_linear_217_1412" x1="14.8745" y1="17.9211" x2="20.3908" y2="13.5651" gradientUnits="userSpaceOnUse">
<stop stop-color="#550885"/>
<stop offset="1" stop-color="#7EC443"/>
</linearGradient>
<linearGradient id="paint45_linear_217_1412" x1="15.5038" y1="18.7179" x2="21.0208" y2="14.3613" gradientUnits="userSpaceOnUse">
<stop stop-color="#1295D4"/>
<stop offset="1" stop-color="#7EC443"/>
</linearGradient>
<linearGradient id="paint46_linear_217_1412" x1="13.6694" y1="16.3954" x2="19.1859" y2="12.0391" gradientUnits="userSpaceOnUse">
<stop stop-color="#1295D4"/>
<stop offset="1" stop-color="#7EC443"/>
</linearGradient>
<linearGradient id="paint47_linear_217_1412" x1="13.959" y1="16.7626" x2="19.476" y2="12.406" gradientUnits="userSpaceOnUse">
<stop stop-color="#1295D4"/>
<stop offset="1" stop-color="#7EC443"/>
</linearGradient>
<linearGradient id="paint48_linear_217_1412" x1="13.3797" y1="16.0286" x2="18.8963" y2="11.6724" gradientUnits="userSpaceOnUse">
<stop stop-color="#1295D4"/>
<stop offset="1" stop-color="#7EC443"/>
</linearGradient>
<linearGradient id="paint49_linear_217_1412" x1="13.0899" y1="15.6617" x2="18.607" y2="11.3052" gradientUnits="userSpaceOnUse">
<stop stop-color="#1295D4"/>
<stop offset="1" stop-color="#7EC443"/>
</linearGradient>
<linearGradient id="paint50_linear_217_1412" x1="14.8283" y1="17.8622" x2="20.3443" y2="13.5065" gradientUnits="userSpaceOnUse">
<stop stop-color="#1295D4"/>
<stop offset="1" stop-color="#7EC443"/>
</linearGradient>
<linearGradient id="paint51_linear_217_1412" x1="15.118" y1="18.2301" x2="20.6346" y2="13.8739" gradientUnits="userSpaceOnUse">
<stop stop-color="#1295D4"/>
<stop offset="1" stop-color="#7EC443"/>
</linearGradient>
<linearGradient id="paint52_linear_217_1412" x1="14.5384" y1="17.4955" x2="20.0553" y2="13.1391" gradientUnits="userSpaceOnUse">
<stop stop-color="#1295D4"/>
<stop offset="1" stop-color="#7EC443"/>
</linearGradient>
<linearGradient id="paint53_linear_217_1412" x1="14.2488" y1="17.1294" x2="19.7657" y2="12.7729" gradientUnits="userSpaceOnUse">
<stop stop-color="#1295D4"/>
<stop offset="1" stop-color="#7EC443"/>
</linearGradient>
<linearGradient id="paint54_linear_217_1412" x1="12.8019" y1="15.2979" x2="18.3199" y2="10.9407" gradientUnits="userSpaceOnUse">
<stop stop-color="#1295D4"/>
<stop offset="1" stop-color="#7EC443"/>
</linearGradient>
<linearGradient id="paint55_linear_217_1412" x1="15.6208" y1="18.866" x2="21.1371" y2="14.5101" gradientUnits="userSpaceOnUse">
<stop stop-color="#1295D4"/>
<stop offset="1" stop-color="#7EC443"/>
</linearGradient>
<linearGradient id="paint56_linear_217_1412" x1="14.9452" y1="18.0106" x2="20.4617" y2="13.6545" gradientUnits="userSpaceOnUse">
<stop stop-color="#1295D4"/>
<stop offset="1" stop-color="#7EC443"/>
</linearGradient>
<linearGradient id="paint57_linear_217_1412" x1="14.6555" y1="17.6438" x2="20.1719" y2="13.2877" gradientUnits="userSpaceOnUse">
<stop stop-color="#1295D4"/>
<stop offset="1" stop-color="#7EC443"/>
</linearGradient>
<linearGradient id="paint58_linear_217_1412" x1="15.235" y1="18.3775" x2="20.7515" y2="14.0213" gradientUnits="userSpaceOnUse">
<stop stop-color="#1295D4"/>
<stop offset="1" stop-color="#7EC443"/>
</linearGradient>
<linearGradient id="paint59_linear_217_1412" x1="14.366" y1="17.2766" x2="19.8821" y2="12.9208" gradientUnits="userSpaceOnUse">
<stop stop-color="#1295D4"/>
<stop offset="1" stop-color="#7EC443"/>
</linearGradient>
<linearGradient id="paint60_linear_217_1412" x1="13.4967" y1="16.1759" x2="19.0132" y2="11.8198" gradientUnits="userSpaceOnUse">
<stop stop-color="#1295D4"/>
<stop offset="1" stop-color="#7EC443"/>
</linearGradient>
<linearGradient id="paint61_linear_217_1412" x1="14.0761" y1="16.9098" x2="19.5926" y2="12.5537" gradientUnits="userSpaceOnUse">
<stop stop-color="#1295D4"/>
<stop offset="1" stop-color="#7EC443"/>
</linearGradient>
<linearGradient id="paint62_linear_217_1412" x1="13.2071" y1="15.8096" x2="18.7234" y2="11.4536" gradientUnits="userSpaceOnUse">
<stop stop-color="#1295D4"/>
<stop offset="1" stop-color="#7EC443"/>
</linearGradient>
<linearGradient id="paint63_linear_217_1412" x1="13.7866" y1="16.5427" x2="19.3029" y2="12.1868" gradientUnits="userSpaceOnUse">
<stop stop-color="#1295D4"/>
<stop offset="1" stop-color="#7EC443"/>
</linearGradient>
<linearGradient id="paint64_linear_217_1412" x1="12.92" y1="15.445" x2="18.4357" y2="11.0895" gradientUnits="userSpaceOnUse">
<stop stop-color="#1295D4"/>
<stop offset="1" stop-color="#7EC443"/>
</linearGradient>
<linearGradient id="paint65_linear_217_1412" x1="15.7373" y1="19.0143" x2="21.2535" y2="14.6584" gradientUnits="userSpaceOnUse">
<stop stop-color="#1295D4"/>
<stop offset="1" stop-color="#7EC443"/>
</linearGradient>
<linearGradient id="paint66_linear_217_1412" x1="14.1925" y1="17.0576" x2="19.709" y2="12.7015" gradientUnits="userSpaceOnUse">
<stop stop-color="#1295D4"/>
<stop offset="1" stop-color="#7EC443"/>
</linearGradient>
<linearGradient id="paint67_linear_217_1412" x1="13.9029" y1="16.6906" x2="19.4195" y2="12.3344" gradientUnits="userSpaceOnUse">
<stop stop-color="#1295D4"/>
<stop offset="1" stop-color="#7EC443"/>
</linearGradient>
<linearGradient id="paint68_linear_217_1412" x1="13.6133" y1="16.3246" x2="19.1295" y2="11.9687" gradientUnits="userSpaceOnUse">
<stop stop-color="#1295D4"/>
<stop offset="1" stop-color="#7EC443"/>
</linearGradient>
<linearGradient id="paint69_linear_217_1412" x1="13.3235" y1="15.9569" x2="18.8399" y2="11.6008" gradientUnits="userSpaceOnUse">
<stop stop-color="#1295D4"/>
<stop offset="1" stop-color="#7EC443"/>
</linearGradient>
<linearGradient id="paint70_linear_217_1412" x1="15.0616" y1="18.1584" x2="20.5781" y2="13.8023" gradientUnits="userSpaceOnUse">
<stop stop-color="#1295D4"/>
<stop offset="1" stop-color="#7EC443"/>
</linearGradient>
<linearGradient id="paint71_linear_217_1412" x1="15.3514" y1="18.5253" x2="20.8679" y2="14.1691" gradientUnits="userSpaceOnUse">
<stop stop-color="#1295D4"/>
<stop offset="1" stop-color="#7EC443"/>
</linearGradient>
<linearGradient id="paint72_linear_217_1412" x1="14.4823" y1="17.4245" x2="19.9987" y2="13.0684" gradientUnits="userSpaceOnUse">
<stop stop-color="#1295D4"/>
<stop offset="1" stop-color="#7EC443"/>
</linearGradient>
<linearGradient id="paint73_linear_217_1412" x1="14.7719" y1="17.7916" x2="20.2883" y2="13.4355" gradientUnits="userSpaceOnUse">
<stop stop-color="#1295D4"/>
<stop offset="1" stop-color="#7EC443"/>
</linearGradient>
<linearGradient id="paint74_linear_217_1412" x1="13.036" y1="15.5937" x2="18.5525" y2="11.2375" gradientUnits="userSpaceOnUse">
<stop stop-color="#1295D4"/>
<stop offset="1" stop-color="#7EC443"/>
</linearGradient>
</defs>
</svg>
